<svg width="171" height="230" viewBox="0 0 172 231" fill="none" xmlns="http://www.w3.org/2000/svg">
<g filter="url(#filter0_d)">
<path d="M143.714 0H27.2857C14.4254 0 4 10.4246 4 23.2841V138.183C4 151.042 14.4254 161.467 27.2857 161.467H143.714C156.575 161.467 167 151.042 167 138.183V23.2841C167 10.4246 156.575 0 143.714 0Z" fill="#2C3138"/>
<path d="M119.122 68.2666H95.2124V79.1751C95.2124 86.9101 90.1315 93.2016 83.8862 93.2016C77.641 93.2016 72.5601 86.9101 72.5601 79.1751V55.4883L62.3493 63.0859C59.3151 65.3258 57.4569 69.3983 57.4569 73.7617V82.9752L44.8734 91.9744C42.4656 93.6881 41.632 97.5067 43.0338 100.487L55.6174 127.487C57.0029 130.468 60.0859 131.481 62.4913 129.767L78.7564 118.136H100.244C105.798 118.136 110.313 112.546 110.313 105.67H112.83C115.615 105.67 117.865 102.883 117.865 99.4347V86.9684H119.122C121.213 86.9684 122.897 84.8845 122.897 82.293V72.9421C122.897 70.3506 121.213 68.2666 119.122 68.2666ZM142.357 60.9811L129.771 33.9831C128.388 31.0027 125.305 29.99 122.897 31.7037L106.632 43.3317H90.5553C88.6668 43.3317 86.8272 43.9953 85.2228 45.2224L79.9533 49.2948C78.4746 50.4241 77.5921 52.4311 77.5921 54.5732V79.1751C77.5921 83.4804 80.4097 86.9684 83.8862 86.9684C87.3628 86.9684 90.178 83.4804 90.178 79.1751V62.0334H119.122C123.982 62.0334 127.931 66.9232 127.931 72.9421V78.4953L140.515 69.4937C142.922 67.7614 143.74 63.9614 142.357 60.9811Z" fill="#FF9B77"/>
</g>
<defs>
<filter id="filter0_d" x="0" y="0" width="171" height="240" filterUnits="userSpaceOnUse" color-interpolation-filters="sRGB">
<feFlood flood-opacity="0" result="BackgroundImageFix"/>
<feColorMatrix in="SourceAlpha" type="matrix" values="0 0 0 0 0 0 0 0 0 0 0 0 0 0 0 0 0 0 127 0"/>
<feOffset dy="4"/>
<feGaussianBlur stdDeviation="2"/>
<feColorMatrix type="matrix" values="0 0 0 0 0 0 0 0 0 0 0 0 0 0 0 0 0 0 0.8 0"/>
<feBlend mode="normal" in2="BackgroundImageFix" result="effect1_dropShadow"/>
<feBlend mode="normal" in="SourceGraphic" in2="effect1_dropShadow" result="shape"/>
</filter>
</defs>
</svg>
