<svg width="171" height="230" viewBox="0 0 172 232" fill="none" xmlns="http://www.w3.org/2000/svg">
<g filter="url(#filter0_d)">
<path d="M144.06 0.194817L27.1648 0.03196C14.4953 0.014309 4.21039 10.3358 4.19285 23.0857L4.03186 140.114C4.01432 152.864 14.2708 163.214 26.9403 163.232L143.835 163.395C156.505 163.412 166.79 153.091 166.807 140.341L166.968 23.3125C166.986 10.5626 156.729 0.212468 144.06 0.194817Z" fill="#2C3138"/>
<path d="M110.775 32.2947C110.775 32.2947 107.13 32.6732 105.501 37.4797L100.205 58.243L121.252 73.8512L137.053 73.872C147.588 73.8881 147.601 63.502 147.601 63.502L131.821 47.9005C126.561 42.7016 121.293 42.6947 116.026 42.6878L116.036 37.4935C116.036 37.4935 116.042 32.3016 110.775 32.2947ZM58.0902 42.607C58.0902 42.607 54.3719 42.5286 50.4716 44.4447C46.5715 46.3608 42.2773 51.2341 42.2679 58.1621L42.2392 78.9324C42.225 89.3186 42.2179 94.5106 36.9508 94.5037C36.9508 94.5037 31.6838 94.4968 31.6767 99.6888L31.6482 120.461C31.6482 120.461 31.6409 125.653 36.9079 125.66C42.175 125.667 42.1821 120.475 42.1821 120.475L42.2034 104.897C45.9326 104.902 49.4739 103.484 52.7417 101.806L52.716 120.489C52.716 120.489 52.7089 125.683 57.976 125.69C63.243 125.697 63.2502 120.505 63.2502 120.505L63.286 94.5406L94.8879 94.5846L101.854 115.283C105.38 125.755 110.647 125.764 110.647 125.764L115.914 125.771C115.914 125.771 121.181 125.778 121.188 120.586C121.195 115.392 115.928 115.385 115.928 115.385L115.962 89.4225C115.976 80.179 109.323 76.3791 105.451 73.8281L89.6426 63.4211L52.7947 63.3704L52.8018 58.1761C52.8066 54.7178 53.7761 54.42 55.1571 53.7344C56.5273 53.0626 58.076 52.991 58.076 52.991C65.1969 53.1064 65.2113 42.5124 58.0902 42.607Z" fill="#FF9B77"/>
</g>
<defs>
<filter id="filter0_d" x="0" y="0" width="171" height="240" filterUnits="userSpaceOnUse" color-interpolation-filters="sRGB">
<feFlood flood-opacity="0" result="BackgroundImageFix"/>
<feColorMatrix in="SourceAlpha" type="matrix" values="0 0 0 0 0 0 0 0 0 0 0 0 0 0 0 0 0 0 127 0"/>
<feOffset dy="4"/>
<feGaussianBlur stdDeviation="2"/>
<feColorMatrix type="matrix" values="0 0 0 0 0 0 0 0 0 0 0 0 0 0 0 0 0 0 0.25 0"/>
<feBlend mode="normal" in2="BackgroundImageFix" result="effect1_dropShadow"/>
<feBlend mode="normal" in="SourceGraphic" in2="effect1_dropShadow" result="shape"/>
</filter>
</defs>
</svg>
