<svg width="168" height="168" viewBox="0 0 168 168" fill="none" xmlns="http://www.w3.org/2000/svg">
<g filter="url(#filter0_d)">
<path d="M140.438 0H27.1664C14.372 0 4 10.3738 4 23.1706V135.949C4 148.746 14.372 159.12 27.1664 159.12H140.438C153.233 159.12 163.605 148.746 163.605 135.949V23.1706C163.605 10.3738 153.233 0 140.438 0Z" fill="#2C3138"/>
</g>
<g filter="url(#filter1_d)">
<path d="M91.0736 38.6914V70.8083H128.946C128.948 61.876 125.666 53.2426 119.7 46.4907C113.735 39.7411 105.488 35.3225 96.4713 34.0504C93.6311 33.6333 91.0736 35.86 91.0736 38.6914ZM120.993 98.1426C126.15 91.6595 128.948 83.6702 128.946 75.4493H60.0189L56.7988 68.811C56.4189 68.0185 55.8165 67.3512 55.0613 66.8808C54.3061 66.4128 53.4327 66.1649 52.5385 66.1672H43.7329C41.129 66.1672 39 68.2549 39 70.8083C39 73.3593 41.129 75.4493 43.7329 75.4493H49.5083C49.5083 75.4493 58.4552 94.3379 59.544 95.9622C56.2915 97.6768 53.7153 100.406 52.2234 103.717C50.7315 107.031 50.4095 110.736 51.3083 114.246C52.7284 120.094 57.6513 124.782 63.6167 126.082C73.5574 128.216 82.458 121.626 83.7367 112.576H93.5825C93.9045 114.791 94.6922 116.915 95.8899 118.815C97.0899 120.718 98.6768 122.356 100.553 123.628C102.43 124.9 104.552 125.78 106.79 126.209C109.03 126.64 111.333 126.612 113.561 126.128C116.538 125.486 119.276 124.05 121.475 121.978C123.671 119.907 125.242 117.279 126.011 114.387C127.667 107.934 125.348 101.95 120.993 98.1426ZM67.4044 117.217C63.473 117.217 60.3016 114.107 60.3016 110.256C60.3016 106.403 63.473 103.293 67.4044 103.293C71.3334 103.293 74.5049 106.403 74.5049 110.256C74.5049 114.107 71.3334 117.217 67.4044 117.217ZM110.01 117.217C106.081 117.217 102.909 114.107 102.909 110.256C102.909 106.403 106.081 103.293 110.01 103.293C113.939 103.293 117.11 106.403 117.11 110.256C117.11 114.107 113.939 117.217 110.01 117.217Z" fill="#FF9B77"/>
</g>
<defs>
<filter id="filter0_d" x="0" y="0" width="167.605" height="167.12" filterUnits="userSpaceOnUse" color-interpolation-filters="sRGB">
<feFlood flood-opacity="0" result="BackgroundImageFix"/>
<feColorMatrix in="SourceAlpha" type="matrix" values="0 0 0 0 0 0 0 0 0 0 0 0 0 0 0 0 0 0 127 0"/>
<feOffset dy="4"/>
<feGaussianBlur stdDeviation="2"/>
<feColorMatrix type="matrix" values="0 0 0 0 0 0 0 0 0 0 0 0 0 0 0 0 0 0 0.5 0"/>
<feBlend mode="normal" in2="BackgroundImageFix" result="effect1_dropShadow"/>
<feBlend mode="normal" in="SourceGraphic" in2="effect1_dropShadow" result="shape"/>
</filter>
<filter id="filter1_d" x="35" y="34" width="97.9461" height="100.513" filterUnits="userSpaceOnUse" color-interpolation-filters="sRGB">
<feFlood flood-opacity="0" result="BackgroundImageFix"/>
<feColorMatrix in="SourceAlpha" type="matrix" values="0 0 0 0 0 0 0 0 0 0 0 0 0 0 0 0 0 0 127 0"/>
<feOffset dy="4"/>
<feGaussianBlur stdDeviation="2"/>
<feColorMatrix type="matrix" values="0 0 0 0 0 0 0 0 0 0 0 0 0 0 0 0 0 0 0.5 0"/>
<feBlend mode="normal" in2="BackgroundImageFix" result="effect1_dropShadow"/>
<feBlend mode="normal" in="SourceGraphic" in2="effect1_dropShadow" result="shape"/>
</filter>
</defs>
</svg>
