<svg width="171" height="230" viewBox="0 0 172 231" fill="none" xmlns="http://www.w3.org/2000/svg">
<g filter="url(#filter0_d)">
<path d="M138.918 0.189059L27.0643 0.032067C14.4462 0.0143569 4.20312 10.3704 4.18566 23.163L4.0317 135.905C4.01424 148.697 14.229 159.082 26.8471 159.1L138.701 159.257C151.319 159.275 161.562 148.919 161.579 136.126L161.733 23.3841C161.751 10.5916 151.536 0.20677 138.918 0.189059Z" fill="#2C3138"/>
<path d="M46.77 125.988L121.539 126.093C122.777 126.095 123.968 125.606 124.845 124.738C125.722 123.869 126.216 122.69 126.218 121.46L126.318 47.2272C126.33 39.5533 120.049 33.3015 112.318 33.2899L56.2426 33.2112C48.5135 33.1996 42.215 39.4374 42.2045 47.109L42.1033 121.342C42.1014 122.572 42.5922 123.753 43.4675 124.624C44.3427 125.495 45.5305 125.986 46.77 125.988ZM112.306 42.217C112.921 42.217 113.529 42.3375 114.095 42.5714C114.662 42.8054 115.176 43.1482 115.61 43.579C116.042 44.0121 116.387 44.5241 116.62 45.0869C116.855 45.6498 116.974 46.2519 116.974 46.8634C116.972 47.4726 116.851 48.0748 116.615 48.6377C116.38 49.2006 116.035 49.7103 115.601 50.1411C115.167 50.5719 114.651 50.9124 114.084 51.144C113.515 51.378 112.907 51.496 112.295 51.496C111.054 51.4937 109.866 51.0027 108.991 50.1318C108.116 49.2608 107.625 48.0795 107.627 46.8496C107.63 45.6196 108.123 44.4383 109 43.5697C109.878 42.7011 111.068 42.2147 112.306 42.217ZM98.2875 42.1961C98.9021 42.1984 99.5098 42.3189 100.076 42.5529C100.643 42.7868 101.157 43.1296 101.591 43.5605C102.023 43.9913 102.368 44.5031 102.601 45.066C102.834 45.6288 102.955 46.2335 102.955 46.8427C102.953 47.4518 102.832 48.0541 102.596 48.6169C102.361 49.1798 102.016 49.6917 101.582 50.1202C101.146 50.551 100.632 50.8916 100.063 51.1255C99.4961 51.3571 98.8883 51.4776 98.2761 51.4753C97.0355 51.4729 95.8474 50.9842 94.9724 50.111C94.0973 49.2401 93.6061 48.0609 93.6084 46.8287C93.6107 45.5987 94.1042 44.4198 94.9815 43.5511C95.8589 42.6825 97.0492 42.1937 98.2875 42.1961ZM84.2491 56.4483C99.7131 56.4691 112.27 68.9726 112.249 84.3251C112.229 99.6752 99.6354 112.144 84.1731 112.121C68.71 112.1 56.1521 99.5965 56.1729 84.2463C56.1939 68.8939 68.7861 56.4251 84.2491 56.4483Z" fill="#FF9B77"/>
<path d="M87.7657 102.52C94.3052 101.317 99.7885 96.4346 101.909 90.1736C103.444 85.7796 103.195 80.9664 101.212 76.7507C100.995 76.2874 100.625 75.9122 100.163 75.6875C99.6994 75.4606 99.1739 75.4003 98.6713 75.5138C95.8497 76.2017 93.9077 77.5845 91.6575 79.2198C87.9807 81.8905 83.4012 85.2122 74.8638 85.2006C71.0645 85.1936 68.0887 84.5126 65.5947 83.5444L65.534 83.5861C65.4312 86.3795 65.9642 89.1591 67.093 91.7186C68.2219 94.2781 69.9176 96.5527 72.0543 98.371C74.1907 100.192 76.7128 101.51 79.4329 102.228C82.1531 102.946 85.0014 103.045 87.7657 102.52Z" fill="#FF9B77"/>
</g>
<defs>
<filter id="filter0_d" x="0" y="0" width="171" height="240" filterUnits="userSpaceOnUse" color-interpolation-filters="sRGB">
<feFlood flood-opacity="0" result="BackgroundImageFix"/>
<feColorMatrix in="SourceAlpha" type="matrix" values="0 0 0 0 0 0 0 0 0 0 0 0 0 0 0 0 0 0 127 0"/>
<feOffset dy="4"/>
<feGaussianBlur stdDeviation="2"/>
<feColorMatrix type="matrix" values="0 0 0 0 0 0 0 0 0 0 0 0 0 0 0 0 0 0 0.25 0"/>
<feBlend mode="normal" in2="BackgroundImageFix" result="effect1_dropShadow"/>
<feBlend mode="normal" in="SourceGraphic" in2="effect1_dropShadow" result="shape"/>
</filter>
</defs>
</svg>
