<svg width="166" height="168" viewBox="0 0 166 168" fill="none" xmlns="http://www.w3.org/2000/svg">
<g filter="url(#filter0_d)">
<path d="M138.918 0.189059L27.0643 0.032067C14.4462 0.0143569 4.20312 10.3704 4.18566 23.163L4.0317 135.905C4.01424 148.697 14.229 159.082 26.8471 159.1L138.701 159.257C151.319 159.275 161.562 148.919 161.579 136.126L161.733 23.3841C161.751 10.5916 151.536 0.20677 138.918 0.189059Z" fill="#2C3138"/>
</g>
<g filter="url(#filter1_d)">
<path d="M45.6667 126.777L120.436 126.881C121.674 126.884 122.864 126.395 123.742 125.526C124.619 124.658 125.112 123.479 125.115 122.249L125.215 48.016C125.227 40.3421 118.946 34.0903 111.215 34.0788L55.1393 34C47.4102 33.9884 41.1117 40.2262 41.1012 47.8978L41 122.131C40.9982 123.361 41.4889 124.542 42.3642 125.413C43.2395 126.284 44.4273 126.775 45.6667 126.777ZM111.203 43.0058C111.818 43.0058 112.425 43.1263 112.992 43.3602C113.559 43.5942 114.073 43.937 114.507 44.3678C114.939 44.801 115.284 45.3129 115.517 45.8757C115.752 46.4386 115.871 47.0408 115.871 47.6523C115.868 48.2614 115.747 48.8637 115.512 49.4265C115.277 49.9894 114.932 50.4991 114.498 50.9299C114.064 51.3607 113.547 51.7012 112.981 51.9328C112.412 52.1668 111.804 52.2849 111.192 52.2849C109.951 52.2825 108.763 51.7915 107.888 50.9206C107.013 50.0497 106.522 48.8684 106.524 47.6384C106.526 46.4084 107.02 45.2271 107.897 44.3585C108.774 43.4899 109.965 43.0035 111.203 43.0058ZM97.1842 42.9849C97.7988 42.9872 98.4065 43.1078 98.9731 43.3417C99.5397 43.5757 100.054 43.9185 100.488 44.3493C100.92 44.7801 101.265 45.2919 101.498 45.8548C101.731 46.4177 101.852 47.0223 101.852 47.6315C101.85 48.2407 101.728 48.8429 101.493 49.4057C101.258 49.9686 100.913 50.4805 100.479 50.909C100.042 51.3398 99.5283 51.6804 98.9594 51.9143C98.3928 52.1459 97.7851 52.2664 97.1728 52.2641C95.9322 52.2618 94.7441 51.773 93.8691 50.8998C92.9941 50.0289 92.5029 48.8498 92.5051 47.6175C92.5074 46.3875 93.0009 45.2086 93.8783 44.34C94.7556 43.4714 95.9459 42.9826 97.1842 42.9849ZM83.1459 57.2371C98.6099 57.258 111.167 69.7614 111.146 85.1139C111.125 100.464 98.5322 112.933 83.0698 112.91C67.6067 112.889 55.0488 100.385 55.0696 85.0351C55.0907 69.6827 67.6828 57.214 83.1459 57.2371Z" fill="#FF9B77"/>
</g>
<g filter="url(#filter2_d)">
<path d="M86.6624 103.308C93.2019 102.106 98.6852 97.2227 100.805 90.9618C102.341 86.5677 102.092 81.7545 100.109 77.5388C99.8915 77.0756 99.5214 76.7004 99.0599 76.4757C98.5961 76.2487 98.0706 76.1884 97.568 76.3019C94.7464 76.9899 92.8044 78.3727 90.5542 80.008C86.8774 82.6787 82.298 86.0003 73.7605 85.9887C69.9613 85.9818 66.9854 85.3007 64.4915 84.3325L64.4307 84.3742C64.3279 87.1677 64.8609 89.9472 65.9898 92.5067C67.1186 95.0662 68.8143 97.3409 70.951 99.1592C73.0874 100.98 75.6095 102.298 78.3297 103.016C81.0498 103.734 83.8982 103.833 86.6624 103.308Z" fill="#FF9B77"/>
</g>
<defs>
<filter id="filter0_d" x="0.0317383" y="0.0320435" width="165.702" height="167.225" filterUnits="userSpaceOnUse" color-interpolation-filters="sRGB">
<feFlood flood-opacity="0" result="BackgroundImageFix"/>
<feColorMatrix in="SourceAlpha" type="matrix" values="0 0 0 0 0 0 0 0 0 0 0 0 0 0 0 0 0 0 127 0"/>
<feOffset dy="4"/>
<feGaussianBlur stdDeviation="2"/>
<feColorMatrix type="matrix" values="0 0 0 0 0 0 0 0 0 0 0 0 0 0 0 0 0 0 0.5 0"/>
<feBlend mode="normal" in2="BackgroundImageFix" result="effect1_dropShadow"/>
<feBlend mode="normal" in="SourceGraphic" in2="effect1_dropShadow" result="shape"/>
</filter>
<filter id="filter1_d" x="37" y="34" width="92.2152" height="100.881" filterUnits="userSpaceOnUse" color-interpolation-filters="sRGB">
<feFlood flood-opacity="0" result="BackgroundImageFix"/>
<feColorMatrix in="SourceAlpha" type="matrix" values="0 0 0 0 0 0 0 0 0 0 0 0 0 0 0 0 0 0 127 0"/>
<feOffset dy="4"/>
<feGaussianBlur stdDeviation="2"/>
<feColorMatrix type="matrix" values="0 0 0 0 0 0 0 0 0 0 0 0 0 0 0 0 0 0 0.5 0"/>
<feBlend mode="normal" in2="BackgroundImageFix" result="effect1_dropShadow"/>
<feBlend mode="normal" in="SourceGraphic" in2="effect1_dropShadow" result="shape"/>
</filter>
<filter id="filter2_d" x="60.4182" y="76.2461" width="45.382" height="35.3937" filterUnits="userSpaceOnUse" color-interpolation-filters="sRGB">
<feFlood flood-opacity="0" result="BackgroundImageFix"/>
<feColorMatrix in="SourceAlpha" type="matrix" values="0 0 0 0 0 0 0 0 0 0 0 0 0 0 0 0 0 0 127 0"/>
<feOffset dy="4"/>
<feGaussianBlur stdDeviation="2"/>
<feColorMatrix type="matrix" values="0 0 0 0 0 0 0 0 0 0 0 0 0 0 0 0 0 0 0.5 0"/>
<feBlend mode="normal" in2="BackgroundImageFix" result="effect1_dropShadow"/>
<feBlend mode="normal" in="SourceGraphic" in2="effect1_dropShadow" result="shape"/>
</filter>
</defs>
</svg>
