<svg width="169" height="169" viewBox="0 0 169 169" fill="none" xmlns="http://www.w3.org/2000/svg">
<g filter="url(#filter0_d)">
<path d="M141.367 0.187218L27.0817 0.0312029C14.4581 0.01397 4.21053 10.028 4.19316 22.3982L4.03142 137.602C4.01406 149.972 14.2335 160.014 26.8571 160.031L141.143 160.187C153.766 160.204 164.014 150.19 164.031 137.82L164.193 22.6166C164.21 10.2464 153.991 0.204451 141.367 0.187218Z" fill="#2C3138"/>
</g>
<g filter="url(#filter1_d)">
<path d="M122.983 49.1825L108.499 49.1619L108.513 39.6073C108.52 34.3382 104.195 30.0482 98.8702 30.039L69.9027 30C64.5776 29.9931 60.2409 34.2717 60.2335 39.5409L60.22 49.0954L45.7362 49.0771C43.1754 49.0725 40.718 50.0768 38.9045 51.8653C37.0913 53.656 36.0705 56.0842 36.067 58.6179L36 106.391C35.9963 108.924 37.0104 111.357 38.8185 113.15C40.6269 114.946 43.0814 115.955 45.6423 115.959L122.888 116.065C125.451 116.067 127.908 115.065 129.72 113.274C131.534 111.486 132.554 109.057 132.559 106.524L132.626 58.7509C132.629 56.2149 131.615 53.7844 129.806 51.9891C127.999 50.196 125.544 49.1848 122.983 49.1825ZM69.8892 39.5546L98.8567 39.5936L98.8435 49.1482L69.876 49.1092L69.8892 39.5546ZM103.618 87.3733L89.134 87.355L89.1138 101.686L79.458 101.672L79.478 87.3412L64.9943 87.3206L65.0078 77.766L79.4915 77.7867L79.5115 63.4536L89.1675 63.4674L89.1473 77.8004L103.631 77.8188L103.618 87.3733Z" fill="#FF9B77"/>
</g>
<defs>
<filter id="filter0_d" x="0.03125" y="0.0311279" width="168.162" height="168.156" filterUnits="userSpaceOnUse" color-interpolation-filters="sRGB">
<feFlood flood-opacity="0" result="BackgroundImageFix"/>
<feColorMatrix in="SourceAlpha" type="matrix" values="0 0 0 0 0 0 0 0 0 0 0 0 0 0 0 0 0 0 127 0"/>
<feOffset dy="4"/>
<feGaussianBlur stdDeviation="2"/>
<feColorMatrix type="matrix" values="0 0 0 0 0 0 0 0 0 0 0 0 0 0 0 0 0 0 0.5 0"/>
<feBlend mode="normal" in2="BackgroundImageFix" result="effect1_dropShadow"/>
<feBlend mode="normal" in="SourceGraphic" in2="effect1_dropShadow" result="shape"/>
</filter>
<filter id="filter1_d" x="32" y="30" width="104.626" height="94.0646" filterUnits="userSpaceOnUse" color-interpolation-filters="sRGB">
<feFlood flood-opacity="0" result="BackgroundImageFix"/>
<feColorMatrix in="SourceAlpha" type="matrix" values="0 0 0 0 0 0 0 0 0 0 0 0 0 0 0 0 0 0 127 0"/>
<feOffset dy="4"/>
<feGaussianBlur stdDeviation="2"/>
<feColorMatrix type="matrix" values="0 0 0 0 0 0 0 0 0 0 0 0 0 0 0 0 0 0 0.5 0"/>
<feBlend mode="normal" in2="BackgroundImageFix" result="effect1_dropShadow"/>
<feBlend mode="normal" in="SourceGraphic" in2="effect1_dropShadow" result="shape"/>
</filter>
</defs>
</svg>
