<svg width="171" height="230" viewBox="0 0 172 231" fill="none" xmlns="http://www.w3.org/2000/svg">
<g filter="url(#filter0_d)">
<path d="M137.367 0.187218L23.0817 0.0312029C10.4581 0.01397 0.210531 10.028 0.193163 22.3982L0.0314234 137.602C0.0140563 149.972 10.2335 160.014 22.8571 160.031L137.143 160.187C149.766 160.204 160.014 150.19 160.031 137.82L160.193 22.6166C160.21 10.2464 149.991 0.204451 137.367 0.187218Z" fill="#2C3138"/>
<path d="M118.983 49.1825L104.499 49.1619L104.513 39.6073C104.52 34.3382 100.195 30.0482 94.8702 30.039L65.9027 30C60.5776 29.9931 56.2409 34.2717 56.2335 39.5409L56.22 49.0954L41.7362 49.0771C39.1754 49.0725 36.718 50.0768 34.9045 51.8653C33.0913 53.656 32.0705 56.0842 32.067 58.6179L32 106.391C31.9963 108.924 33.0104 111.357 34.8185 113.15C36.6269 114.946 39.0814 115.955 41.6423 115.959L118.888 116.065C121.451 116.067 123.908 115.065 125.72 113.274C127.534 111.486 128.554 109.057 128.559 106.524L128.626 58.7509C128.629 56.2149 127.615 53.7844 125.806 51.9891C123.999 50.196 121.544 49.1848 118.983 49.1825ZM65.8892 39.5546L94.8567 39.5936L94.8435 49.1482L65.876 49.1092L65.8892 39.5546ZM99.6178 87.3733L85.134 87.355L85.1138 101.686L75.458 101.672L75.478 87.3412L60.9943 87.3206L61.0078 77.766L75.4915 77.7867L75.5115 63.4536L85.1675 63.4674L85.1473 77.8004L99.631 77.8188L99.6178 87.3733Z" fill="#FF9B77"/>
</g>
<defs>
<filter id="filter0_d" x="0" y="0" width="171" height="240" filterUnits="userSpaceOnUse" color-interpolation-filters="sRGB">
<feFlood flood-opacity="0" result="BackgroundImageFix"/>
<feColorMatrix in="SourceAlpha" type="matrix" values="0 0 0 0 0 0 0 0 0 0 0 0 0 0 0 0 0 0 127 0"/>
<feOffset dy="4"/>
<feGaussianBlur stdDeviation="2"/>
<feColorMatrix type="matrix" values="0 0 0 0 0 0 0 0 0 0 0 0 0 0 0 0 0 0 0.25 0"/>
<feBlend mode="normal" in2="BackgroundImageFix" result="effect1_dropShadow"/>
<feBlend mode="normal" in="SourceGraphic" in2="effect1_dropShadow" result="shape"/>
</filter>
</defs>
</svg>
