<svg width="171" height="170" viewBox="0 0 171 170" fill="none" xmlns="http://www.w3.org/2000/svg">
<g filter="url(#filter0_d)">
<path d="M143.746 0.191688L27.4789 0.031948C14.6363 0.0143036 4.21093 10.3319 4.19315 23.0771L4.03219 138.462C4.01441 151.207 14.411 161.554 27.2535 161.571L143.521 161.731C156.364 161.749 166.789 151.431 166.807 138.686L166.968 23.3007C166.986 10.5556 156.589 0.209332 143.746 0.191688Z" fill="#2C3138"/>
</g>
<g filter="url(#filter1_d)">
<path d="M62.801 81.4673C69.7591 81.4772 75.4283 75.9843 75.4378 69.221C75.4471 62.4596 69.7931 56.9488 62.8349 56.9389C55.8766 56.931 50.2076 62.424 50.1981 69.1873C50.1888 75.9487 55.8428 81.4575 62.801 81.4673ZM118.356 61.9214L83.0198 61.8739C81.6253 61.8719 80.4943 62.9681 80.4923 64.3236L80.4757 76.3982C80.4681 81.9211 75.9846 86.3921 70.4617 86.3844L55.1263 86.3629C49.6036 86.3552 45.1327 81.8718 45.1403 76.3491L45.1706 54.4635C45.1724 53.1081 44.0444 52.0079 42.6501 52.006L37.6021 52C36.2077 51.998 35.0766 53.0942 35.0748 54.4477L35 108.41C34.9982 109.765 36.1262 110.865 37.5205 110.867L42.5686 110.873C43.9631 110.875 45.0941 109.779 45.0958 108.424V108.424C45.1015 104.361 48.3999 101.071 52.4631 101.077L118.513 101.167C122.577 101.173 125.867 104.472 125.862 108.536V108.536C125.86 109.892 126.988 110.99 128.383 110.992L133.431 111C134.825 111.002 135.956 109.906 135.958 108.55L136 79.1166C136.012 69.6325 128.114 61.9352 118.356 61.9214Z" fill="#FF9B77"/>
</g>
<defs>
<filter id="filter0_d" x="0.0322266" y="0.0319824" width="170.936" height="169.699" filterUnits="userSpaceOnUse" color-interpolation-filters="sRGB">
<feFlood flood-opacity="0" result="BackgroundImageFix"/>
<feColorMatrix in="SourceAlpha" type="matrix" values="0 0 0 0 0 0 0 0 0 0 0 0 0 0 0 0 0 0 127 0"/>
<feOffset dy="4"/>
<feGaussianBlur stdDeviation="2"/>
<feColorMatrix type="matrix" values="0 0 0 0 0 0 0 0 0 0 0 0 0 0 0 0 0 0 0.5 0"/>
<feBlend mode="normal" in2="BackgroundImageFix" result="effect1_dropShadow"/>
<feBlend mode="normal" in="SourceGraphic" in2="effect1_dropShadow" result="shape"/>
</filter>
<filter id="filter1_d" x="31" y="52" width="109" height="67" filterUnits="userSpaceOnUse" color-interpolation-filters="sRGB">
<feFlood flood-opacity="0" result="BackgroundImageFix"/>
<feColorMatrix in="SourceAlpha" type="matrix" values="0 0 0 0 0 0 0 0 0 0 0 0 0 0 0 0 0 0 127 0"/>
<feOffset dy="4"/>
<feGaussianBlur stdDeviation="2"/>
<feColorMatrix type="matrix" values="0 0 0 0 0 0 0 0 0 0 0 0 0 0 0 0 0 0 0.5 0"/>
<feBlend mode="normal" in2="BackgroundImageFix" result="effect1_dropShadow"/>
<feBlend mode="normal" in="SourceGraphic" in2="effect1_dropShadow" result="shape"/>
</filter>
</defs>
</svg>
