<svg width="171" height="230" viewBox="0 0 172 231" fill="none" xmlns="http://www.w3.org/2000/svg">
<g filter="url(#filter0_d)">
<path d="M143.746 0.191688L27.4789 0.031948C14.6363 0.0143036 4.21093 10.3319 4.19315 23.0771L4.03219 138.462C4.01441 151.207 14.411 161.554 27.2535 161.571L143.521 161.731C156.364 161.749 166.789 151.431 166.807 138.686L166.968 23.3007C166.986 10.5556 156.589 0.209332 143.746 0.191688Z" fill="#2C3138"/>
<path d="M61.5667 80.8483C69.7428 80.8598 76.4045 74.4537 76.4157 66.5659C76.4266 58.6805 69.7828 52.2535 61.6064 52.242C53.43 52.2327 46.7685 58.6389 46.7574 66.5267C46.7465 74.4121 53.3902 80.8368 61.5667 80.8483ZM126.847 58.0528L85.325 57.9974C83.6863 57.9951 82.3574 59.2736 82.3551 60.8543L82.3332 76.5991C82.3255 82.122 77.8421 86.5929 72.3193 86.5852L50.798 86.5553C45.2752 86.5476 40.8042 82.0642 40.8119 76.5414L40.8498 49.355C40.8519 47.7742 39.5265 46.4912 37.888 46.4889L31.9563 46.4819C30.3178 46.4796 28.9887 47.7581 28.9866 49.3366L28.8987 112.27C28.8966 113.851 30.222 115.134 31.8605 115.136L37.7922 115.143C39.4309 115.145 40.7599 113.867 40.7619 112.286C40.7686 107.548 44.6154 103.711 49.3541 103.718L127.097 103.824C131.837 103.83 135.674 107.678 135.667 112.418C135.665 113.999 136.99 115.279 138.63 115.282L144.562 115.291C146.199 115.293 147.529 114.015 147.531 112.434L147.58 78.1067C147.594 67.0459 138.314 58.0689 126.847 58.0528Z" fill="#FF9B77"/>
</g>
<defs>
<filter id="filter0_d" x="0" y="0" width="171" height="240" filterUnits="userSpaceOnUse" color-interpolation-filters="sRGB">
<feFlood flood-opacity="0" result="BackgroundImageFix"/>
<feColorMatrix in="SourceAlpha" type="matrix" values="0 0 0 0 0 0 0 0 0 0 0 0 0 0 0 0 0 0 127 0"/>
<feOffset dy="4"/>
<feGaussianBlur stdDeviation="2"/>
<feColorMatrix type="matrix" values="0 0 0 0 0 0 0 0 0 0 0 0 0 0 0 0 0 0 0.25 0"/>
<feBlend mode="normal" in2="BackgroundImageFix" result="effect1_dropShadow"/>
<feBlend mode="normal" in="SourceGraphic" in2="effect1_dropShadow" result="shape"/>
</filter>
</defs>
</svg>
