<svg width="100" height="100" viewBox="0 0 171 170" fill="none" xmlns="http://www.w3.org/2000/svg">
<g filter="url(#filter0_d)">
<path d="M143.714 0H27.2857C14.4254 0 4 10.3396 4 23.0942V138.611C4 151.366 14.4254 161.705 27.2857 161.705H143.714C156.575 161.705 167 151.366 167 138.611V23.0942C167 10.3396 156.575 0 143.714 0Z" fill="#2C3138"/>
</g>
<g filter="url(#filter1_d)">
<path d="M95.3434 93.8569C94.6944 93.8569 94.0602 94.0458 93.5207 94.3983C92.9813 94.7509 92.5599 95.2545 92.3134 95.84C92.0647 96.4276 91.9994 97.0739 92.1259 97.6972C92.2523 98.3226 92.5641 98.8934 93.0235 99.3446C93.4828 99.7936 94.0665 100.1 94.7029 100.224C95.3413 100.348 96.0009 100.285 96.5993 100.041C97.1998 99.7978 97.7118 99.3844 98.0721 98.8577C98.4325 98.3289 98.6242 97.7077 98.6242 97.0718C98.6242 96.2177 98.2786 95.4014 97.6634 94.7992C97.0481 94.1948 96.2137 93.8569 95.3434 93.8569ZM101.907 74.5715C101.258 74.5715 100.624 74.7604 100.084 75.1129C99.5429 75.4655 99.1236 75.9691 98.8749 76.5546C98.6263 77.1422 98.561 77.7885 98.6874 78.4118C98.8139 79.035 99.1278 79.6079 99.5872 80.0591C100.044 80.5082 100.63 80.8146 101.267 80.9384C101.903 81.0622 102.562 80.9993 103.163 80.7558C103.761 80.5124 104.273 80.099 104.634 79.5702C104.996 79.0434 105.188 78.4202 105.188 77.7864C105.188 76.9323 104.842 76.116 104.227 75.5116C103.612 74.9094 102.777 74.5715 101.907 74.5715ZM108.469 87.4291C109.118 87.4291 109.752 87.2403 110.291 86.8856C110.831 86.5331 111.252 86.0315 111.501 85.4439C111.749 84.8563 111.813 84.21 111.686 83.5867C111.56 82.9635 111.248 82.3906 110.789 81.9415C110.329 81.4924 109.746 81.186 109.109 81.0622C108.473 80.9384 107.813 81.0014 107.213 81.2448C106.614 81.4882 106.1 81.8995 105.74 82.4284C105.38 82.9572 105.188 83.5783 105.188 84.2142C105.188 85.0662 105.533 85.8846 106.149 86.4869C106.764 87.0892 107.598 87.4291 108.469 87.4291ZM101.907 93.8569C102.556 93.8569 103.19 93.668 103.73 93.3155C104.269 92.9629 104.689 92.4593 104.937 91.8717C105.186 91.2862 105.251 90.6399 105.125 90.0145C104.998 89.3913 104.686 88.8184 104.227 88.3693C103.768 87.9202 103.184 87.6138 102.546 87.49C101.909 87.3662 101.25 87.4291 100.651 87.6726C100.051 87.916 99.5387 88.3273 99.1784 88.8561C98.8181 89.385 98.6242 90.0061 98.6242 90.642C98.6242 91.494 98.9719 92.3124 99.5872 92.9147C100.202 93.5191 101.037 93.8569 101.907 93.8569ZM95.3434 80.9993C94.6944 80.9993 94.0602 81.1881 93.5207 81.5407C92.9813 81.8953 92.5599 82.3969 92.3134 82.9845C92.0647 83.572 91.9994 84.2184 92.1259 84.8417C92.2523 85.4649 92.5641 86.0378 93.0235 86.4869C93.4828 86.936 94.0665 87.2424 94.7029 87.3662C95.3413 87.49 96.0009 87.427 96.5993 87.1836C97.1998 86.9402 97.7118 86.5289 98.0721 86C98.4325 85.4712 98.6242 84.85 98.6242 84.2142C98.6242 83.3622 98.2786 82.5438 97.6634 81.9415C97.0481 81.3392 96.2137 80.9993 95.3434 80.9993ZM121.594 74.5715C122.243 74.5715 122.877 74.3826 123.417 74.0301C123.956 73.6754 124.377 73.1739 124.626 72.5863C124.873 71.9987 124.938 71.3523 124.812 70.7291C124.685 70.1058 124.373 69.5329 123.914 69.0839C123.455 68.6348 122.871 68.3284 122.235 68.2046C121.598 68.0807 120.939 68.1437 120.338 68.3871C119.738 68.6306 119.226 69.0419 118.865 69.5707C118.505 70.0995 118.313 70.7207 118.313 71.3565C118.313 72.2085 118.659 73.027 119.274 73.6293C119.889 74.2315 120.724 74.5715 121.594 74.5715ZM111.749 77.7864C111.749 78.4202 111.943 79.0434 112.304 79.5702C112.664 80.099 113.176 80.5124 113.777 80.7558C114.375 80.9993 115.034 81.0622 115.671 80.9384C116.307 80.8146 116.893 80.5082 117.352 80.0591C117.81 79.6079 118.124 79.035 118.25 78.4118C118.376 77.7885 118.311 77.1422 118.062 76.5546C117.814 75.9691 117.394 75.4655 116.855 75.1129C116.316 74.7604 115.679 74.5715 115.032 74.5715C114.162 74.5715 113.326 74.9094 112.71 75.5116C112.095 76.116 111.749 76.9323 111.749 77.7864ZM108.469 68.1416C107.82 68.1416 107.185 68.3305 106.646 68.6851C106.107 69.0377 105.685 69.5392 105.437 70.1268C105.19 70.7144 105.125 71.3608 105.251 71.984C105.378 72.6073 105.689 73.1802 106.149 73.6293C106.608 74.0783 107.192 74.3847 107.828 74.5085C108.464 74.6344 109.124 74.5694 109.725 74.326C110.325 74.0825 110.837 73.6712 111.197 73.1424C111.558 72.6135 111.749 71.9924 111.749 71.3565C111.749 70.5045 111.404 69.6861 110.789 69.0839C110.173 68.4816 109.339 68.1416 108.469 68.1416ZM128.156 74.5715C127.507 74.5715 126.872 74.7604 126.333 75.1129C125.793 75.4655 125.374 75.9691 125.125 76.5546C124.877 77.1422 124.812 77.7885 124.938 78.4118C125.064 79.035 125.376 79.6079 125.836 80.0591C126.295 80.5082 126.879 80.8146 127.517 80.9384C128.153 81.0622 128.813 80.9993 129.411 80.7558C130.012 80.5124 130.524 80.099 130.884 79.5702C131.245 79.0434 131.438 78.4202 131.438 77.7864C131.438 76.9323 131.091 76.116 130.475 75.5116C129.86 74.9094 129.026 74.5715 128.156 74.5715ZM134.719 68.1416C134.07 68.1416 133.436 68.3305 132.897 68.6851C132.357 69.0377 131.936 69.5392 131.687 70.1268C131.438 70.7144 131.373 71.3608 131.5 71.984C131.628 72.6073 131.94 73.1802 132.399 73.6293C132.857 74.0783 133.442 74.3847 134.079 74.5085C134.715 74.6344 135.375 74.5694 135.975 74.326C136.573 74.0825 137.086 73.6712 137.446 73.1424C137.808 72.6135 138 71.9924 138 71.3565C138 70.5045 137.654 69.6861 137.039 69.0839C136.424 68.4816 135.589 68.1416 134.719 68.1416ZM121.594 80.9993C120.945 80.9993 120.311 81.1881 119.771 81.5407C119.232 81.8953 118.81 82.3969 118.562 82.9845C118.313 83.572 118.25 84.2184 118.376 84.8417C118.503 85.4649 118.815 86.0378 119.274 86.4869C119.733 86.936 120.317 87.2424 120.953 87.3662C121.59 87.49 122.249 87.427 122.85 87.1836C123.448 86.9402 123.962 86.5289 124.323 86C124.683 85.4712 124.875 84.85 124.875 84.2142C124.875 83.3622 124.529 82.5438 123.914 81.9415C123.299 81.3392 122.464 80.9993 121.594 80.9993ZM115.032 87.4291C114.383 87.4291 113.747 87.6159 113.208 87.9706C112.668 88.3231 112.249 88.8247 112 89.4122C111.752 89.9998 111.686 90.6462 111.813 91.2694C111.939 91.8927 112.253 92.4656 112.71 92.9147C113.17 93.3659 113.755 93.6702 114.392 93.7961C115.028 93.9199 115.688 93.8548 116.286 93.6114C116.887 93.368 117.399 92.9566 117.759 92.4278C118.119 91.899 118.313 91.2778 118.313 90.642C118.313 89.79 117.968 88.9716 117.352 88.3693C116.737 87.767 115.901 87.4291 115.032 87.4291ZM101.907 100.285C101.258 100.285 100.624 100.474 100.084 100.826C99.5429 101.181 99.1236 101.682 98.8749 102.27C98.6263 102.857 98.561 103.504 98.6874 104.127C98.8139 104.75 99.1278 105.323 99.5872 105.772C100.044 106.221 100.63 106.528 101.267 106.652C101.903 106.775 102.562 106.712 103.163 106.469C103.761 106.226 104.273 105.814 104.634 105.285C104.996 104.757 105.188 104.135 105.188 103.5C105.188 102.648 104.842 101.829 104.227 101.227C103.612 100.625 102.777 100.285 101.907 100.285ZM95.3434 106.715C94.6944 106.715 94.0602 106.903 93.5207 107.256C92.9813 107.609 92.5599 108.11 92.3134 108.698C92.0647 109.285 91.9994 109.932 92.1259 110.555C92.2523 111.178 92.5641 111.751 93.0235 112.2C93.4828 112.651 94.0665 112.958 94.7029 113.082C95.3413 113.205 96.0009 113.14 96.5993 112.897C97.1998 112.655 97.7118 112.242 98.0721 111.713C98.4325 111.184 98.6242 110.563 98.6242 109.927C98.6242 109.075 98.2786 108.259 97.6634 107.655C97.0481 107.052 96.2137 106.715 95.3434 106.715ZM108.469 93.8569C107.82 93.8569 107.185 94.0458 106.646 94.3983C106.107 94.7509 105.685 95.2545 105.437 95.84C105.19 96.4276 105.125 97.0739 105.251 97.6972C105.378 98.3226 105.689 98.8934 106.149 99.3446C106.608 99.7936 107.192 100.1 107.828 100.224C108.464 100.348 109.124 100.285 109.725 100.041C110.325 99.7978 110.837 99.3844 111.197 98.8577C111.558 98.3289 111.749 97.7077 111.749 97.0718C111.749 96.2177 111.404 95.4014 110.789 94.7992C110.173 94.1948 109.339 93.8569 108.469 93.8569ZM112.908 49.9915L110.591 47.7209C110.287 47.4208 109.925 47.1837 109.526 47.0221C109.128 46.8605 108.703 46.7786 108.271 46.7786C107.841 46.7786 107.413 46.8605 107.015 47.0221C106.617 47.1837 106.256 47.4208 105.951 47.7209L104.788 48.8562C100.521 44.7368 94.7724 42.4284 88.7818 42.4284C84.8352 42.4284 81.1772 43.4923 77.9323 45.211L75.8821 43.2027C71.2274 38.6217 64.9124 36.0321 58.315 36.0006C44.3806 35.8999 33 48.2371 33 61.8838V122.785C33 123.637 33.3456 124.455 33.963 125.058C34.5782 125.66 35.4127 126 36.2829 126H42.8445C43.7147 126 44.5492 125.66 45.1644 125.058C45.7797 124.455 46.1253 123.637 46.1253 122.785V61.3927C46.1253 55.3364 50.4322 49.6998 56.585 48.9506C58.4077 48.7177 60.2598 48.8981 62.0003 49.4794C63.7408 50.0586 65.3211 51.024 66.6191 52.2999L68.6694 54.3102C66.8994 57.479 65.8121 61.0633 65.8121 64.9288C65.8142 70.7962 68.1721 76.4287 72.3758 80.6089L71.2148 81.7463C70.5995 82.3507 70.2539 83.167 70.2539 84.019C70.2539 84.871 70.5995 85.6895 71.2148 86.2917L73.5326 88.5623C73.836 88.8624 74.1985 89.0995 74.5967 89.2611C74.995 89.4227 75.4206 89.5046 75.8525 89.5046C76.2845 89.5046 76.7102 89.4227 77.1084 89.2611C77.5067 89.0995 77.8691 88.8624 78.1725 88.5623L112.908 54.539C113.214 54.2389 113.456 53.8863 113.621 53.496C113.785 53.1057 113.869 52.6881 113.869 52.2642C113.869 51.8424 113.785 51.4248 113.621 51.0345C113.456 50.6441 113.214 50.2895 112.908 49.9915Z" fill="#FF9B77"/>
</g>
<defs>
<filter id="filter0_d" x="0" y="0" width="171" height="169.705" filterUnits="userSpaceOnUse" color-interpolation-filters="sRGB">
<feFlood flood-opacity="0" result="BackgroundImageFix"/>
<feColorMatrix in="SourceAlpha" type="matrix" values="0 0 0 0 0 0 0 0 0 0 0 0 0 0 0 0 0 0 127 0"/>
<feOffset dy="4"/>
<feGaussianBlur stdDeviation="2"/>
<feColorMatrix type="matrix" values="0 0 0 0 0 0 0 0 0 0 0 0 0 0 0 0 0 0 0.5 0"/>
<feBlend mode="normal" in2="BackgroundImageFix" result="effect1_dropShadow"/>
<feBlend mode="normal" in="SourceGraphic" in2="effect1_dropShadow" result="shape"/>
</filter>
<filter id="filter1_d" x="29" y="36" width="113" height="98" filterUnits="userSpaceOnUse" color-interpolation-filters="sRGB">
<feFlood flood-opacity="0" result="BackgroundImageFix"/>
<feColorMatrix in="SourceAlpha" type="matrix" values="0 0 0 0 0 0 0 0 0 0 0 0 0 0 0 0 0 0 127 0"/>
<feOffset dy="4"/>
<feGaussianBlur stdDeviation="2"/>
<feColorMatrix type="matrix" values="0 0 0 0 0 0 0 0 0 0 0 0 0 0 0 0 0 0 0.5 0"/>
<feBlend mode="normal" in2="BackgroundImageFix" result="effect1_dropShadow"/>
<feBlend mode="normal" in="SourceGraphic" in2="effect1_dropShadow" result="shape"/>
</filter>
</defs>
</svg>
