<svg width="171" height="230" viewBox="0 0 172 231" fill="none" xmlns="http://www.w3.org/2000/svg">
<g filter="url(#filter0_d)">
<path d="M143.714 0H27.2857C14.4254 0 4 10.3396 4 23.0942V138.611C4 151.366 14.4254 161.705 27.2857 161.705H143.714C156.575 161.705 167 151.366 167 138.611V23.0942C167 10.3396 156.575 0 143.714 0Z" fill="#2C3138"/>
<path d="M100.522 89.6126C99.8045 89.6126 99.1036 89.8205 98.5074 90.2085C97.9113 90.5965 97.4456 91.1507 97.1732 91.795C96.8984 92.4417 96.8262 93.153 96.966 93.8389C97.1057 94.5271 97.4503 95.1553 97.9579 95.6518C98.4655 96.146 99.1105 96.4831 99.8138 96.6194C100.519 96.7557 101.248 96.6864 101.91 96.4185C102.573 96.1506 103.139 95.6957 103.537 95.116C103.935 94.534 104.147 93.8504 104.147 93.1507C104.147 92.2107 103.765 91.3124 103.085 90.6496C102.405 89.9845 101.483 89.6126 100.522 89.6126ZM107.775 68.389C107.058 68.389 106.357 68.5969 105.761 68.9849C105.163 69.3729 104.699 69.9271 104.424 70.5714C104.15 71.2181 104.077 71.9294 104.217 72.6153C104.357 73.3012 104.704 73.9316 105.211 74.4282C105.717 74.9224 106.364 75.2596 107.067 75.3958C107.771 75.5321 108.499 75.4628 109.163 75.1949C109.824 74.927 110.39 74.472 110.788 73.8901C111.189 73.3104 111.401 72.6245 111.401 71.9271C111.401 70.9871 111.019 70.0888 110.339 69.4237C109.659 68.7609 108.737 68.389 107.775 68.389ZM115.026 82.5388C115.744 82.5388 116.444 82.331 117.041 81.9407C117.637 81.5528 118.102 81.0008 118.377 80.3541C118.652 79.7075 118.722 78.9962 118.582 78.3103C118.442 77.6244 118.098 76.9939 117.59 76.4997C117.082 76.0055 116.437 75.6683 115.734 75.5321C115.031 75.3958 114.302 75.4651 113.638 75.733C112.977 76.0009 112.409 76.4535 112.011 77.0355C111.613 77.6175 111.401 78.3011 111.401 79.0008C111.401 79.9384 111.783 80.8391 112.463 81.5019C113.143 82.1647 114.065 82.5388 115.026 82.5388ZM107.775 89.6126C108.492 89.6126 109.193 89.4048 109.789 89.0168C110.385 88.6288 110.849 88.0745 111.124 87.4279C111.398 86.7836 111.471 86.0723 111.331 85.3841C111.191 84.6982 110.847 84.0677 110.339 83.5735C109.831 83.0793 109.186 82.7421 108.481 82.6058C107.777 82.4696 107.049 82.5389 106.387 82.8068C105.724 83.0747 105.158 83.5273 104.76 84.1093C104.361 84.6912 104.147 85.3748 104.147 86.0746C104.147 87.0122 104.531 87.9129 105.211 88.5757C105.891 89.2408 106.813 89.6126 107.775 89.6126ZM100.522 75.4628C99.8045 75.4628 99.1036 75.6706 98.5074 76.0586C97.9113 76.4489 97.4456 77.0009 97.1732 77.6475C96.8984 78.2941 96.8262 79.0055 96.966 79.6914C97.1057 80.3773 97.4503 81.0077 97.9579 81.5019C98.4655 81.9962 99.1105 82.3333 99.8138 82.4696C100.519 82.6058 101.248 82.5366 101.91 82.2687C102.573 82.0008 103.139 81.5481 103.537 80.9661C103.935 80.3842 104.147 79.7006 104.147 79.0008C104.147 78.0632 103.765 77.1625 103.085 76.4997C102.405 75.8369 101.483 75.4628 100.522 75.4628ZM129.531 68.389C130.248 68.389 130.949 68.1812 131.545 67.7932C132.141 67.4029 132.607 66.8509 132.882 66.2043C133.154 65.5577 133.226 64.8464 133.087 64.1605C132.947 63.4746 132.602 62.8441 132.095 62.3499C131.587 61.8557 130.942 61.5185 130.239 61.3822C129.536 61.246 128.807 61.3153 128.143 61.5832C127.48 61.8511 126.914 62.3037 126.515 62.8857C126.117 63.4677 125.905 64.1512 125.905 64.851C125.905 65.7886 126.287 66.6893 126.967 67.3521C127.647 68.0149 128.569 68.389 129.531 68.389ZM118.652 71.9271C118.652 72.6245 118.866 73.3104 119.264 73.8901C119.663 74.472 120.228 74.927 120.892 75.1949C121.553 75.4628 122.282 75.5321 122.985 75.3958C123.689 75.2596 124.336 74.9224 124.844 74.4282C125.349 73.9316 125.696 73.3012 125.836 72.6153C125.975 71.9294 125.903 71.2181 125.628 70.5714C125.354 69.9271 124.89 69.3729 124.294 68.9849C123.698 68.5969 122.995 68.389 122.28 68.389C121.318 68.389 120.394 68.7609 119.714 69.4237C119.034 70.0888 118.652 70.9871 118.652 71.9271ZM115.026 61.313C114.309 61.313 113.608 61.5208 113.012 61.9111C112.416 62.2991 111.95 62.851 111.676 63.4977C111.403 64.1443 111.331 64.8556 111.471 65.5415C111.61 66.2274 111.955 66.8579 112.463 67.3521C112.97 67.8463 113.615 68.1835 114.318 68.3197C115.022 68.4583 115.751 68.3867 116.414 68.1188C117.078 67.8509 117.644 67.3983 118.042 66.8163C118.44 66.2343 118.652 65.5507 118.652 64.851C118.652 63.9134 118.27 63.0127 117.59 62.3499C116.91 61.6871 115.988 61.313 115.026 61.313ZM136.782 68.389C136.065 68.389 135.364 68.5969 134.768 68.9849C134.172 69.3729 133.708 69.9271 133.434 70.5714C133.159 71.2181 133.087 71.9294 133.226 72.6153C133.366 73.3012 133.711 73.9316 134.218 74.4282C134.726 74.9224 135.371 75.2596 136.077 75.3958C136.78 75.5321 137.509 75.4628 138.17 75.1949C138.834 74.927 139.399 74.472 139.798 73.8901C140.196 73.3104 140.41 72.6245 140.41 71.9271C140.41 70.9871 140.026 70.0888 139.346 69.4237C138.666 68.7609 137.744 68.389 136.782 68.389ZM144.036 61.313C143.318 61.313 142.618 61.5208 142.021 61.9111C141.425 62.2991 140.96 62.851 140.685 63.4977C140.41 64.1443 140.338 64.8556 140.478 65.5415C140.62 66.2274 140.964 66.8579 141.472 67.3521C141.977 67.8463 142.625 68.1835 143.328 68.3197C144.031 68.4583 144.76 68.3867 145.424 68.1188C146.085 67.8509 146.651 67.3983 147.049 66.8163C147.449 66.2343 147.661 65.5507 147.661 64.851C147.661 63.9134 147.279 63.0127 146.599 62.3499C145.919 61.6871 144.997 61.313 144.036 61.313ZM129.531 75.4628C128.814 75.4628 128.113 75.6706 127.517 76.0586C126.921 76.4489 126.455 77.0009 126.18 77.6475C125.905 78.2941 125.836 79.0055 125.975 79.6914C126.115 80.3773 126.46 81.0077 126.967 81.5019C127.475 81.9962 128.12 82.3333 128.823 82.4696C129.526 82.6058 130.255 82.5366 130.919 82.2687C131.58 82.0008 132.148 81.5481 132.547 80.9661C132.945 80.3842 133.157 79.7006 133.157 79.0008C133.157 78.0632 132.775 77.1625 132.095 76.4997C131.415 75.8369 130.493 75.4628 129.531 75.4628ZM122.28 82.5388C121.563 82.5388 120.859 82.7444 120.263 83.1347C119.667 83.5227 119.204 84.0746 118.929 84.7213C118.654 85.3679 118.582 86.0792 118.722 86.7651C118.862 87.451 119.208 88.0815 119.714 88.5757C120.221 89.0722 120.869 89.4071 121.572 89.5457C122.275 89.6819 123.004 89.6103 123.665 89.3424C124.329 89.0746 124.895 88.6219 125.293 88.0399C125.691 87.4579 125.905 86.7743 125.905 86.0746C125.905 85.137 125.524 84.2363 124.844 83.5735C124.164 82.9107 123.239 82.5388 122.28 82.5388ZM107.775 96.6864C107.058 96.6864 106.357 96.8942 105.761 97.2822C105.163 97.6725 104.699 98.2245 104.424 98.8711C104.15 99.5177 104.077 100.229 104.217 100.915C104.357 101.601 104.704 102.231 105.211 102.726C105.717 103.22 106.364 103.557 107.067 103.693C107.771 103.829 108.499 103.76 109.163 103.492C109.824 103.224 110.39 102.772 110.788 102.19C111.189 101.608 111.401 100.924 111.401 100.224C111.401 99.2868 111.019 98.3861 110.339 97.7233C109.659 97.0605 108.737 96.6864 107.775 96.6864ZM100.522 103.762C99.8045 103.762 99.1036 103.97 98.5074 104.358C97.9113 104.746 97.4456 105.298 97.1732 105.945C96.8984 106.592 96.8262 107.303 96.966 107.989C97.1057 108.675 97.4503 109.305 97.9579 109.799C98.4655 110.296 99.1105 110.633 99.8138 110.769C100.519 110.906 101.248 110.834 101.91 110.566C102.573 110.3 103.139 109.845 103.537 109.264C103.935 108.682 104.147 107.998 104.147 107.298C104.147 106.361 103.765 105.462 103.085 104.797C102.405 104.134 101.483 103.762 100.522 103.762ZM115.026 89.6126C114.309 89.6126 113.608 89.8205 113.012 90.2085C112.416 90.5965 111.95 91.1507 111.676 91.795C111.403 92.4417 111.331 93.153 111.471 93.8389C111.61 94.5271 111.955 95.1553 112.463 95.6518C112.97 96.146 113.615 96.4831 114.318 96.6194C115.022 96.7557 115.751 96.6864 116.414 96.4185C117.078 96.1506 117.644 95.6957 118.042 95.116C118.44 94.534 118.652 93.8504 118.652 93.1507C118.652 92.2107 118.27 91.3124 117.59 90.6496C116.91 89.9845 115.988 89.6126 115.026 89.6126ZM119.933 41.3388L117.371 38.84C117.036 38.5097 116.635 38.2488 116.195 38.0709C115.755 37.8931 115.285 37.8031 114.807 37.8031C114.332 37.8031 113.86 37.8931 113.42 38.0709C112.98 38.2488 112.581 38.5097 112.244 38.84L110.958 40.0894C106.243 35.556 99.8906 33.0156 93.2705 33.0156C88.9091 33.0156 84.8667 34.1865 81.2807 36.0779L79.015 33.8678C73.8712 28.8263 66.8924 25.9765 59.6017 25.9418C44.2029 25.831 31.6262 39.4081 31.6262 54.4263V121.448C31.6262 122.386 32.0081 123.286 32.6904 123.949C33.3703 124.612 34.2925 124.986 35.2542 124.986H42.5053C43.467 124.986 44.3891 124.612 45.0691 123.949C45.749 123.286 46.1309 122.386 46.1309 121.448V53.8858C46.1309 47.2209 50.8905 41.0177 57.6899 40.1933C59.7042 39.9369 61.7509 40.1355 63.6743 40.7753C65.5977 41.4127 67.3442 42.475 68.7786 43.8791L71.0443 46.0915C69.0883 49.5788 67.8867 53.5233 67.8867 57.7772C67.8891 64.2344 70.4948 70.4329 75.1403 75.0332L73.8572 76.285C73.1772 76.9501 72.7954 77.8484 72.7954 78.786C72.7954 79.7237 73.1772 80.6244 73.8572 81.2872L76.4186 83.786C76.7539 84.1162 77.1545 84.3772 77.5946 84.555C78.0347 84.7328 78.505 84.8229 78.9824 84.8229C79.4597 84.8229 79.9301 84.7328 80.3702 84.555C80.8103 84.3772 81.2108 84.1162 81.5461 83.786L119.933 46.3433C120.27 46.013 120.538 45.625 120.72 45.1955C120.901 44.7659 120.994 44.3064 120.994 43.8399C120.994 43.3757 120.901 42.9161 120.72 42.4866C120.538 42.057 120.27 41.6667 119.933 41.3388Z" fill="#FF9B77"/>
</g>
<defs>
<filter id="filter0_d" x="0" y="0" width="171" height="240" filterUnits="userSpaceOnUse" color-interpolation-filters="sRGB">
<feFlood flood-opacity="0" result="BackgroundImageFix"/>
<feColorMatrix in="SourceAlpha" type="matrix" values="0 0 0 0 0 0 0 0 0 0 0 0 0 0 0 0 0 0 127 0"/>
<feOffset dy="4"/>
<feGaussianBlur stdDeviation="2"/>
<feColorMatrix type="matrix" values="0 0 0 0 0 0 0 0 0 0 0 0 0 0 0 0 0 0 0.25 0"/>
<feBlend mode="normal" in2="BackgroundImageFix" result="effect1_dropShadow"/>
<feBlend mode="normal" in="SourceGraphic" in2="effect1_dropShadow" result="shape"/>
</filter>
</defs>
</svg>
