<svg width="100" height="100" viewBox="0 0 170 171" fill="none" xmlns="http://www.w3.org/2000/svg">
<g filter="url(#filter0_d)">
<path d="M147.453 0H27.1593C14.3688 0 4 10.3144 4 23.038V141.654C4 154.377 14.3688 164.692 27.1593 164.692H147.453C160.244 164.692 170.613 154.377 170.613 141.654V23.038C170.613 10.3144 160.244 0 147.453 0Z" fill="#2C3138"/>
</g>
<g filter="url(#filter1_d)">
<path d="M46.9988 127H127.001C128.328 127 129.598 126.474 130.536 125.537C131.473 124.599 132 123.327 132 122V42C132 40.6751 131.473 39.4032 130.536 38.4655C129.598 37.5279 128.328 37 127.001 37H46.9988C45.6742 37 44.4022 37.5279 43.4644 38.4655C42.5266 39.4032 42 40.6751 42 42V122C42 123.327 42.5266 124.599 43.4644 125.537C44.4022 126.474 45.6742 127 46.9988 127ZM66.0606 66.5352C67.3367 65.243 68.8578 64.2157 70.5349 63.5165C72.212 62.8153 74.0106 62.4546 75.8275 62.4546C77.6443 62.4546 79.4429 62.8153 81.12 63.5165C82.7971 64.2157 84.3183 65.243 85.5943 66.5352L86.9899 67.9295L88.3793 66.5352C89.6574 65.243 91.1785 64.2157 92.8556 63.5165C94.5307 62.8153 96.3314 62.4546 98.1482 62.4546C99.9651 62.4546 101.764 62.8153 103.441 63.5165C105.118 64.2157 106.639 65.243 107.915 66.5352C109.209 67.8112 110.236 69.3318 110.937 71.0094C111.638 72.6869 111.998 74.4847 111.998 76.3029C111.998 78.1191 111.638 79.9189 110.937 81.5964C110.236 83.2719 109.209 84.7925 107.915 86.0705L86.9899 107L66.0545 86.0705C64.7623 84.7925 63.7374 83.2719 63.0386 81.5944C62.3378 79.9168 61.9773 78.1191 61.9793 76.3009C61.9793 74.4847 62.3398 72.6869 63.0407 71.0094C63.7415 69.3339 64.7664 67.8133 66.0606 66.5352Z" fill="#FF9B77"/>
</g>
<defs>
<filter id="filter0_d" x="0" y="0" width="170" height="160" filterUnits="userSpaceOnUse" color-interpolation-filters="sRGB">
<feFlood flood-opacity="0" result="BackgroundImageFix"/>
<feColorMatrix in="SourceAlpha" type="matrix" values="0 0 0 0 0 0 0 0 0 0 0 0 0 0 0 0 0 0 127 0"/>
<feOffset dy="4"/>
<feGaussianBlur stdDeviation="2"/>
<feColorMatrix type="matrix" values="0 0 0 0 0 0 0 0 0 0 0 0 0 0 0 0 0 0 0.5 0"/>
<feBlend mode="normal" in2="BackgroundImageFix" result="effect1_dropShadow"/>
<feBlend mode="normal" in="SourceGraphic" in2="effect1_dropShadow" result="shape"/>
</filter>
<filter id="filter1_d" x="38" y="37" width="98" height="98" filterUnits="userSpaceOnUse" color-interpolation-filters="sRGB">
<feFlood flood-opacity="0" result="BackgroundImageFix"/>
<feColorMatrix in="SourceAlpha" type="matrix" values="0 0 0 0 0 0 0 0 0 0 0 0 0 0 0 0 0 0 127 0"/>
<feOffset dy="4"/>
<feGaussianBlur stdDeviation="2"/>
<feColorMatrix type="matrix" values="0 0 0 0 0 0 0 0 0 0 0 0 0 0 0 0 0 0 0.5 0"/>
<feBlend mode="normal" in2="BackgroundImageFix" result="effect1_dropShadow"/>
<feBlend mode="normal" in="SourceGraphic" in2="effect1_dropShadow" result="shape"/>
</filter>
</defs>
</svg>
