<svg width="100" height="100" viewBox="0 0 171 169" fill="none" xmlns="http://www.w3.org/2000/svg">
<g filter="url(#filter0_d)">
<path d="M144.343 0H26.6571C14.1439 0 4 10.0832 4 22.5215V138.478C4 150.917 14.1439 161 26.6571 161H144.343C156.856 161 167 150.917 167 138.478V22.5215C167 10.0832 156.856 0 144.343 0Z" fill="#2C3138"/>
</g>
<g filter="url(#filter1_d)">
<path d="M46.0667 124.153H124.334C125.632 124.153 126.875 123.639 127.792 122.722C128.71 121.806 129.225 120.562 129.225 119.265V41.0585C129.225 39.7632 128.71 38.5198 127.792 37.6032C126.875 36.6866 125.632 36.1705 124.334 36.1705H46.0667C44.7708 36.1705 43.5264 36.6866 42.6089 37.6032C41.6915 38.5198 41.1763 39.7632 41.1763 41.0585V119.265C41.1763 120.562 41.6915 121.806 42.6089 122.722C43.5264 123.639 44.7708 124.153 46.0667 124.153ZM64.7152 65.0437C65.9636 63.7804 67.4517 62.7761 69.0925 62.0926C70.7332 61.4072 72.4928 61.0545 74.2702 61.0545C76.0477 61.0545 77.8073 61.4072 79.4481 62.0926C81.0888 62.7761 82.5769 63.7804 83.8253 65.0437L85.1906 66.4067L86.55 65.0437C87.8003 63.7804 89.2885 62.7761 90.9292 62.0926C92.5679 61.4072 94.3296 61.0545 96.107 61.0545C97.8845 61.0545 99.6441 61.4072 101.285 62.0926C102.926 62.7761 104.414 63.7804 105.662 65.0437C106.928 66.2911 107.933 67.7776 108.619 69.4175C109.304 71.0574 109.657 72.815 109.657 74.5924C109.657 76.3678 109.304 78.1273 108.619 79.7672C107.933 81.4052 106.928 82.8917 105.662 84.141L85.1906 104.601L64.7092 84.141C63.445 82.8917 62.4423 81.4051 61.7587 79.7652C61.0731 78.1253 60.7204 76.3678 60.7224 74.5904C60.7224 72.815 61.0751 71.0574 61.7607 69.4175C62.4463 67.7796 63.449 66.2931 64.7152 65.0437Z" fill="#FF9B77"/>
</g>
<defs>
<filter id="filter0_d" x="0" y="0" width="171" height="169" filterUnits="userSpaceOnUse" color-interpolation-filters="sRGB">
<feFlood flood-opacity="0" result="BackgroundImageFix"/>
<feColorMatrix in="SourceAlpha" type="matrix" values="0 0 0 0 0 0 0 0 0 0 0 0 0 0 0 0 0 0 127 0"/>
<feOffset dy="4"/>
<feGaussianBlur stdDeviation="2"/>
<feColorMatrix type="matrix" values="0 0 0 0 0 0 0 0 0 0 0 0 0 0 0 0 0 0 0.5 0"/>
<feBlend mode="normal" in2="BackgroundImageFix" result="effect1_dropShadow"/>
<feBlend mode="normal" in="SourceGraphic" in2="effect1_dropShadow" result="shape"/>
</filter>
<filter id="filter1_d" x="37.1763" y="36.1705" width="96.0485" height="95.9824" filterUnits="userSpaceOnUse" color-interpolation-filters="sRGB">
<feFlood flood-opacity="0" result="BackgroundImageFix"/>
<feColorMatrix in="SourceAlpha" type="matrix" values="0 0 0 0 0 0 0 0 0 0 0 0 0 0 0 0 0 0 127 0"/>
<feOffset dy="4"/>
<feGaussianBlur stdDeviation="2"/>
<feColorMatrix type="matrix" values="0 0 0 0 0 0 0 0 0 0 0 0 0 0 0 0 0 0 0.5 0"/>
<feBlend mode="normal" in2="BackgroundImageFix" result="effect1_dropShadow"/>
<feBlend mode="normal" in="SourceGraphic" in2="effect1_dropShadow" result="shape"/>
</filter>
</defs>
</svg>
