<svg width="171" height="230" viewBox="0 0 172 231" fill="none" xmlns="http://www.w3.org/2000/svg">
<g filter="url(#filter0_d)">
<path d="M142.889 0.192599L27.335 0.0320998C14.5712 0.0143716 4.2098 10.381 4.19213 23.1867L4.03209 139.166C4.01442 151.972 14.3472 162.367 27.111 162.385L142.665 162.545C155.429 162.563 165.79 152.196 165.808 139.391L165.968 23.4114C165.986 10.6057 155.653 0.210327 142.889 0.192599Z" fill="#2C3138"/>
</g>
<g filter="url(#filter1_d)">
<path d="M84.5432 35C92.8977 35.0102 100.905 38.2885 106.806 44.1094C112.705 49.9303 116.013 57.818 116 66.0395C115.98 81.3848 104.621 94.1296 89.7081 96.5885L89.6932 107.335L100.193 107.35L100.179 117.681L89.6791 117.666L89.6646 128L79.1647 127.985L79.1788 117.653L68.6788 117.638L68.693 107.304L79.1932 107.319L79.2082 96.5732C64.3013 94.0739 52.9788 81.2963 53 65.9535C53.0114 57.732 56.3413 49.852 62.2567 44.0463C68.1721 38.2431 76.189 34.9874 84.5432 35ZM84.5291 45.3314C78.9593 45.3238 73.6149 47.4943 69.6713 51.3648C65.7277 55.2327 63.5079 60.4869 63.5003 65.9688C63.4927 71.4482 65.6979 76.7075 69.6309 80.588C73.5638 84.4686 78.9022 86.6543 84.4717 86.6619C90.0414 86.6695 95.3858 84.499 99.3294 80.6285C103.273 76.7606 105.494 71.5063 105.501 66.0269C105.509 60.545 103.303 55.2858 99.3699 51.4052C95.4369 47.5246 90.0986 45.3389 84.5291 45.3314Z" fill="#FF9B77"/>
</g>
<defs>
<filter id="filter0_d" x="0" y="0" width="171" height="240" filterUnits="userSpaceOnUse" color-interpolation-filters="sRGB">
<feFlood flood-opacity="0" result="BackgroundImageFix"/>
<feColorMatrix in="SourceAlpha" type="matrix" values="0 0 0 0 0 0 0 0 0 0 0 0 0 0 0 0 0 0 127 0"/>
<feOffset dy="4"/>
<feGaussianBlur stdDeviation="2"/>
<feColorMatrix type="matrix" values="0 0 0 0 0 0 0 0 0 0 0 0 0 0 0 0 0 0 0.5 0"/>
<feBlend mode="normal" in2="BackgroundImageFix" result="effect1_dropShadow"/>
<feBlend mode="normal" in="SourceGraphic" in2="effect1_dropShadow" result="shape"/>
</filter>
</defs>
</svg>
