<svg width="109" height="108" viewBox="0 0 109 108" fill="none" xmlns="http://www.w3.org/2000/svg">
<path d="M83.1166 40.4974H57.2301V52.3106C57.2301 60.687 51.7291 67.5001 44.9675 67.5001C38.206 67.5001 32.705 60.687 32.705 52.3106V26.6593L21.65 34.887C18.365 37.3127 16.3532 41.7228 16.3532 46.4481V56.4257L2.72923 66.1713C0.122426 68.0272 -0.780145 72.1624 0.73755 75.3899L14.3615 104.629C15.8616 107.857 19.1995 108.954 21.8038 107.098L39.4136 94.5029H62.6782C68.6909 94.5029 73.5794 88.4488 73.5794 81.0028H76.3046C79.3199 81.0028 81.7552 77.9845 81.7552 74.2502V60.75H83.1166C85.3806 60.75 87.2033 58.4933 87.2033 55.6869V45.5605C87.2033 42.7541 85.3806 40.4974 83.1166 40.4974ZM108.272 32.6076L94.6456 3.37073C93.148 0.143206 89.8101 -0.953658 87.2033 0.902169L69.5935 13.4945H52.1879C50.1433 13.4945 48.1517 14.2132 46.4146 15.542L40.7094 19.9521C39.1085 21.175 38.153 23.3486 38.153 25.6684V52.3106C38.153 56.9729 41.2035 60.75 44.9675 60.75C48.7315 60.75 51.7795 56.9729 51.7795 52.3106V33.7473H83.1166C88.3781 33.7473 92.6539 39.0424 92.6539 45.5605V51.5743L106.278 41.8262C108.885 39.9502 109.77 35.8351 108.272 32.6076Z" fill="#FF9B77"/>
</svg>
