<svg width="127" height="102" viewBox="0 0 127 102" fill="none" xmlns="http://www.w3.org/2000/svg">
<path d="M86.6657 0C86.6657 0 82.6732 0.413058 80.8893 5.65778L75.0882 28.3144L98.1406 45.3459L115.447 45.3685C126.985 45.3861 127 34.0529 127 34.0529L109.716 17.0289C103.955 11.3559 98.1858 11.3483 92.417 11.3408L92.427 5.67285C92.427 5.67285 92.4345 0.00755724 86.6657 0ZM28.9612 11.2527C28.9612 11.2527 24.8885 11.1671 20.6167 13.2579C16.345 15.3488 11.6418 20.6664 11.6315 28.2262L11.6 50.8904C11.5845 62.2237 11.5767 67.8891 5.80781 67.8816C5.80781 67.8816 0.0389489 67.8741 0.0311599 73.5395L6.20728e-08 96.2061C6.20728e-08 96.2061 -0.00803797 101.872 5.76083 101.879C11.5297 101.887 11.5375 96.2212 11.5375 96.2212L11.5609 79.2225C15.6453 79.2275 19.524 77.6808 23.1031 75.8495L23.075 96.2364C23.075 96.2364 23.0672 101.904 28.836 101.912C34.6049 101.919 34.6127 96.254 34.6127 96.254L34.6519 67.9218L69.2646 67.9698L76.8943 90.5559C80.7561 101.982 86.525 101.992 86.525 101.992L92.2938 102C92.2938 102 98.0627 102.008 98.0702 96.3422C98.0778 90.6743 92.3089 90.6668 92.3089 90.6668L92.3466 62.3371C92.3617 52.2507 85.0752 48.1043 80.834 45.3207L63.5196 33.9647L23.1611 33.9093L23.1689 28.2414C23.1742 24.4678 24.236 24.1428 25.7486 23.3947C27.2494 22.6616 28.9456 22.5835 28.9456 22.5835C36.7449 22.7094 36.7607 11.1494 28.9612 11.2527Z" fill="#FF9B77"/>
</svg>
