<svg width="98" height="100" viewBox="0 0 98 100" fill="none" xmlns="http://www.w3.org/2000/svg">
<path d="M56.7363 5.07112V39.7871H98C98.0025 30.132 94.4259 20.7999 87.9264 13.5016C81.4269 6.20576 72.4411 1.42949 62.6174 0.0544749C59.5229 -0.396349 56.7363 2.01053 56.7363 5.07112ZM89.3348 69.3336C94.9534 62.3258 98.0025 53.69 98 44.8038H22.901L19.3925 37.6282C18.9786 36.7716 18.3223 36.0503 17.4995 35.5418C16.6766 35.0359 15.7251 34.768 14.7508 34.7705H5.1567C2.31963 34.7705 0 37.0271 0 39.7871C0 42.5447 2.31963 44.8038 5.1567 44.8038H11.4493C11.4493 44.8038 21.1973 65.221 22.3836 66.9767C18.8398 68.8301 16.033 71.7806 14.4075 75.3596C12.782 78.9412 12.4311 82.946 13.4105 86.7405C14.9577 93.062 20.3214 98.1287 26.8209 99.5338C37.6517 101.84 47.3493 94.7175 48.7425 84.9346H59.4699C59.8207 87.329 60.6789 89.6257 61.9839 91.6794C63.2914 93.7357 65.0204 95.5063 67.0649 96.8814C69.1094 98.2564 71.4214 99.2082 73.8597 99.6715C76.3005 100.137 78.8094 100.107 81.2376 99.5839C84.481 98.8901 87.4645 97.3373 89.8598 95.0982C92.2526 92.8591 93.964 90.0189 94.802 86.8932C96.6067 79.9179 94.0801 73.4486 89.3348 69.3336ZM30.9478 89.9513C26.6644 89.9513 23.2089 86.5901 23.2089 82.4275C23.2089 78.2623 26.6644 74.9012 30.9478 74.9012C35.2286 74.9012 38.6841 78.2623 38.6841 82.4275C38.6841 86.5901 35.2286 89.9513 30.9478 89.9513ZM77.3682 89.9513C73.0873 89.9513 69.6319 86.5901 69.6319 82.4275C69.6319 78.2623 73.0873 74.9012 77.3682 74.9012C81.649 74.9012 85.1045 78.2623 85.1045 82.4275C85.1045 86.5901 81.649 89.9513 77.3682 89.9513Z" fill="#FF9B77"/>
</svg>
