<svg width="106" height="97" viewBox="0 0 106 97" fill="none" xmlns="http://www.w3.org/2000/svg">
<path d="M105.421 76.5791C105.421 81.9937 103.2 87.1883 99.2446 91.018C95.2919 94.8477 89.9277 97 84.3375 97H68.524C62.9313 97 57.5696 94.8477 53.6144 91.018C49.6616 87.1883 47.4403 81.9937 47.4403 76.5791V66.3674H83.2306L97.7772 42.0168L106 46.6114L94.1926 66.3674H105.421V76.5791ZM36.8972 97H0C0 81.6837 1.18027e-05 66.3674 1.74155 50.1836C3.16321 37.2671 5.69425 23.7907 8.43603 10.2117H5.27286V0H31.6269V10.2117H28.4637C31.2055 23.7907 33.7365 37.2671 35.1582 50.1836C36.8972 66.3674 36.8972 81.6837 36.8972 97Z" fill="#FF9B77"/>
</svg>
