<svg width="171" height="170" viewBox="0 0 171 170" fill="none" xmlns="http://www.w3.org/2000/svg">
<path d="M55.6104 129.624C55.6104 131.596 56.4126 133.489 57.8409 134.882C59.2668 136.278 61.2005 137.061 63.2199 137.061H78.4364C80.4532 137.061 82.3895 136.278 83.8153 134.882C85.2411 133.489 86.0433 131.596 86.0433 129.624V122.652C86.0433 122.528 85.9931 122.41 85.905 122.321C85.8145 122.236 85.6938 122.188 85.5681 122.188H56.0857C55.9599 122.188 55.8392 122.236 55.7512 122.321C55.6607 122.41 55.6104 122.528 55.6104 122.652V129.624Z" fill="#FF9B77"/>
<path d="M85.5681 81.2791H56.0857C55.8241 81.2791 55.6104 81.4887 55.6104 81.7461V114.284C55.6104 114.542 55.8241 114.749 56.0857 114.749H85.5681C85.8296 114.749 86.0433 114.542 86.0433 114.284V81.7461C86.0433 81.4887 85.8296 81.2791 85.5681 81.2791Z" fill="#FF9B77"/>
<path d="M86.0433 66.4062C86.0433 64.4322 85.2411 62.5414 83.8153 61.1455C82.3895 59.7521 80.4532 58.9671 78.4364 58.9671H63.2199C61.2005 58.9671 59.2668 59.7521 57.8409 61.1455C56.4126 62.5414 55.6104 64.4322 55.6104 66.4062V72.9138C55.6104 73.1586 55.711 73.3958 55.8895 73.5699C56.068 73.7441 56.3095 73.8427 56.5635 73.8427H85.0928C85.3443 73.8427 85.5857 73.7441 85.7642 73.5699C85.9428 73.3958 86.0433 73.1586 86.0433 72.9138V66.4062Z" fill="#FF9B77"/>
<path d="M44.1986 137.061H40.3964C38.3771 137.061 36.4433 136.278 35.0149 134.882C33.5891 133.489 32.7869 131.596 32.7869 129.624V51.5306C32.7869 49.5566 33.5891 47.6658 35.0149 46.2699C36.4433 44.8765 38.3771 44.0915 40.3964 44.0915H44.1986C46.2179 44.0915 48.1517 44.8765 49.5801 46.2699C51.0059 47.6658 51.8081 49.5566 51.8081 51.5306V129.624C51.8081 131.596 51.0059 133.489 49.5801 134.882C48.1517 136.278 46.2179 137.061 44.1986 137.061Z" fill="#FF9B77"/>
<path d="M105.064 137.061H97.4549C95.4381 137.061 93.5018 136.278 92.0759 134.882C90.6501 133.489 89.8479 131.596 89.8479 129.624V40.3732C89.8479 38.4017 90.6501 36.5087 92.0759 35.1153C93.5018 33.7193 95.4381 32.9367 97.4549 32.9367H105.064C107.081 32.9367 109.018 33.7193 110.443 35.1153C111.869 36.5087 112.671 38.4017 112.671 40.3732V129.624C112.671 131.596 111.869 133.489 110.443 134.882C109.018 136.278 107.081 137.061 105.064 137.061Z" fill="#FF9B77"/>
<path d="M146.882 129.031L139.219 50.0084C138.867 46.3709 135.191 43.733 131.009 44.1243L123.437 44.8235C119.255 45.2097 116.149 48.4736 116.501 52.1111L124.164 131.134C124.516 134.771 128.192 137.409 132.374 137.018L139.946 136.321C144.128 135.932 147.234 132.668 146.882 129.031Z" fill="#FF9B77"/>
</svg>
