<svg width="128" height="75" viewBox="0 0 128 75" fill="none" xmlns="http://www.w3.org/2000/svg">
<path d="M35.233 37.4585C44.0511 37.4711 51.2359 30.4885 51.2479 21.891C51.2597 13.2961 44.0943 6.29088 35.2759 6.2783C26.4575 6.26824 19.273 13.2508 19.2609 21.8483C19.2492 30.4432 26.4146 37.4459 35.233 37.4585ZM105.639 12.6119L60.8568 12.5516C59.0895 12.5491 57.6562 13.9426 57.6537 15.6656L57.6459 21.2695C57.6288 33.6721 47.5901 43.7127 35.2239 43.6953C22.8581 43.6779 12.8474 33.6098 12.8647 21.2074L12.8895 3.13161C12.8918 1.4086 11.4623 0.0100654 9.69518 0.00755008L3.29769 3.3999e-06C1.53059 -0.00251194 0.0970593 1.39099 0.0948022 3.11148L2.66925e-06 71.7074C-0.00225447 73.4304 1.42727 74.829 3.19436 74.8315L9.59185 74.839C11.3592 74.8415 12.7925 73.448 12.7947 71.725C12.802 66.56 16.9825 62.3788 22.1323 62.3858L105.837 62.501C110.989 62.5081 115.159 66.7019 115.152 71.8684C115.149 73.5914 116.579 74.9874 118.347 74.9899L124.745 75C126.51 75.0025 127.945 73.609 127.947 71.886L128 34.4703C128.015 22.4142 118.006 12.6295 105.639 12.6119Z" fill="#FF9B77"/>
</svg>
