<svg width="112" height="111" viewBox="0 0 112 111" fill="none" xmlns="http://www.w3.org/2000/svg">
<path d="M6.22079 111H105.779C107.43 111 109.011 110.351 110.178 109.195C111.345 108.039 112 106.47 112 104.833V6.16668C112 4.53262 111.345 2.96391 110.178 1.8075C109.011 0.651093 107.43 0 105.779 0H6.22079C4.57232 0 2.9894 0.651093 1.82237 1.8075C0.655334 2.96391 0 4.53262 0 6.16668V104.833C0 106.47 0.655334 108.039 1.82237 109.195C2.9894 110.351 4.57232 111 6.22079 111ZM29.9421 36.4268C31.5301 34.833 33.4231 33.566 35.5101 32.7037C37.5972 31.8389 39.8354 31.394 42.0964 31.394C44.3574 31.394 46.5957 31.8389 48.6827 32.7037C50.7698 33.566 52.6627 34.833 54.2507 36.4268L55.9874 38.1464L57.7165 36.4268C59.307 34.833 61.2 33.566 63.287 32.7037C65.3715 31.8389 67.6124 31.394 69.8733 31.394C72.1343 31.394 74.3726 31.8389 76.4597 32.7037C78.5467 33.566 80.4397 34.833 82.0277 36.4268C83.6383 38.0005 84.9162 39.8759 85.7884 41.9449C86.6605 44.0139 87.1091 46.2312 87.1091 48.4736C87.1091 50.7135 86.6605 52.9333 85.7884 55.0022C84.9162 57.0687 83.6383 58.9441 82.0277 60.5203L55.9874 86.3334L29.9345 60.5203C28.3264 58.9441 27.051 57.0687 26.1814 54.9997C25.3093 52.9307 24.8606 50.7135 24.8631 48.4711C24.8631 46.2312 25.3118 44.0139 26.1839 41.9449C27.056 39.8784 28.3315 38.003 29.9421 36.4268Z" fill="#FF9B77"/>
</svg>
