<svg width="27" height="41" viewBox="0 0 27 41" fill="none" xmlns="http://www.w3.org/2000/svg">
<g filter="url(#filter0_d)">
<path d="M22.502 3.94657L10.0985 16.5L22.502 29.0534C22.8209 29.3762 23 29.814 23 30.2704C23 30.7268 22.8209 31.1646 22.502 31.4873L21.5054 32.496C21.1865 32.8187 20.754 33 20.303 33C19.852 33 19.4195 32.8187 19.1006 32.496L4.49795 17.717C4.17911 17.3942 4 16.9564 4 16.5C4 16.0436 4.17911 15.6058 4.49795 15.283L19.1006 0.503973C19.4195 0.181279 19.852 0 20.303 0C20.754 0 21.1865 0.181279 21.5054 0.503973L22.502 1.51265C22.8209 1.83544 23 2.27318 23 2.72961C23 3.18604 22.8209 3.62378 22.502 3.94657Z" fill="#FF9B77"/>
</g>
<defs>
<filter id="filter0_d" x="0" y="0" width="27" height="41" filterUnits="userSpaceOnUse" color-interpolation-filters="sRGB">
<feFlood flood-opacity="0" result="BackgroundImageFix"/>
<feColorMatrix in="SourceAlpha" type="matrix" values="0 0 0 0 0 0 0 0 0 0 0 0 0 0 0 0 0 0 127 0"/>
<feOffset dy="4"/>
<feGaussianBlur stdDeviation="2"/>
<feColorMatrix type="matrix" values="0 0 0 0 0 0 0 0 0 0 0 0 0 0 0 0 0 0 0.25 0"/>
<feBlend mode="normal" in2="BackgroundImageFix" result="effect1_dropShadow"/>
<feBlend mode="normal" in="SourceGraphic" in2="effect1_dropShadow" result="shape"/>
</filter>
</defs>
</svg>
