<svg width="65" height="65" viewBox="0 0 65 65" fill="none" xmlns="http://www.w3.org/2000/svg">
<g filter="url(#filter0_d)">
<path d="M26.6274 19.7999L23.799 22.6283L29.4558 28.2852L23.799 33.942L26.6274 36.7704L32.2843 31.1136L37.9411 36.7704L40.7696 33.942L35.1127 28.2852L40.7696 22.6283L37.9411 19.7999L32.2843 25.4567L26.6274 19.7999ZM18.1421 14.143C10.3357 21.9495 10.3357 34.6208 18.1421 42.4273C25.9486 50.2338 38.6199 50.2338 46.4264 42.4273C54.2329 34.6208 54.2329 21.9495 46.4264 14.143C38.6199 6.33656 25.9486 6.33656 18.1421 14.143ZM43.598 39.5989C37.3613 45.8355 27.2072 45.8355 20.9706 39.5989C14.7339 33.3622 14.7339 23.2081 20.9706 16.9714C27.2072 10.7348 37.3613 10.7348 43.598 16.9714C49.8347 23.2081 49.8347 33.3622 43.598 39.5989Z" fill="#FF9B77"/>
</g>
<defs>
<filter id="filter0_d" x="0" y="0.00088501" width="64.5685" height="64.5685" filterUnits="userSpaceOnUse" color-interpolation-filters="sRGB">
<feFlood flood-opacity="0" result="BackgroundImageFix"/>
<feColorMatrix in="SourceAlpha" type="matrix" values="0 0 0 0 0 0 0 0 0 0 0 0 0 0 0 0 0 0 127 0"/>
<feOffset dy="4"/>
<feGaussianBlur stdDeviation="2"/>
<feColorMatrix type="matrix" values="0 0 0 0 0 0 0 0 0 0 0 0 0 0 0 0 0 0 0.1 0"/>
<feBlend mode="normal" in2="BackgroundImageFix" result="effect1_dropShadow"/>
<feBlend mode="normal" in="SourceGraphic" in2="effect1_dropShadow" result="shape"/>
</filter>
</defs>
</svg>
