<svg width="40" height="40" viewBox="0 0 40 40" fill="none" xmlns="http://www.w3.org/2000/svg">
<path fill-rule="evenodd" clip-rule="evenodd" d="M20 40C8.954 40 0 31.046 0 20C0 8.954 8.954 0 20 0C31.046 0 40 8.954 40 20C40 31.046 31.046 40 20 40ZM20 36C24.2435 36 28.3131 34.3143 31.3137 31.3137C34.3143 28.3131 36 24.2435 36 20C36 15.7565 34.3143 11.6869 31.3137 8.68629C28.3131 5.68571 24.2435 4 20 4C15.7565 4 11.6869 5.68571 8.68629 8.68629C5.68571 11.6869 4 15.7565 4 20C4 24.2435 5.68571 28.3131 8.68629 31.3137C11.6869 34.3143 15.7565 36 20 36V36ZM18 28H22V32H18V28ZM18 24.016C18 24.016 22 24 22 24.016C22 22.012 28 20 28 16C28 11.58 24.454 8 20.018 8C18.9659 7.99763 17.9237 8.20281 16.951 8.60379C15.9783 9.00477 15.0943 9.59367 14.3495 10.3368C13.6047 11.0799 13.0138 11.9626 12.6107 12.9344C12.2075 13.9061 12 14.9479 12 16H16C16 13.8 17.8 12 20 12C22.2 12 24 13.8 24 16C24 17.8 18 20.734 18 24.016Z" fill="#FF9B77"/>
</svg>
