<svg width="120" height="120" viewBox="0 0 156 158" fill="none" xmlns="http://www.w3.org/2000/svg">
<g filter="url(#filter0_d)">
<rect x="4.5" width="147.5" height="150" rx="10" fill="#2C3138"/>
</g>
<g filter="url(#filter1_d)">
<path d="M78 25C58.7007 25 43 40.8232 43 60.2731C43 83.9495 75.0891 122.64 76.4554 124.276C76.8369 124.733 77.3988 124.997 77.9914 125C77.9943 125 77.997 125 78 125C78.5893 125 79.1499 124.74 79.5335 124.289C80.8999 122.681 113 84.6297 113 60.2731C113 40.8232 97.2993 25 78 25ZM78.0121 119.763C71.5675 111.685 47.0385 79.6605 47.0385 60.2731C47.0385 43.0677 60.9278 29.07 78 29.07C95.0722 29.07 108.962 43.0677 108.962 60.2731C108.961 80.2132 84.475 111.78 78.0121 119.763V119.763Z" fill="#FF9B77"/>
<path d="M77.9891 125.5H77.9914H77.9915H77.9915H77.9916H77.9917H77.9917H77.9918H77.9919H77.9919H77.992H77.9921H77.9921H77.9922H77.9923H77.9923H77.9924H77.9925H77.9925H77.9926H77.9927H77.9928H77.9928H77.9929H77.993H77.993H77.9931H77.9932H77.9932H77.9933H77.9934H77.9934H77.9935H77.9936H77.9936H77.9937H77.9938H77.9938H77.9939H77.994H77.994H77.9941H77.9942H77.9942H77.9943H77.9944H77.9944H77.9945H77.9946H77.9946H77.9947H77.9948H77.9948H77.9949H77.995H77.995H77.9951H77.9952H77.9952H77.9953H77.9954H77.9954H77.9955H77.9956H77.9956H77.9957H77.9958H77.9958H77.9959H77.996H77.996H77.9961H77.9962H77.9962H77.9963H77.9964H77.9964H77.9965H77.9966H77.9966H77.9967H77.9968H77.9968H77.9969H77.997H77.997H77.9971H77.9972H77.9972H77.9973H77.9974H77.9974H77.9975H77.9976H77.9976H77.9977H77.9978H77.9978H77.9979H77.998H77.998H77.9981H77.9982H77.9982H77.9983H77.9984H77.9984H77.9985H77.9986H77.9986H77.9987H77.9988H77.9988H77.9989H77.999H77.999H77.9991H77.9992H77.9992H77.9993H77.9994H77.9995H77.9995H77.9996H77.9997H77.9997H77.9998H77.9999H77.9999H78C78.7367 125.5 79.4363 125.175 79.9146 124.613C80.604 123.801 88.9867 113.867 97.1998 101.082C101.306 94.6894 105.377 87.5743 108.422 80.5231C111.464 73.479 113.5 66.461 113.5 60.2731C113.5 40.5508 97.5791 24.5 78 24.5C58.4209 24.5 42.5 40.5508 42.5 60.2731C42.5 66.2926 44.5361 73.2239 47.5766 80.231C50.6205 87.246 54.6892 94.3775 58.7939 100.809C67.0027 113.67 75.3811 123.769 76.0715 124.596C76.5472 125.166 77.2486 125.497 77.9891 125.5ZM95.4832 94.2418C88.836 105.16 81.441 114.704 78.0149 118.963C74.5973 114.653 67.1936 104.977 60.5361 93.9997C57.0751 88.2932 53.8215 82.2444 51.4345 76.4218C49.0446 70.5923 47.5385 65.0256 47.5385 60.2731C47.5385 43.3402 61.2076 29.57 78 29.57C94.7924 29.57 108.462 43.3402 108.462 60.2731C108.461 65.1655 106.957 70.8082 104.571 76.6695C102.188 82.5246 98.9397 88.5644 95.4832 94.2418Z" stroke="#FF9B77"/>
</g>
<defs>
<filter id="filter0_d" x="0.5" y="0" width="155.5" height="158" filterUnits="userSpaceOnUse" color-interpolation-filters="sRGB">
<feFlood flood-opacity="0" result="BackgroundImageFix"/>
<feColorMatrix in="SourceAlpha" type="matrix" values="0 0 0 0 0 0 0 0 0 0 0 0 0 0 0 0 0 0 127 0"/>
<feOffset dy="4"/>
<feGaussianBlur stdDeviation="2"/>
<feColorMatrix type="matrix" values="0 0 0 0 0 0 0 0 0 0 0 0 0 0 0 0 0 0 0.8 0"/>
<feBlend mode="normal" in2="BackgroundImageFix" result="effect1_dropShadow"/>
<feBlend mode="normal" in="SourceGraphic" in2="effect1_dropShadow" result="shape"/>
</filter>
<filter id="filter1_d" x="38" y="24" width="80" height="110" filterUnits="userSpaceOnUse" color-interpolation-filters="sRGB">
<feFlood flood-opacity="0" result="BackgroundImageFix"/>
<feColorMatrix in="SourceAlpha" type="matrix" values="0 0 0 0 0 0 0 0 0 0 0 0 0 0 0 0 0 0 127 0"/>
<feOffset dy="4"/>
<feGaussianBlur stdDeviation="2"/>
<feColorMatrix type="matrix" values="0 0 0 0 0 0 0 0 0 0 0 0 0 0 0 0 0 0 0.8 0"/>
<feBlend mode="normal" in2="BackgroundImageFix" result="effect1_dropShadow"/>
<feBlend mode="normal" in="SourceGraphic" in2="effect1_dropShadow" result="shape"/>
</filter>
</defs>
</svg>
