<svg width="38" height="38" viewBox="0 0 48 48" fill="none" xmlns="http://www.w3.org/2000/svg">
<g filter="url(#filter0_d)">
<path d="M43.8798 37.1248L30.8949 24.1399C32.9099 21.5349 33.9999 18.3499 33.9999 14.9999C33.9999 10.99 32.4349 7.22997 29.6049 4.39498C26.7749 1.55999 23.0049 0 18.9999 0C14.995 0 11.225 1.56499 8.39498 4.39498C5.55999 7.22497 4 10.99 4 14.9999C4 19.0049 5.56499 22.7749 8.39498 25.6049C11.225 28.4399 14.99 29.9999 18.9999 29.9999C22.3499 29.9999 25.5299 28.9099 28.1349 26.8999L41.1198 39.8798C41.1579 39.9179 41.2031 39.9481 41.2529 39.9688C41.3026 39.9894 41.356 40 41.4098 40C41.4637 40 41.517 39.9894 41.5668 39.9688C41.6166 39.9481 41.6618 39.9179 41.6998 39.8798L43.8798 37.7048C43.9179 37.6668 43.9481 37.6216 43.9688 37.5718C43.9894 37.522 44 37.4687 44 37.4148C44 37.361 43.9894 37.3076 43.9688 37.2579C43.9481 37.2081 43.9179 37.1629 43.8798 37.1248V37.1248ZM26.9199 22.9199C24.7999 25.0349 21.9899 26.1999 18.9999 26.1999C16.0099 26.1999 13.2 25.0349 11.08 22.9199C8.96498 20.7999 7.79998 17.9899 7.79998 14.9999C7.79998 12.0099 8.96498 9.19496 11.08 7.07997C13.2 4.96498 16.0099 3.79998 18.9999 3.79998C21.9899 3.79998 24.8049 4.95998 26.9199 7.07997C29.0349 9.19996 30.1999 12.0099 30.1999 14.9999C30.1999 17.9899 29.0349 20.8049 26.9199 22.9199Z" fill="#FF9B77"/>
</g>
<defs>
<filter id="filter0_d" x="0" y="0" width="48" height="48" filterUnits="userSpaceOnUse" color-interpolation-filters="sRGB">
<feFlood flood-opacity="0" result="BackgroundImageFix"/>
<feColorMatrix in="SourceAlpha" type="matrix" values="0 0 0 0 0 0 0 0 0 0 0 0 0 0 0 0 0 0 127 0"/>
<feOffset dy="4"/>
<feGaussianBlur stdDeviation="2"/>
<feColorMatrix type="matrix" values="0 0 0 0 0 0 0 0 0 0 0 0 0 0 0 0 0 0 0.25 0"/>
<feBlend mode="normal" in2="BackgroundImageFix" result="effect1_dropShadow"/>
<feBlend mode="normal" in="SourceGraphic" in2="effect1_dropShadow" result="shape"/>
</filter>
</defs>
</svg>
