<svg width="156" height="158" viewBox="0 0 156 158" fill="none" xmlns="http://www.w3.org/2000/svg">
<g filter="url(#filter0_d)">
<rect x="4.5" width="147.5" height="150" rx="10" fill="#2C3138"/>
</g>
<g filter="url(#filter1_d)">
<path d="M115.697 110.461L89.9182 83.9009C93.9185 78.5725 96.0825 72.0577 96.0825 65.2055C96.0825 57.0032 92.9755 49.3124 87.3572 43.5135C81.7388 37.7147 74.2543 34.5238 66.3032 34.5238C58.3521 34.5238 50.8676 37.7249 45.2493 43.5135C39.621 49.3021 36.5239 57.0032 36.5239 65.2055C36.5239 73.3975 39.6309 81.1088 45.2493 86.8974C50.8676 92.6963 58.3422 95.8872 66.3032 95.8872C72.9539 95.8872 79.2671 93.6576 84.4388 89.5463L110.218 116.096C110.293 116.174 110.383 116.236 110.482 116.278C110.581 116.32 110.687 116.342 110.793 116.342C110.9 116.342 111.006 116.32 111.105 116.278C111.204 116.236 111.294 116.174 111.369 116.096L115.697 111.647C115.773 111.569 115.833 111.477 115.874 111.375C115.915 111.273 115.936 111.164 115.936 111.054C115.936 110.944 115.915 110.835 115.874 110.733C115.833 110.631 115.773 110.539 115.697 110.461V110.461ZM82.0267 81.4054C77.8179 85.7315 72.2392 88.1145 66.3032 88.1145C60.3672 88.1145 54.7886 85.7315 50.5797 81.4054C46.3809 77.0691 44.068 71.3214 44.068 65.2055C44.068 59.0896 46.3809 53.3317 50.5797 49.0056C54.7886 44.6794 60.3672 42.2965 66.3032 42.2965C72.2392 42.2965 77.8278 44.6692 82.0267 49.0056C86.2256 53.3419 88.5384 59.0896 88.5384 65.2055C88.5384 71.3214 86.2256 77.0793 82.0267 81.4054Z" fill="#FF9B77"/>
<path d="M36.2739 65.2055C36.2739 73.4615 39.4056 81.2356 45.0699 87.0716C50.7346 92.9181 58.2736 96.1372 66.3032 96.1372C72.9348 96.1372 79.2344 93.9389 84.4166 89.8823L110.038 116.27C110.137 116.372 110.254 116.453 110.384 116.508C110.513 116.563 110.653 116.592 110.793 116.592C110.934 116.592 111.074 116.563 111.203 116.508C111.333 116.453 111.45 116.372 111.548 116.27C111.548 116.27 111.549 116.27 111.549 116.27L115.876 111.822L115.876 111.821C115.975 111.72 116.053 111.6 116.106 111.468C116.159 111.337 116.186 111.196 116.186 111.054C116.186 110.912 116.159 110.771 116.106 110.64C116.053 110.508 115.975 110.388 115.877 110.287C115.876 110.287 115.876 110.287 115.876 110.287L90.2459 83.8795C94.1976 78.539 96.3325 72.0376 96.3325 65.2055C96.3325 56.939 93.2007 49.1856 87.5367 43.3396C81.872 37.4929 74.323 34.2738 66.3032 34.2738C58.2833 34.2738 50.7344 37.5032 45.0699 43.3394C39.3955 49.1755 36.2739 56.9394 36.2739 65.2055ZM81.8473 81.2313C77.6846 85.5099 72.1702 87.8645 66.3032 87.8645C60.4362 87.8645 54.9218 85.5099 50.7592 81.2313C46.6061 76.9422 44.318 71.2572 44.318 65.2055C44.318 59.1535 46.6063 53.4583 50.7591 49.1797C54.9218 44.9011 60.4362 42.5465 66.3032 42.5465C72.1708 42.5465 77.6948 44.8912 81.8471 49.1795C86.0002 53.4686 88.2884 59.1537 88.2884 65.2055C88.2884 71.2575 86.0001 76.9526 81.8473 81.2313Z" stroke="#FF9B77" stroke-width="0.5"/>
</g>
<defs>
<filter id="filter0_d" x="0.5" y="0" width="155.5" height="158" filterUnits="userSpaceOnUse" color-interpolation-filters="sRGB">
<feFlood flood-opacity="0" result="BackgroundImageFix"/>
<feColorMatrix in="SourceAlpha" type="matrix" values="0 0 0 0 0 0 0 0 0 0 0 0 0 0 0 0 0 0 127 0"/>
<feOffset dy="4"/>
<feGaussianBlur stdDeviation="2"/>
<feColorMatrix type="matrix" values="0 0 0 0 0 0 0 0 0 0 0 0 0 0 0 0 0 0 0.8 0"/>
<feBlend mode="normal" in2="BackgroundImageFix" result="effect1_dropShadow"/>
<feBlend mode="normal" in="SourceGraphic" in2="effect1_dropShadow" result="shape"/>
</filter>
<filter id="filter1_d" x="32.0239" y="34.0238" width="88.4118" height="90.8182" filterUnits="userSpaceOnUse" color-interpolation-filters="sRGB">
<feFlood flood-opacity="0" result="BackgroundImageFix"/>
<feColorMatrix in="SourceAlpha" type="matrix" values="0 0 0 0 0 0 0 0 0 0 0 0 0 0 0 0 0 0 127 0"/>
<feOffset dy="4"/>
<feGaussianBlur stdDeviation="2"/>
<feColorMatrix type="matrix" values="0 0 0 0 0 0 0 0 0 0 0 0 0 0 0 0 0 0 0.8 0"/>
<feBlend mode="normal" in2="BackgroundImageFix" result="effect1_dropShadow"/>
<feBlend mode="normal" in="SourceGraphic" in2="effect1_dropShadow" result="shape"/>
</filter>
</defs>
</svg>
