<svg width="163" height="208" viewBox="0 0 183 228" fill="none" xmlns="http://www.w3.org/2000/svg">
<path d="M159.526 31.435C158.984 30.921 158.253 30.6327 157.491 30.6327H109.79V15.5003C109.82 13.4755 109.431 11.465 108.645 9.58574C107.858 7.7065 106.691 5.99601 105.209 4.55371C103.727 3.11141 101.962 1.96608 100.015 1.18433C98.0674 0.40258 95.9778 0 93.8671 0C91.7563 0 89.6667 0.40258 87.7196 1.18433C85.7725 1.96608 84.0068 3.11141 82.5252 4.55371C81.0436 5.99601 79.8756 7.7065 79.0893 9.58574C78.3029 11.465 77.9137 13.4755 77.9445 15.5003V30.6327H28.9035C28.1356 30.6327 27.3991 30.9253 26.8562 31.4462C26.3132 31.9672 26.0081 32.6737 26.0081 33.4104V76.3136C26.0081 77.0503 26.3132 77.7569 26.8562 78.2778C27.3991 78.7987 28.1356 79.0914 28.9035 79.0914H77.9454V95.7252H25.5111C24.749 95.7253 24.0176 96.0138 23.4757 96.5279L0.859844 117.979C0.587449 118.238 0.37119 118.545 0.223594 118.884C0.0759987 119.223 0 119.587 0 119.955C0 120.322 0.0759987 120.686 0.223594 121.025C0.37119 121.364 0.587449 121.672 0.859844 121.93L23.4757 143.382C24.0177 143.896 24.749 144.184 25.5111 144.184H77.9454V225.222C77.9454 225.959 78.2505 226.665 78.7934 227.186C79.3364 227.707 80.0729 228 80.8407 228H106.894C107.662 228 108.399 227.707 108.942 227.186C109.485 226.665 109.79 225.959 109.79 225.222V144.184H154.097C154.865 144.184 155.601 143.891 156.144 143.37C156.687 142.849 156.992 142.143 156.992 141.406V98.5029C156.992 97.7662 156.687 97.0597 156.144 96.5388C155.601 96.0178 154.865 95.7252 154.097 95.7252H109.79V79.0914H157.489C158.251 79.0914 158.983 78.8031 159.525 78.2891L182.14 56.8372C182.413 56.5789 182.629 56.2713 182.776 55.9323C182.924 55.5932 183 55.2294 183 54.862C183 54.4946 182.924 54.1308 182.776 53.7918C182.629 53.4527 182.413 53.1451 182.14 52.8868L159.526 31.435ZM83.7366 15.5003C83.7071 14.206 83.9474 12.9191 84.4433 11.7151C84.9392 10.5111 85.6808 9.41425 86.6245 8.4889C87.5681 7.56355 88.695 6.82834 89.9388 6.3264C91.1826 5.82446 92.5184 5.56591 93.8678 5.56591C95.2172 5.56591 96.5529 5.82446 97.7968 6.3264C99.0406 6.82834 100.167 7.56355 101.111 8.4889C102.055 9.41425 102.796 10.5111 103.292 11.7151C103.788 12.9191 104.028 14.206 103.999 15.5003V30.6327H83.7366V15.5003ZM103.999 222.444H83.7361V144.184H103.999V222.444ZM151.201 138.628H26.7006L7.01241 119.955L26.7006 101.281H151.203L151.201 138.628ZM103.999 95.7252H83.7361V79.0914H103.999V95.7252ZM156.3 73.5358H31.7988V36.1882H156.301L175.989 54.8618L156.3 73.5358Z" fill="#FF9B77"/>
<path d="M159.526 31.435C158.984 30.921 158.253 30.6327 157.491 30.6327H109.79V15.5003C109.82 13.4755 109.431 11.465 108.645 9.58574C107.858 7.7065 106.691 5.99601 105.209 4.55371C103.727 3.11141 101.962 1.96608 100.015 1.18433C98.0674 0.40258 95.9778 0 93.8671 0C91.7563 0 89.6667 0.40258 87.7196 1.18433C85.7725 1.96608 84.0068 3.11141 82.5252 4.55371C81.0436 5.99601 79.8756 7.7065 79.0893 9.58574C78.3029 11.465 77.9137 13.4755 77.9445 15.5003V30.6327H28.9035C28.1356 30.6327 27.3991 30.9253 26.8562 31.4462C26.3132 31.9672 26.0081 32.6737 26.0081 33.4104V76.3136C26.0081 77.0503 26.3132 77.7569 26.8562 78.2778C27.3991 78.7987 28.1356 79.0914 28.9035 79.0914H77.9454V95.7252H25.5111C24.749 95.7253 24.0176 96.0138 23.4757 96.5279L0.859844 117.979C0.587449 118.238 0.37119 118.545 0.223594 118.884C0.0759987 119.223 0 119.587 0 119.955C0 120.322 0.0759987 120.686 0.223594 121.025C0.37119 121.364 0.587449 121.672 0.859844 121.93L23.4757 143.382C24.0177 143.896 24.749 144.184 25.5111 144.184H77.9454V225.222C77.9454 225.959 78.2505 226.665 78.7934 227.186C79.3364 227.707 80.0729 228 80.8407 228H106.894C107.662 228 108.399 227.707 108.942 227.186C109.485 226.665 109.79 225.959 109.79 225.222V144.184H154.097C154.865 144.184 155.601 143.891 156.144 143.37C156.687 142.849 156.992 142.143 156.992 141.406V98.5029C156.992 97.7662 156.687 97.0597 156.144 96.5388C155.601 96.0178 154.865 95.7252 154.097 95.7252H109.79V79.0914H157.489C158.251 79.0914 158.983 78.8031 159.525 78.2891L182.14 56.8372C182.413 56.5789 182.629 56.2713 182.776 55.9323C182.924 55.5932 183 55.2294 183 54.862C183 54.4946 182.924 54.1308 182.776 53.7918C182.629 53.4527 182.413 53.1451 182.14 52.8868L159.526 31.435ZM83.7366 15.5003C83.7071 14.206 83.9474 12.9191 84.4433 11.7151C84.9392 10.5111 85.6808 9.41425 86.6245 8.4889C87.5681 7.56355 88.695 6.82834 89.9388 6.3264C91.1826 5.82446 92.5184 5.56591 93.8678 5.56591C95.2172 5.56591 96.5529 5.82446 97.7968 6.3264C99.0406 6.82834 100.167 7.56355 101.111 8.4889C102.055 9.41425 102.796 10.5111 103.292 11.7151C103.788 12.9191 104.028 14.206 103.999 15.5003V30.6327H83.7366V15.5003ZM103.999 222.444H83.7361V144.184H103.999V222.444ZM151.201 138.628H26.7006L7.01241 119.955L26.7006 101.281H151.203L151.201 138.628ZM103.999 95.7252H83.7361V79.0914H103.999V95.7252ZM156.3 73.5358H31.7988V36.1882H156.301L175.989 54.8618L156.3 73.5358Z" fill="url(#paint0_linear)"/>
<defs>
<linearGradient id="paint0_linear" x1="92" y1="6" x2="95.5" y2="228" gradientUnits="userSpaceOnUse">
<stop offset="0.199592" stop-color="#40474F"/>
<stop offset="0.60657" stop-color="#2C3138" stop-opacity="0"/>
</linearGradient>
</defs>
</svg>
