<svg width="150" height="150" viewBox="0 0 148 150" fill="none" xmlns="http://www.w3.org/2000/svg">
<rect width="147.5" height="150" rx="10" fill="#2C3138"/>
<g filter="url(#filter0_d)">
<path d="M71.9883 52.1052H63.4354V64.934H50.606V73.4865H63.4354V86.3152H71.9883V73.4865H84.8177V64.934H71.9883V52.1052Z" fill="#FF9B77"/>
</g>
<g filter="url(#filter1_d)">
<path d="M67.7118 35C48.8483 35 33.5 50.3474 33.5 69.21C33.5 88.0725 48.8483 103.42 67.7118 103.42C75.3024 103.418 82.6743 100.877 88.6537 96.2016L107.453 115L113.5 108.953L94.7006 90.155C99.3791 84.1754 101.922 76.8022 101.924 69.21C101.924 50.3474 86.5753 35 67.7118 35ZM67.7118 94.8674C53.5609 94.8674 42.0529 83.3601 42.0529 69.21C42.0529 55.0599 53.5609 43.5525 67.7118 43.5525C81.8626 43.5525 93.3706 55.0599 93.3706 69.21C93.3706 83.3601 81.8626 94.8674 67.7118 94.8674Z" fill="#FF9B77"/>
</g>
<g filter="url(#filter2_d)">
<path d="M50.606 64.9342H84.8177V73.4867H50.606V64.9342Z" fill="#FF9B77"/>
</g>
<defs>
<filter id="filter0_d" x="46.606" y="52.1052" width="42.2118" height="42.21" filterUnits="userSpaceOnUse" color-interpolation-filters="sRGB">
<feFlood flood-opacity="0" result="BackgroundImageFix"/>
<feColorMatrix in="SourceAlpha" type="matrix" values="0 0 0 0 0 0 0 0 0 0 0 0 0 0 0 0 0 0 127 0"/>
<feOffset dy="4"/>
<feGaussianBlur stdDeviation="2"/>
<feColorMatrix type="matrix" values="0 0 0 0 0 0 0 0 0 0 0 0 0 0 0 0 0 0 0.25 0"/>
<feBlend mode="normal" in2="BackgroundImageFix" result="effect1_dropShadow"/>
<feBlend mode="normal" in="SourceGraphic" in2="effect1_dropShadow" result="shape"/>
</filter>
<filter id="filter1_d" x="29.5" y="35" width="88" height="88" filterUnits="userSpaceOnUse" color-interpolation-filters="sRGB">
<feFlood flood-opacity="0" result="BackgroundImageFix"/>
<feColorMatrix in="SourceAlpha" type="matrix" values="0 0 0 0 0 0 0 0 0 0 0 0 0 0 0 0 0 0 127 0"/>
<feOffset dy="4"/>
<feGaussianBlur stdDeviation="2"/>
<feColorMatrix type="matrix" values="0 0 0 0 0 0 0 0 0 0 0 0 0 0 0 0 0 0 0.8 0"/>
<feBlend mode="normal" in2="BackgroundImageFix" result="effect1_dropShadow"/>
<feBlend mode="normal" in="SourceGraphic" in2="effect1_dropShadow" result="shape"/>
</filter>
<filter id="filter2_d" x="46.606" y="64.9342" width="42.2118" height="16.5525" filterUnits="userSpaceOnUse" color-interpolation-filters="sRGB">
<feFlood flood-opacity="0" result="BackgroundImageFix"/>
<feColorMatrix in="SourceAlpha" type="matrix" values="0 0 0 0 0 0 0 0 0 0 0 0 0 0 0 0 0 0 127 0"/>
<feOffset dy="4"/>
<feGaussianBlur stdDeviation="2"/>
<feColorMatrix type="matrix" values="0 0 0 0 0 0 0 0 0 0 0 0 0 0 0 0 0 0 0.25 0"/>
<feBlend mode="normal" in2="BackgroundImageFix" result="effect1_dropShadow"/>
<feBlend mode="normal" in="SourceGraphic" in2="effect1_dropShadow" result="shape"/>
</filter>
</defs>
</svg>
