<svg width="128" height="162" viewBox="0 0 128 162" fill="none" xmlns="http://www.w3.org/2000/svg">
<path d="M59.3604 160.467C60.7144 161.477 62.3368 162 64.0006 162C65.6643 162 67.2867 161.477 68.6407 160.467C71.0724 158.748 128.232 116.955 127.999 64.797C127.999 29.0715 99.2879 0 64.0006 0C28.7124 0 0.000705792 29.0716 0.000705792 64.7559C-0.23154 116.955 56.9287 158.748 59.3604 160.467ZM64.0006 16.2011C90.4707 16.2011 112.001 37.9944 112.001 64.8381C112.167 100.78 76.8978 133.056 64.0006 143.646C51.1126 133.048 15.8326 100.765 16.0006 64.797C16.0006 37.9945 37.5286 16.2011 64.0006 16.2011Z" fill="#FF9B77"/>
<path d="M86.1903 60.1232H68.3785V68.3268C68.3785 74.1438 64.5934 78.8751 59.941 78.8751C55.2885 78.8751 51.5034 74.1438 51.5034 68.3268V50.5134L43.8968 56.2271C41.6365 57.9116 40.2522 60.9741 40.2522 64.2556V71.1845L30.8779 77.9523C29.0842 79.2411 28.4632 82.1127 29.5075 84.3541L38.8818 104.659C39.9139 106.901 42.2107 107.662 44.0026 106.373L56.1194 97.627H72.1272C76.2644 97.627 79.628 93.4228 79.628 88.2519H81.5032C83.5779 88.2519 85.2536 86.1559 85.2536 83.5626V74.1875H86.1903C87.7481 74.1875 89.0023 72.6203 89.0023 70.6714V63.6393C89.0023 61.6903 87.7481 60.1232 86.1903 60.1232ZM103.499 54.6441L94.1231 34.3408C93.0927 32.0994 90.796 31.3377 89.0023 32.6265L76.8855 41.3712H64.9091C63.5023 41.3712 62.1319 41.8703 60.9367 42.7931L57.0111 45.8556C55.9095 46.7049 55.2521 48.2143 55.2521 49.8252V68.3268C55.2521 71.5645 57.3511 74.1875 59.941 74.1875C62.5309 74.1875 64.6281 71.5645 64.6281 68.3268V55.4356H86.1903C89.8107 55.4356 92.7527 59.1128 92.7527 63.6393V67.8155L102.127 61.046C103.921 59.7432 104.53 56.8855 103.499 54.6441Z" fill="#FF9B77"/>
</svg>
