<svg width="87" height="110" viewBox="0 0 87 110" fill="none" xmlns="http://www.w3.org/2000/svg">
<path d="M43.5003 65.9945C55.4963 65.9945 65.2511 56.1282 65.2511 43.998C65.2511 31.8651 55.4963 21.999 43.5003 21.999C31.5051 21.999 21.7502 31.8651 21.7502 43.998C21.7502 56.1282 31.5051 65.9945 43.5003 65.9945ZM43.5003 32.9972C49.4978 32.9972 54.3745 37.9315 54.3745 43.998C54.3745 50.0618 49.4978 54.9962 43.5003 54.9962C37.5028 54.9962 32.6254 50.0618 32.6254 43.998C32.6254 37.9315 37.5028 32.9972 43.5003 32.9972Z" fill="#FF9B77"/>
<path d="M40.3465 108.959C41.2668 109.645 42.3695 110 43.5004 110C44.6312 110 45.7339 109.645 46.6542 108.959C48.307 107.792 87.1576 79.4141 86.9995 43.998C86.9995 19.7399 67.4848 0 43.5004 0C19.5155 0 0.000479718 19.74 0.000479718 43.9701C-0.157375 79.4142 38.6937 107.792 40.3465 108.959ZM43.5004 11.0007C61.4918 11.0007 76.1254 25.7987 76.1254 44.0258C76.2383 68.4311 52.2665 90.3464 43.5004 97.5373C34.7406 90.3413 10.7612 68.421 10.8754 43.998C10.8754 25.7987 25.5077 11.0007 43.5004 11.0007Z" fill="#FF9B77"/>
</svg>
