<svg width="128" height="162" viewBox="0 0 128 162" fill="none" xmlns="http://www.w3.org/2000/svg">
<path d="M59.3604 160.467C60.7144 161.477 62.3368 162 64.0006 162C65.6643 162 67.2867 161.477 68.6407 160.467C71.0724 158.748 128.232 116.955 127.999 64.797C127.999 29.0715 99.2879 0 64.0006 0C28.7124 0 0.000705792 29.0716 0.000705792 64.7559C-0.23154 116.955 56.9287 158.748 59.3604 160.467ZM64.0006 16.2011C90.4707 16.2011 112.001 37.9944 112.001 64.8381C112.167 100.78 76.8978 133.056 64.0006 143.646C51.1126 133.048 15.8326 100.765 16.0006 64.797C16.0006 37.9945 37.5286 16.2011 64.0006 16.2011Z" fill="#FF9B77"/>
<path d="M81.0518 32C81.0518 32 78.2854 32.2835 77.0493 35.8828L73.0296 51.4315L89.0029 63.1197L100.995 63.1353C108.99 63.1474 109 55.3697 109 55.3697L97.0237 43.6865C93.0316 39.7933 89.0343 39.7881 85.0369 39.7829L85.0439 35.8931C85.0439 35.8931 85.0491 32.0052 81.0518 32ZM41.0676 39.7224C41.0676 39.7224 38.2456 39.6637 35.2856 41.0986C32.3257 42.5335 29.0667 46.1828 29.0596 51.3709L29.0378 66.9248C29.027 74.7026 29.0216 78.5906 25.0243 78.5854C25.0243 78.5854 21.027 78.5803 21.0216 82.4683L21 98.0238C21 98.0238 20.9944 101.912 24.9918 101.917C28.9891 101.922 28.9945 98.0342 28.9945 98.0342L29.0107 86.3684C31.8408 86.3718 34.5284 85.3104 37.0085 84.0536L36.989 98.0446C36.989 98.0446 36.9836 101.934 40.9809 101.94C44.9782 101.945 44.9836 98.0566 44.9836 98.0566L45.0108 78.613L68.9944 78.6459L74.2811 94.1462C76.957 101.988 80.9543 101.995 80.9543 101.995L84.9516 102C84.9516 102 88.949 102.005 88.9542 98.1172C88.9594 94.2275 84.9621 94.2223 84.9621 94.2223L84.9882 74.7804C84.9986 67.8583 79.9498 65.0127 77.011 63.1024L65.0136 55.3091L37.0487 55.2711L37.0541 51.3814C37.0577 48.7916 37.7935 48.5686 38.8415 48.0552C39.8814 47.5521 41.0568 47.4985 41.0568 47.4985C46.461 47.5849 46.472 39.6515 41.0676 39.7224Z" fill="#FF9B77"/>
</svg>
