<svg width="128" height="162" viewBox="0 0 128 162" fill="none" xmlns="http://www.w3.org/2000/svg">
<path d="M59.3604 160.467C60.7144 161.477 62.3368 162 64.0006 162C65.6643 162 67.2867 161.477 68.6407 160.467C71.0724 158.748 128.232 116.955 127.999 64.797C127.999 29.0715 99.2879 0 64.0006 0C28.7124 0 0.000705792 29.0716 0.000705792 64.7559C-0.23154 116.955 56.9287 158.748 59.3604 160.467ZM64.0006 16.2011C90.4707 16.2011 112.001 37.9944 112.001 64.8381C112.167 100.78 76.8978 133.056 64.0006 143.646C51.1126 133.048 15.8326 100.765 16.0006 64.797C16.0006 37.9945 37.5286 16.2011 64.0006 16.2011Z" fill="#FF9B77"/>
<path d="M69.526 39.5498V63.851H99C99.0018 57.0924 96.4471 50.56 91.8046 45.4511C87.1621 40.344 80.7437 37.0006 73.7267 36.0381C71.5163 35.7226 69.526 37.4074 69.526 39.5498ZM92.8106 84.5335C96.8239 79.6281 99.0018 73.583 99 67.3626H45.3578L42.8518 62.3397C42.5561 61.7401 42.0874 61.2352 41.4996 60.8793C40.9119 60.5251 40.2322 60.3376 39.5363 60.3393H32.6834C30.6569 60.3393 29 61.919 29 63.851C29 65.7813 30.6569 67.3626 32.6834 67.3626H37.178C37.178 67.3626 44.1409 81.6547 44.9883 82.8837C42.457 84.1811 40.4521 86.2464 39.2911 88.7517C38.13 91.2588 37.8794 94.0622 38.5789 96.7183C39.6841 101.143 43.5153 104.69 48.1578 105.674C55.8941 107.288 62.8209 102.302 63.8161 95.4542H71.4785C71.7291 97.1303 72.3421 98.738 73.2742 100.176C74.2081 101.615 75.4431 102.854 76.9035 103.817C78.3638 104.779 80.0153 105.446 81.7569 105.77C83.5003 106.096 85.2924 106.075 87.0268 105.709C89.3436 105.223 91.4746 104.136 93.1856 102.569C94.8947 101.001 96.1171 99.0132 96.7157 96.8252C98.0048 91.9425 96.2001 87.414 92.8106 84.5335ZM51.1055 98.9659C48.046 98.9659 45.5778 96.613 45.5778 93.6992C45.5778 90.7836 48.046 88.4308 51.1055 88.4308C54.1633 88.4308 56.6315 90.7836 56.6315 93.6992C56.6315 96.613 54.1633 98.9659 51.1055 98.9659ZM84.263 98.9659C81.2052 98.9659 78.737 96.613 78.737 93.6992C78.737 90.7836 81.2052 88.4308 84.263 88.4308C87.3207 88.4308 89.7889 90.7836 89.7889 93.6992C89.7889 96.613 87.3207 98.9659 84.263 98.9659Z" fill="#FF9B77"/>
</svg>
