<svg width="128" height="162" viewBox="0 0 128 162" fill="none" xmlns="http://www.w3.org/2000/svg">
<path d="M59.3604 160.467C60.7144 161.477 62.3368 162 64.0006 162C65.6643 162 67.2867 161.477 68.6407 160.467C71.0724 158.748 128.232 116.955 127.999 64.797C127.999 29.0715 99.2879 0 64.0006 0C28.7124 0 0.000705792 29.0716 0.000705792 64.7559C-0.23154 116.955 56.9287 158.748 59.3604 160.467ZM64.0006 16.2011C90.4707 16.2011 112.001 37.9944 112.001 64.8381C112.167 100.78 76.8978 133.056 64.0006 143.646C51.1126 133.048 15.8326 100.765 16.0006 64.797C16.0006 37.9945 37.5286 16.2011 64.0006 16.2011Z" fill="#FF9B77"/>
<path d="M34.6019 107.921L92.3109 108C93.2667 108.002 94.1854 107.633 94.8626 106.979C95.5397 106.324 95.9206 105.436 95.9224 104.509L96 48.5632C96.0088 42.7797 91.1612 38.0681 85.1938 38.0594L41.9132 38C35.9476 37.9913 31.0862 42.6924 31.0781 48.4741L31 104.42C30.9986 105.347 31.3774 106.237 32.0529 106.893C32.7285 107.55 33.6453 107.92 34.6019 107.921ZM85.185 44.7872C85.6594 44.7872 86.1284 44.878 86.5658 45.0543C87.0031 45.2306 87.3999 45.489 87.7349 45.8137C88.0682 46.1401 88.3345 46.5259 88.5143 46.9501C88.696 47.3743 88.7877 47.8282 88.7877 48.289C88.7859 48.7481 88.6924 49.202 88.5108 49.6262C88.3292 50.0504 88.0629 50.4345 87.7279 50.7592C87.3928 51.0839 86.9943 51.3405 86.557 51.5151C86.1179 51.6914 85.6488 51.7804 85.1762 51.7804C84.2187 51.7786 83.3017 51.4086 82.6263 50.7522C81.9509 50.0958 81.5718 49.2055 81.5736 48.2786C81.5753 47.3516 81.9562 46.4613 82.6334 45.8067C83.3105 45.152 84.2293 44.7855 85.185 44.7872ZM74.3648 44.7714C74.8391 44.7732 75.3082 44.8641 75.7455 45.0404C76.1828 45.2167 76.5796 45.475 76.9147 45.7997C77.2479 46.1244 77.5142 46.5102 77.6941 46.9344C77.8739 47.3586 77.9674 47.8142 77.9674 48.2734C77.9656 48.7325 77.8722 49.1863 77.6906 49.6105C77.5089 50.0347 77.2426 50.4205 76.9076 50.7434C76.5708 51.0681 76.174 51.3248 75.7349 51.5011C75.2976 51.6757 74.8285 51.7665 74.356 51.7647C73.3984 51.763 72.4815 51.3946 71.8061 50.7365C71.1307 50.0801 70.7516 49.1915 70.7533 48.2628C70.7551 47.3358 71.136 46.4473 71.8131 45.7927C72.4903 45.1381 73.409 44.7697 74.3648 44.7714ZM63.5295 55.5126C75.4651 55.5283 85.1568 64.9516 85.1409 76.5219C85.1251 88.0906 75.4052 97.4875 63.4708 97.4701C51.5359 97.4544 41.8434 88.0312 41.8594 76.4626C41.8756 64.8922 51.5946 55.4952 63.5295 55.5126Z" fill="#FF9B77"/>
<path d="M66.2438 90.2342C71.2912 89.3282 75.5233 85.6483 77.1598 80.9297C78.3448 77.6181 78.1526 73.9906 76.6219 70.8135C76.4544 70.4644 76.1687 70.1816 75.8125 70.0123C75.4546 69.8412 75.049 69.7958 74.661 69.8813C72.4832 70.3998 70.9843 71.4419 69.2475 72.6744C66.4097 74.6871 62.8751 77.1905 56.2856 77.1818C53.3533 77.1765 51.0564 76.6633 49.1315 75.9336L49.0846 75.965C49.0052 78.0703 49.4166 80.1651 50.2879 82.094C51.1592 84.023 52.468 85.7373 54.1172 87.1076C55.7661 88.4798 57.7128 89.4731 59.8123 90.0143C61.9118 90.5554 64.1102 90.6305 66.2438 90.2342Z" fill="#FF9B77"/>
</svg>
