<svg width="128" height="162" viewBox="0 0 128 162" fill="none" xmlns="http://www.w3.org/2000/svg">
<path d="M103.59 87.2633C103.59 91.1707 102.019 94.9194 99.2202 97.6831C96.4235 100.447 92.6281 102 88.6727 102H77.484C73.5269 102 69.7332 100.447 66.9347 97.6831C64.138 94.9194 62.5663 91.1707 62.5663 87.2633V79.894H87.8896L98.182 62.3214L104 65.6371L95.6457 79.894H103.59V87.2633ZM55.1065 102H29C29 90.947 29 79.894 30.2322 68.215C31.2381 58.8938 33.029 49.1685 34.9689 39.3693H32.7308V32H51.3775V39.3693H49.1394C51.0793 49.1685 52.8702 58.8938 53.8761 68.215C55.1065 79.894 55.1065 90.947 55.1065 102Z" fill="#FF9B77"/>
<path d="M59.3604 160.467C60.7144 161.477 62.3368 162 64.0006 162C65.6643 162 67.2867 161.477 68.6407 160.467C71.0724 158.748 128.232 116.955 127.999 64.797C127.999 29.0715 99.2879 0 64.0006 0C28.7124 0 0.000705792 29.0716 0.000705792 64.7559C-0.23154 116.955 56.9287 158.748 59.3604 160.467ZM64.0006 16.2011C90.4707 16.2011 112.001 37.9944 112.001 64.8381C112.167 100.78 76.8978 133.056 64.0006 143.646C51.1126 133.048 15.8326 100.765 16.0006 64.797C16.0006 37.9945 37.5286 16.2011 64.0006 16.2011Z" fill="#FF9B77"/>
</svg>
