<svg width="128" height="162" viewBox="0 0 128 162" fill="none" xmlns="http://www.w3.org/2000/svg">
<path d="M59.3604 160.467C60.7144 161.477 62.3368 162 64.0006 162C65.6643 162 67.2867 161.477 68.6407 160.467C71.0724 158.748 128.232 116.955 127.999 64.797C127.999 29.0715 99.2879 0 64.0006 0C28.7124 0 0.000705792 29.0716 0.000705792 64.7559C-0.23154 116.955 56.9287 158.748 59.3604 160.467ZM64.0006 16.2011C90.4707 16.2011 112.001 37.9944 112.001 64.8381C112.167 100.78 76.8978 133.056 64.0006 143.646C51.1126 133.048 15.8326 100.765 16.0006 64.797C16.0006 37.9945 37.5286 16.2011 64.0006 16.2011Z" fill="#FF9B77"/>
<path d="M45.1465 93.2995C45.1465 94.5056 45.6391 95.6637 46.5161 96.5162C47.3916 97.3701 48.5791 97.8489 49.819 97.8489H59.1625C60.4008 97.8489 61.5898 97.3701 62.4653 96.5162C63.3408 95.6637 63.8334 94.5056 63.8334 93.2995V89.0342C63.8334 88.9586 63.8025 88.886 63.7485 88.832C63.6929 88.7795 63.6188 88.7501 63.5416 88.7501H45.4383C45.3611 88.7501 45.287 88.7795 45.233 88.832C45.1774 88.886 45.1465 88.9586 45.1465 89.0342V93.2995Z" fill="#FF9B77"/>
<path d="M63.5416 63.7237H45.4383C45.2778 63.7237 45.1465 63.8519 45.1465 64.0094V83.915C45.1465 84.0725 45.2778 84.1991 45.4383 84.1991H63.5416C63.7022 84.1991 63.8334 84.0725 63.8334 83.915V64.0094C63.8334 63.8519 63.7022 63.7237 63.5416 63.7237Z" fill="#FF9B77"/>
<path d="M63.8334 54.625C63.8334 53.4173 63.3408 52.2606 62.4653 51.4066C61.5898 50.5542 60.4008 50.074 59.1625 50.074H49.819C48.5791 50.074 47.3916 50.5542 46.5161 51.4066C45.6391 52.2606 45.1465 53.4173 45.1465 54.625V58.6061C45.1465 58.7559 45.2083 58.9009 45.3179 59.0075C45.4275 59.1141 45.5758 59.1743 45.7317 59.1743H63.2497C63.4042 59.1743 63.5524 59.1141 63.662 59.0075C63.7717 58.9009 63.8334 58.7559 63.8334 58.6061V54.625Z" fill="#FF9B77"/>
<path d="M38.1395 97.8489H35.8048C34.5649 97.8489 33.3775 97.3701 32.5004 96.5161C31.6249 95.6637 31.1323 94.5056 31.1323 93.2995V45.5246C31.1323 44.317 31.6249 43.1603 32.5004 42.3063C33.3775 41.4539 34.5649 40.9736 35.8048 40.9736H38.1395C39.3794 40.9736 40.5669 41.4539 41.4439 42.3063C42.3194 43.1603 42.812 44.317 42.812 45.5246V93.2995C42.812 94.5056 42.3194 95.6637 41.4439 96.5161C40.5669 97.3701 39.3794 97.8489 38.1395 97.8489Z" fill="#FF9B77"/>
<path d="M75.5131 97.8489H70.8406C69.6023 97.8489 68.4133 97.3701 67.5378 96.5161C66.6623 95.6637 66.1697 94.5056 66.1697 93.2995V38.6989C66.1697 37.4928 66.6623 36.3347 67.5378 35.4823C68.4133 34.6283 69.6023 34.1495 70.8406 34.1495H75.5131C76.7515 34.1495 77.9405 34.6283 78.816 35.4823C79.6915 36.3347 80.1841 37.4928 80.1841 38.6989V93.2995C80.1841 94.5056 79.6915 95.6637 78.816 96.5161C77.9405 97.3701 76.7515 97.8489 75.5131 97.8489Z" fill="#FF9B77"/>
<path d="M101.191 92.9365L96.4856 44.5934C96.2694 42.3681 94.0119 40.7543 91.444 40.9937L86.7947 41.4214C84.2268 41.6577 82.3198 43.6545 82.536 45.8797L87.2409 94.2229C87.4571 96.4482 89.7146 98.0619 92.2825 97.8226L96.9318 97.3964C99.4997 97.1585 101.407 95.1618 101.191 92.9365Z" fill="#FF9B77"/>
</svg>
