<svg width="128" height="162" viewBox="0 0 128 162" fill="none" xmlns="http://www.w3.org/2000/svg">
<path d="M59.3604 160.467C60.7144 161.477 62.3368 162 64.0006 162C65.6643 162 67.2867 161.477 68.6407 160.467C71.0724 158.748 128.232 116.955 127.999 64.797C127.999 29.0715 99.2879 0 64.0006 0C28.7124 0 0.000705792 29.0716 0.000705792 64.7559C-0.23154 116.955 56.9287 158.748 59.3604 160.467ZM64.0006 16.2011C90.4707 16.2011 112.001 37.9944 112.001 64.8381C112.167 100.78 76.8978 133.056 64.0006 143.646C51.1126 133.048 15.8326 100.765 16.0006 64.797C16.0006 37.9945 37.5286 16.2011 64.0006 16.2011Z" fill="#FF9B77"/>
<path d="M92.8147 46.2647L82.0219 46.2493L82.0323 39.1443C82.0375 35.226 78.8149 32.0358 74.847 32.029L53.2622 32C49.2942 31.9949 46.0628 35.1766 46.0573 39.0948L46.0472 46.1999L35.2548 46.1862C33.3466 46.1828 31.5156 46.9297 30.1643 48.2596C28.8131 49.5913 28.0525 51.3969 28.0499 53.2811L28 88.8063C27.9972 90.6904 28.7528 92.4995 30.1002 93.8329C31.4477 95.1679 33.2767 95.9182 35.1848 95.9216L92.7436 96C94.653 96.0017 96.4844 95.2566 97.8342 93.9249C99.1857 92.595 99.9463 90.7893 99.9498 88.9052L100 53.3799C100.002 51.4941 99.2463 49.6868 97.8983 48.3517C96.552 47.0183 94.7223 46.2664 92.8147 46.2647ZM53.2521 39.1051L74.8369 39.134L74.827 46.2391L53.2423 46.2101L53.2521 39.1051ZM78.3845 74.6644L67.5922 74.6508L67.5771 85.3075L60.3822 85.2973L60.3971 74.6405L49.6047 74.6252L49.6148 67.5201L60.4072 67.5355L60.4221 56.8771L67.6171 56.8873L67.602 67.5457L78.3944 67.5594L78.3845 74.6644Z" fill="#FF9B77"/>
</svg>
