<svg width="128" height="162" viewBox="0 0 128 162" fill="none" xmlns="http://www.w3.org/2000/svg">
<path d="M46.6443 63.9768C51.8112 63.9838 56.021 60.0736 56.0281 55.259C56.035 50.4458 51.8365 46.5229 46.6695 46.5158C41.5024 46.5102 37.2928 50.4205 37.2857 55.235C37.2788 60.0482 41.4773 63.9697 46.6443 63.9768ZM87.898 50.0627L61.6583 50.0289C60.6227 50.0275 59.7829 50.8078 59.7814 51.7727L59.7769 54.9109C59.7669 61.8564 53.8848 67.4791 46.639 67.4694C39.3934 67.4596 33.5278 61.8215 33.5379 54.8761L33.5525 44.7537C33.5538 43.7888 32.7162 43.0056 31.6808 43.0042L27.9322 43C26.8968 42.9986 26.0569 43.779 26.0555 44.7424L26 83.1562C25.9987 84.121 26.8363 84.9042 27.8717 84.9056L31.6202 84.9099C32.6558 84.9113 33.4956 84.1309 33.4969 83.166C33.5012 80.2736 35.9507 77.9321 38.9681 77.936L88.0141 78.0006C91.0324 78.0045 93.4759 80.3531 93.4718 83.2463C93.4703 84.2112 94.3079 84.993 95.3439 84.9944L99.0926 85C100.127 85.0014 100.968 84.221 100.969 83.2562L101 62.3034C101.009 55.552 95.1441 50.0725 87.898 50.0627Z" fill="#FF9B77"/>
<path d="M59.3604 160.467C60.7144 161.477 62.3368 162 64.0006 162C65.6643 162 67.2867 161.477 68.6407 160.467C71.0724 158.748 128.232 116.955 127.999 64.797C127.999 29.0715 99.2879 0 64.0006 0C28.7124 0 0.000705792 29.0716 0.000705792 64.7559C-0.23154 116.955 56.9287 158.748 59.3604 160.467ZM64.0006 16.2011C90.4707 16.2011 112.001 37.9944 112.001 64.8381C112.167 100.78 76.8978 133.056 64.0006 143.646C51.1126 133.048 15.8326 100.765 16.0006 64.797C16.0006 37.9945 37.5286 16.2011 64.0006 16.2011Z" fill="#FF9B77"/>
</svg>
