<svg width="128" height="162" viewBox="0 0 128 162" fill="none" xmlns="http://www.w3.org/2000/svg">
<path d="M78.5623 85.5713C78.1296 85.5713 77.7068 85.6972 77.3472 85.9322C76.9876 86.1673 76.7066 86.503 76.5422 86.8933C76.3765 87.2851 76.333 87.716 76.4172 88.1315C76.5015 88.5484 76.7094 88.9289 77.0157 89.2297C77.3219 89.5291 77.711 89.7333 78.1352 89.8159C78.5609 89.8984 79.0006 89.8565 79.3995 89.6942C79.7999 89.5319 80.1412 89.2563 80.3814 88.9051C80.6216 88.5526 80.7495 88.1385 80.7495 87.7146C80.7495 87.1452 80.5191 86.601 80.1089 86.1994C79.6987 85.7965 79.1424 85.5713 78.5623 85.5713ZM82.9381 72.7143C82.5054 72.7143 82.0826 72.8402 81.723 73.0753C81.3619 73.3103 81.0824 73.6461 80.9166 74.0364C80.7509 74.4281 80.7073 74.859 80.7916 75.2745C80.8759 75.69 81.0852 76.072 81.3915 76.3727C81.6963 76.6721 82.0868 76.8764 82.511 76.9589C82.9353 77.0415 83.3749 76.9995 83.7753 76.8372C84.1742 76.6749 84.5156 76.3993 84.7558 76.0468C84.9974 75.6956 85.1253 75.2801 85.1253 74.8576C85.1253 74.2882 84.8949 73.744 84.4847 73.3411C84.0745 72.9396 83.5182 72.7143 82.9381 72.7143ZM87.3125 81.2861C87.7451 81.2861 88.168 81.1602 88.5276 80.9237C88.8872 80.6887 89.1681 80.3543 89.3339 79.9626C89.4996 79.5709 89.5418 79.14 89.4575 78.7245C89.3732 78.309 89.1653 77.927 88.8591 77.6277C88.5529 77.3283 88.1637 77.124 87.7395 77.0415C87.3153 76.9589 86.8756 77.0009 86.4752 77.1632C86.0763 77.3255 85.7335 77.5997 85.4933 77.9522C85.2531 78.3048 85.1253 78.7189 85.1253 79.1428C85.1253 79.7108 85.3557 80.2564 85.7658 80.6579C86.176 81.0594 86.7323 81.2861 87.3125 81.2861ZM82.9381 85.5713C83.3707 85.5713 83.7936 85.4454 84.1532 85.2103C84.5128 84.9753 84.7924 84.6395 84.9581 84.2478C85.1239 83.8575 85.1674 83.4266 85.0831 83.0097C84.9988 82.5942 84.7909 82.2122 84.4847 81.9128C84.1785 81.6135 83.7893 81.4092 83.3637 81.3267C82.9395 81.2441 82.4998 81.2861 82.1008 81.4484C81.7005 81.6107 81.3591 81.8849 81.1189 82.2374C80.8787 82.59 80.7495 83.0041 80.7495 83.428C80.7495 83.996 80.9813 84.5416 81.3915 84.9431C81.8016 85.346 82.3579 85.5713 82.9381 85.5713ZM78.5623 76.9995C78.1296 76.9995 77.7068 77.1254 77.3472 77.3605C76.9876 77.5969 76.7066 77.9312 76.5422 78.323C76.3765 78.7147 76.333 79.1456 76.4172 79.5611C76.5015 79.9766 76.7094 80.3585 77.0157 80.6579C77.3219 80.9573 77.711 81.1616 78.1352 81.2441C78.5609 81.3267 79.0006 81.2847 79.3995 81.1224C79.7999 80.9601 80.1412 80.6859 80.3814 80.3334C80.6216 79.9808 80.7495 79.5667 80.7495 79.1428C80.7495 78.5748 80.5191 78.0292 80.1089 77.6277C79.6987 77.2261 79.1424 76.9995 78.5623 76.9995ZM96.0626 72.7143C96.4953 72.7143 96.9181 72.5884 97.2777 72.3534C97.6374 72.1169 97.9183 71.7826 98.0841 71.3908C98.2484 70.9991 98.292 70.5682 98.2077 70.1527C98.1234 69.7372 97.9155 69.3553 97.6093 69.0559C97.303 68.7565 96.9139 68.5522 96.4897 68.4697C96.0655 68.3872 95.6258 68.4291 95.2254 68.5914C94.825 68.7537 94.4837 69.0279 94.2435 69.3805C94.0033 69.733 93.8754 70.1471 93.8754 70.571C93.8754 71.139 94.1058 71.6846 94.516 72.0862C94.9262 72.4877 95.4825 72.7143 96.0626 72.7143ZM89.4996 74.8576C89.4996 75.2801 89.6289 75.6956 89.8691 76.0468C90.1093 76.3993 90.4507 76.6749 90.851 76.8372C91.25 76.9995 91.6897 77.0415 92.1139 76.9589C92.5381 76.8764 92.9286 76.6721 93.2349 76.3727C93.5397 76.072 93.749 75.69 93.8333 75.2745C93.9176 74.859 93.874 74.4281 93.7083 74.0364C93.5425 73.6461 93.263 73.3103 92.9034 73.0753C92.5437 72.8402 92.1195 72.7143 91.6883 72.7143C91.1081 72.7143 90.5504 72.9396 90.1402 73.3411C89.73 73.744 89.4996 74.2882 89.4996 74.8576ZM87.3125 68.4277C86.8798 68.4277 86.457 68.5536 86.0973 68.7901C85.7377 69.0251 85.4568 69.3595 85.291 69.7512C85.1267 70.1429 85.0831 70.5738 85.1674 70.9893C85.2517 71.4048 85.4596 71.7868 85.7658 72.0862C86.0721 72.3855 86.4612 72.5898 86.8854 72.6723C87.3097 72.7563 87.7493 72.7129 88.1497 72.5506C88.55 72.3883 88.8914 72.1141 89.1316 71.7616C89.3718 71.409 89.4996 70.9949 89.4996 70.571C89.4996 70.003 89.2693 69.4574 88.8591 69.0559C88.4489 68.6544 87.8926 68.4277 87.3125 68.4277ZM100.437 72.7143C100.004 72.7143 99.5815 72.8402 99.2219 73.0753C98.8623 73.3103 98.5828 73.6461 98.417 74.0364C98.2512 74.4281 98.2077 74.859 98.292 75.2745C98.3762 75.69 98.5842 76.072 98.8904 76.3727C99.1966 76.6721 99.5857 76.8764 100.011 76.9589C100.436 77.0415 100.875 76.9995 101.274 76.8372C101.675 76.6749 102.016 76.3993 102.256 76.0468C102.496 75.6956 102.626 75.2801 102.626 74.8576C102.626 74.2882 102.394 73.744 101.984 73.3411C101.573 72.9396 101.017 72.7143 100.437 72.7143ZM104.813 68.4277C104.38 68.4277 103.957 68.5536 103.598 68.7901C103.238 69.0251 102.957 69.3595 102.791 69.7512C102.626 70.1429 102.582 70.5738 102.666 70.9893C102.752 71.4048 102.96 71.7868 103.266 72.0862C103.571 72.3855 103.962 72.5898 104.386 72.6723C104.81 72.7563 105.25 72.7129 105.65 72.5506C106.049 72.3883 106.39 72.1141 106.631 71.7616C106.872 71.409 107 70.9949 107 70.571C107 70.003 106.77 69.4574 106.359 69.0559C105.949 68.6544 105.393 68.4277 104.813 68.4277ZM96.0626 76.9995C95.63 76.9995 95.2071 77.1254 94.8475 77.3605C94.4879 77.5969 94.207 77.9312 94.0412 78.323C93.8754 78.7147 93.8333 79.1456 93.9176 79.5611C94.0019 79.9766 94.2098 80.3585 94.516 80.6579C94.8222 80.9573 95.2114 81.1616 95.6356 81.2441C96.0598 81.3267 96.4995 81.2847 96.8999 81.1224C97.2988 80.9601 97.6416 80.6859 97.8818 80.3334C98.122 79.9808 98.2498 79.5667 98.2498 79.1428C98.2498 78.5748 98.0195 78.0292 97.6093 77.6277C97.1991 77.2261 96.6428 76.9995 96.0626 76.9995ZM91.6883 81.2861C91.2556 81.2861 90.8313 81.4106 90.4717 81.647C90.1121 81.8821 89.8326 82.2164 89.6668 82.6082C89.5011 82.9999 89.4575 83.4308 89.5418 83.8463C89.6261 84.2618 89.8354 84.6437 90.1402 84.9431C90.4465 85.2439 90.837 85.4468 91.2612 85.5307C91.6854 85.6132 92.1251 85.5699 92.5241 85.4076C92.9244 85.2453 93.2658 84.9711 93.506 84.6185C93.7462 84.266 93.8754 83.8519 93.8754 83.428C93.8754 82.86 93.6451 82.3144 93.2349 81.9128C92.8247 81.5113 92.267 81.2861 91.6883 81.2861ZM82.9381 89.8565C82.5054 89.8565 82.0826 89.9824 81.723 90.2174C81.3619 90.4538 81.0824 90.7882 80.9166 91.1799C80.7509 91.5717 80.7073 92.0026 80.7916 92.4181C80.8759 92.8336 81.0852 93.2155 81.3915 93.5149C81.6963 93.8143 82.0868 94.0185 82.511 94.1011C82.9353 94.1836 83.3749 94.1416 83.7753 93.9794C84.1742 93.8171 84.5156 93.5429 84.7558 93.1903C84.9974 92.8378 85.1253 92.4237 85.1253 91.9998C85.1253 91.4318 84.8949 90.8861 84.4847 90.4846C84.0745 90.0831 83.5182 89.8565 82.9381 89.8565ZM78.5623 94.143C78.1296 94.143 77.7068 94.269 77.3472 94.504C76.9876 94.739 76.7066 95.0734 76.5422 95.4651C76.3765 95.8568 76.333 96.2877 76.4172 96.7032C76.5015 97.1188 76.7094 97.5007 77.0157 97.8001C77.3219 98.1009 77.711 98.3051 78.1352 98.3877C78.5609 98.4702 79.0006 98.4268 79.3995 98.2645C79.7999 98.1037 80.1412 97.8281 80.3814 97.4755C80.6216 97.1229 80.7495 96.7088 80.7495 96.2849C80.7495 95.7169 80.5191 95.1727 80.1089 94.7698C79.6987 94.3683 79.1424 94.143 78.5623 94.143ZM87.3125 85.5713C86.8798 85.5713 86.457 85.6972 86.0973 85.9322C85.7377 86.1673 85.4568 86.503 85.291 86.8933C85.1267 87.2851 85.0831 87.716 85.1674 88.1315C85.2517 88.5484 85.4596 88.9289 85.7658 89.2297C86.0721 89.5291 86.4612 89.7333 86.8854 89.8159C87.3097 89.8984 87.7493 89.8565 88.1497 89.6942C88.55 89.5319 88.8914 89.2563 89.1316 88.9051C89.3718 88.5526 89.4996 88.1385 89.4996 87.7146C89.4996 87.1452 89.2693 86.601 88.8591 86.1994C88.4489 85.7965 87.8926 85.5713 87.3125 85.5713ZM90.2723 56.3276L88.727 54.8139C88.5248 54.6139 88.2831 54.4558 88.0176 54.348C87.7521 54.2403 87.4684 54.1858 87.1804 54.1858C86.8938 54.1858 86.6087 54.2403 86.3432 54.348C86.0777 54.4558 85.8375 54.6139 85.6338 54.8139L84.8584 55.5708C82.0137 52.8245 78.1816 51.2856 74.1879 51.2856C71.5568 51.2856 69.1182 51.9949 66.9549 53.1407L65.588 51.8018C62.485 48.7478 58.2749 47.0214 53.8767 47.0004C44.5871 46.9333 37 55.1581 37 64.2559V104.857C37 105.425 37.2304 105.97 37.642 106.372C38.0522 106.773 38.6085 107 39.1886 107H43.563C44.1432 107 44.6994 106.773 45.1096 106.372C45.5198 105.97 45.7502 105.425 45.7502 104.857V63.9285C45.7502 59.8909 48.6215 56.1332 52.7234 55.6337C53.9385 55.4784 55.1732 55.5988 56.3335 55.9863C57.4939 56.3724 58.5474 57.016 59.4128 57.8666L60.7796 59.2068C59.5996 61.3193 58.8747 63.7089 58.8747 66.2858C58.8761 70.1975 60.4481 73.9524 63.2505 76.7393L62.4765 77.4976C62.0663 77.9005 61.836 78.4447 61.836 79.0127C61.836 79.5807 62.0663 80.1263 62.4765 80.5278L64.0217 82.0416C64.224 82.2416 64.4656 82.3997 64.7311 82.5074C64.9966 82.6152 65.2804 82.6697 65.5684 82.6697C65.8563 82.6697 66.1401 82.6152 66.4056 82.5074C66.6711 82.3997 66.9127 82.2416 67.115 82.0416L90.2723 59.3593C90.4759 59.1593 90.6375 58.9242 90.7471 58.664C90.8566 58.4038 90.9128 58.1254 90.9128 57.8428C90.9128 57.5616 90.8566 57.2832 90.7471 57.023C90.6375 56.7627 90.4759 56.5263 90.2723 56.3276Z" fill="#FF9B77"/>
<path d="M59.3604 160.467C60.7144 161.477 62.3368 162 64.0006 162C65.6643 162 67.2867 161.477 68.6407 160.467C71.0724 158.748 128.232 116.955 127.999 64.797C127.999 29.0715 99.2879 0 64.0006 0C28.7124 0 0.000705792 29.0716 0.000705792 64.7559C-0.23154 116.955 56.9287 158.748 59.3604 160.467ZM64.0006 16.2011C90.4707 16.2011 112.001 37.9944 112.001 64.8381C112.167 100.78 76.8978 133.056 64.0006 143.646C51.1126 133.048 15.8326 100.765 16.0006 64.797C16.0006 37.9945 37.5286 16.2011 64.0006 16.2011Z" fill="#FF9B77"/>
</svg>
