<svg width="128" height="162" viewBox="0 0 128 162" fill="none" xmlns="http://www.w3.org/2000/svg">
<path d="M59.3604 160.467C60.7144 161.477 62.3368 162 64.0006 162C65.6643 162 67.2867 161.477 68.6407 160.467C71.0724 158.748 128.232 116.955 127.999 64.797C127.999 29.0715 99.2879 0 64.0006 0C28.7124 0 0.000705792 29.0716 0.000705792 64.7559C-0.23154 116.955 56.9287 158.748 59.3604 160.467ZM64.0006 16.2011C90.4707 16.2011 112.001 37.9944 112.001 64.8381C112.167 100.78 76.8978 133.056 64.0006 143.646C51.1126 133.048 15.8326 100.765 16.0006 64.797C16.0006 37.9945 37.5286 16.2011 64.0006 16.2011Z" fill="#FF9B77"/>
<path d="M32.888 102H95.112C96.1438 102 97.1316 101.591 97.861 100.862C98.5904 100.132 99 99.1432 99 98.1112V35.8889C99 34.8584 98.5904 33.8691 97.861 33.1399C97.1316 32.4106 96.1438 32 95.112 32H32.888C31.8577 32 30.8684 32.4106 30.139 33.1399C29.4096 33.8691 29 34.8584 29 35.8889V98.1112C29 99.1432 29.4096 100.132 30.139 100.862C30.8684 101.591 31.8577 102 32.888 102ZM47.7138 54.9719C48.7063 53.9667 49.8894 53.1677 51.1938 52.624C52.4982 52.0786 53.8971 51.798 55.3102 51.798C56.7234 51.798 58.1223 52.0786 59.4267 52.624C60.7311 53.1677 61.9142 53.9667 62.9067 54.9719L63.9921 56.0563L65.0728 54.9719C66.0669 53.9667 67.25 53.1677 68.5544 52.624C69.8572 52.0786 71.2577 51.798 72.6708 51.798C74.0839 51.798 75.4829 52.0786 76.7873 52.624C78.0917 53.1677 79.2748 53.9667 80.2673 54.9719C81.2739 55.9643 82.0726 57.147 82.6177 58.4517C83.1628 59.7565 83.4432 61.1548 83.4432 62.5689C83.4432 63.9815 83.1628 65.3814 82.6177 66.6861C82.0726 67.9893 81.2739 69.172 80.2673 70.166L63.9921 86.4445L47.7091 70.166C46.704 69.172 45.9069 67.9893 45.3634 66.6845C44.8183 65.3798 44.5379 63.9815 44.5395 62.5673C44.5395 61.1548 44.8199 59.7565 45.365 58.4517C45.91 57.1486 46.7072 55.9659 47.7138 54.9719Z" fill="#FF9B77"/>
</svg>
