<svg width="128" height="162" viewBox="0 0 128 162" fill="none" xmlns="http://www.w3.org/2000/svg">
<path d="M59.3604 160.467C60.7144 161.477 62.3368 162 64.0006 162C65.6643 162 67.2867 161.477 68.6407 160.467C71.0724 158.748 128.232 116.955 127.999 64.797C127.999 29.0715 99.2879 0 64.0006 0C28.7124 0 0.000705792 29.0716 0.000705792 64.7559C-0.23154 116.955 56.9287 158.748 59.3604 160.467ZM64.0006 16.2011C90.4707 16.2011 112.001 37.9944 112.001 64.8381C112.167 100.78 76.8978 133.056 64.0006 143.646C51.1126 133.048 15.8326 100.765 16.0006 64.797C16.0006 37.9945 37.5286 16.2011 64.0006 16.2011Z" fill="#FF9B77"/>
<path d="M64.0412 32C71.9978 32.0098 79.6241 35.1826 85.2438 40.8157C90.8621 46.4488 94.012 54.0821 94 62.0384C93.9807 76.8887 83.1631 89.2222 68.9601 91.6018L68.9459 102.001L78.9459 102.016L78.9324 112.014L68.9324 111.999L68.9187 122L58.9187 121.985L58.9322 111.987L48.9322 111.973L48.9457 101.972L58.9459 101.987L58.9601 91.5872C44.7632 89.1684 33.9798 76.803 34 61.9552C34.0109 53.9988 37.1822 46.373 42.8159 40.7545C48.4496 35.1386 56.0848 31.9878 64.0412 32ZM64.0277 41.9982C58.7232 41.9908 53.6332 44.0913 49.8774 47.8369C46.1216 51.5801 44.0075 56.6648 44.0003 61.9698C43.993 67.2725 46.0932 72.3621 49.8389 76.1175C53.5846 79.8729 58.6688 81.988 63.973 81.9954C69.2775 82.0027 74.3675 79.9023 78.1233 76.1567C81.8793 72.4135 83.994 67.3288 84.0012 62.0262C84.0084 56.7211 81.9075 51.6315 78.1618 47.8761C74.4161 44.1207 69.332 42.0055 64.0277 41.9982Z" fill="#FF9B77"/>
</svg>
