<svg width="48" height="48" viewBox="0 0 48 48" fill="none" xmlns="http://www.w3.org/2000/svg">
<path d="M38.644 30C38.644 31.4852 38.044 32.9096 36.976 33.9598C35.908 35.01 34.4595 35.6 32.9491 35.6H28.6779C27.1675 35.6 25.719 35.01 24.651 33.9598C23.583 32.9096 22.983 31.4852 22.983 30V27.2H32.6501L36.5796 20.522L38.8006 21.782L35.6115 27.2H38.644V30ZM20.1355 35.6H10.1694C10.1694 31.4 10.1694 27.2 10.6393 22.762C11.0237 19.22 11.7071 15.524 12.4474 11.8H11.5932V9H18.7118V11.8H17.8576C18.5979 15.524 19.2813 19.22 19.6657 22.762C20.1355 27.2 20.1355 31.4 20.1355 35.6Z" fill="#FF9B77"/>
</svg>
