<svg width="48" height="48" viewBox="0 0 48 48" fill="none" xmlns="http://www.w3.org/2000/svg">
<g clip-path="url(#clip0)">
<path d="M38.8171 11.3026C35.7985 11.4678 29.7987 12.0692 26.0948 14.2558C25.8392 14.4067 25.6943 14.675 25.6943 14.9555V34.2861C25.6943 34.8997 26.39 35.2875 26.9767 35.0028C30.7874 33.1529 36.2987 32.6483 39.0237 32.5101C39.9541 32.4628 40.6774 31.7435 40.6774 30.8813V12.9336C40.6779 11.9927 39.8318 11.2474 38.8171 11.3026ZM23.5317 14.2558C19.8283 12.0692 13.8285 11.4684 10.8099 11.3026C9.7952 11.2474 8.9491 11.9927 8.9491 12.9336V30.8818C8.9491 31.7446 9.67236 32.4639 10.6027 32.5107C13.3289 32.6488 18.8429 33.154 22.6536 35.0049C23.2386 35.2891 23.9321 34.9018 23.9321 34.2898V14.9459C23.9321 14.6649 23.7878 14.4073 23.5317 14.2558Z" fill="#FF9B77"/>
</g>
<defs>
<clipPath id="clip0">
<rect x="8.9491" y="9.59998" width="31.7288" height="27.2" fill="white"/>
</clipPath>
</defs>
</svg>
