<svg width="128" height="128" viewBox="0 0 128 128" fill="none" xmlns="http://www.w3.org/2000/svg">
<g clip-path="url(#clip0)">
<path d="M101.53 92.93L82.56 73.98C96.34 55.97 95.05 30.12 78.57 13.64C60.63 -4.29 31.55 -4.29 13.6 13.64C-4.33003 31.58 -4.33003 60.67 13.6 78.6C30.08 95.07 55.94 96.38 73.95 82.59L92.92 101.55L101.53 92.93V92.93Z" fill="#2C3138"/>
<path d="M20.4399 71.77C6.27995 57.6 6.27995 34.62 20.4399 20.46C34.6099 6.28999 57.5599 6.29999 71.7399 20.46C85.8999 34.62 85.8999 57.58 71.7399 71.77C57.5499 85.93 34.5999 85.93 20.4399 71.77Z" fill="white"/>
<path d="M126.53 110.53L101 84.94C94.4999 78.44 78.8199 94.71 85.0299 100.91L110.56 126.5C113.2 129.13 118.92 127.69 123.31 123.27C127.72 118.87 129.16 113.16 126.53 110.53Z" fill="#2C3138"/>
<path d="M111.23 125.77C111.41 123.73 112.74 121.32 113.6 119.96C116.17 115.89 119.4 112.52 124.22 111.24C129.12 109.93 129.61 113.62 128.44 117.36C127.03 121.87 124.22 125.26 120.08 127.63C119.11 128.19 117.82 128.98 116.7 129.15C113.96 129.54 110.94 129.19 111.23 125.77V125.77Z" fill="#828282"/>
</g>
<defs>
<clipPath id="clip0">
<rect width="128" height="128" fill="white"/>
</clipPath>
</defs>
</svg>
