<svg width="48" height="48" viewBox="0 0 48 48" fill="none" xmlns="http://www.w3.org/2000/svg">
<g clip-path="url(#clip0)">
<path d="M16.9424 24.0001C19.3535 24.0001 21.3152 22.0934 21.3152 19.75C21.3152 17.4067 19.3535 15.5 16.9424 15.5C14.5313 15.5 12.5695 17.4067 12.5695 19.75C12.5695 22.0934 14.5313 24.0001 16.9424 24.0001ZM36.183 17.2H23.939C23.4558 17.2 23.0644 17.5804 23.0644 18.05V25.7001H10.8203V14.65C10.8203 14.1804 10.429 13.8 9.94575 13.8H8.1966C7.71339 13.8 7.32202 14.1804 7.32202 14.65V33.3501C7.32202 33.8197 7.71339 34.2001 8.1966 34.2001H9.94575C10.429 34.2001 10.8203 33.8197 10.8203 33.3501V30.8001H38.8068V33.3501C38.8068 33.8197 39.1981 34.2001 39.6813 34.2001H41.4305C41.9137 34.2001 42.3051 33.8197 42.3051 33.3501V23.1501C42.3051 19.8637 39.5644 17.2 36.183 17.2Z" fill="#FF9B77"/>
</g>
<defs>
<clipPath id="clip0">
<rect x="7.32202" y="10.4" width="34.9831" height="27.2" fill="white"/>
</clipPath>
</defs>
</svg>
