<svg width="48" height="48" viewBox="0 0 48 48" fill="none" xmlns="http://www.w3.org/2000/svg">
<g clip-path="url(#clip0)">
<path d="M28.4238 26.5999C28.2126 26.5999 28.0061 26.6615 27.8305 26.7769C27.6549 26.8922 27.5181 27.0562 27.4372 27.2481C27.3564 27.44 27.3353 27.6511 27.3765 27.8548C27.4177 28.0584 27.5194 28.2455 27.6687 28.3924C27.818 28.5392 28.0083 28.6392 28.2154 28.6797C28.4226 28.7202 28.6373 28.6995 28.8324 28.62C29.0275 28.5405 29.1943 28.4059 29.3116 28.2333C29.4289 28.0606 29.4916 27.8576 29.4916 27.6499C29.4916 27.3714 29.3791 27.1044 29.1788 26.9074C28.9786 26.7105 28.707 26.5999 28.4238 26.5999ZM30.5593 20.2999C30.3482 20.2999 30.1417 20.3615 29.9661 20.4769C29.7905 20.5922 29.6537 20.7562 29.5728 20.9481C29.492 21.14 29.4709 21.3511 29.5121 21.5548C29.5533 21.7584 29.655 21.9455 29.8043 22.0924C29.9536 22.2392 30.1439 22.3392 30.351 22.3797C30.5582 22.4202 30.7729 22.3995 30.968 22.32C31.1631 22.2405 31.3299 22.1059 31.4472 21.9333C31.5645 21.7606 31.6271 21.5576 31.6271 21.3499C31.6271 21.0714 31.5146 20.8044 31.3144 20.6074C31.1141 20.4105 30.8425 20.2999 30.5593 20.2999ZM32.6949 24.4999C32.9061 24.4999 33.1126 24.4383 33.2882 24.323C33.4638 24.2076 33.6006 24.0436 33.6815 23.8517C33.7623 23.6599 33.7834 23.4487 33.7422 23.2451C33.701 23.0414 33.5993 22.8543 33.45 22.7074C33.3007 22.5606 33.1104 22.4606 32.9033 22.4201C32.6961 22.3796 32.4814 22.4004 32.2863 22.4798C32.0912 22.5593 31.9244 22.6939 31.8071 22.8666C31.6898 23.0392 31.6271 23.2422 31.6271 23.4499C31.6271 23.7284 31.7396 23.9955 31.9399 24.1924C32.1401 24.3893 32.4117 24.4999 32.6949 24.4999ZM30.5593 26.5999C30.7705 26.5999 30.977 26.5383 31.1526 26.423C31.3282 26.3076 31.465 26.1436 31.5459 25.9517C31.6267 25.7599 31.6478 25.5487 31.6066 25.3451C31.5654 25.1414 31.4637 24.9543 31.3144 24.8074C31.1651 24.6606 30.9748 24.5606 30.7677 24.5201C30.5605 24.4796 30.3458 24.5004 30.1507 24.5798C29.9556 24.6593 29.7888 24.7939 29.6715 24.9666C29.5542 25.1392 29.4916 25.3422 29.4916 25.5499C29.4916 25.8284 29.6041 26.0955 29.8043 26.2924C30.0046 26.4893 30.2762 26.5999 30.5593 26.5999ZM28.4238 22.3999C28.2126 22.3999 28.0061 22.4615 27.8305 22.5769C27.6549 22.6922 27.5181 22.8562 27.4372 23.0481C27.3564 23.24 27.3353 23.4511 27.3765 23.6548C27.4177 23.8584 27.5194 24.0455 27.6687 24.1924C27.818 24.3392 28.0083 24.4392 28.2154 24.4797C28.4226 24.5202 28.6373 24.4995 28.8324 24.42C29.0275 24.3405 29.1943 24.2059 29.3116 24.0333C29.4289 23.8606 29.4916 23.6576 29.4916 23.4499C29.4916 23.1714 29.3791 22.9044 29.1788 22.7074C28.9786 22.5105 28.707 22.3999 28.4238 22.3999ZM36.9661 20.2999C37.1773 20.2999 37.3838 20.2383 37.5594 20.123C37.735 20.0076 37.8718 19.8436 37.9526 19.6517C38.0335 19.4599 38.0546 19.2487 38.0134 19.0451C37.9722 18.8414 37.8705 18.6543 37.7212 18.5074C37.5718 18.3606 37.3816 18.2606 37.1744 18.2201C36.9673 18.1796 36.7526 18.2004 36.5575 18.2798C36.3624 18.3593 36.1956 18.4939 36.0783 18.6666C35.961 18.8392 35.8983 19.0422 35.8983 19.2499C35.8983 19.5284 36.0108 19.7955 36.2111 19.9924C36.4113 20.1893 36.6829 20.2999 36.9661 20.2999ZM33.7627 21.3499C33.7627 21.5576 33.8254 21.7606 33.9427 21.9333C34.06 22.1059 34.2268 22.2405 34.4219 22.32C34.617 22.3995 34.8317 22.4202 35.0389 22.3797C35.246 22.3392 35.4362 22.2392 35.5856 22.0924C35.7349 21.9455 35.8366 21.7584 35.8778 21.5548C35.919 21.3511 35.8979 21.14 35.8171 20.9481C35.7362 20.7562 35.5994 20.5922 35.4238 20.4769C35.2482 20.3615 35.0417 20.2999 34.8305 20.2999C34.5473 20.2999 34.2757 20.4105 34.0755 20.6074C33.8752 20.8044 33.7627 21.0714 33.7627 21.3499ZM32.6949 18.1999C32.4838 18.1999 32.2773 18.2615 32.1017 18.3769C31.9261 18.4922 31.7892 18.6562 31.7084 18.8481C31.6276 19.04 31.6065 19.2511 31.6477 19.4548C31.6889 19.6584 31.7906 19.8455 31.9399 19.9924C32.0892 20.1392 32.2795 20.2392 32.4866 20.2797C32.6938 20.3202 32.9085 20.2995 33.1036 20.22C33.2987 20.1405 33.4655 20.0059 33.5828 19.8333C33.7001 19.6606 33.7627 19.4576 33.7627 19.2499C33.7627 18.9714 33.6502 18.7044 33.45 18.5074C33.2497 18.3105 32.9781 18.1999 32.6949 18.1999ZM39.1017 20.2999C38.8905 20.2999 38.6841 20.3615 38.5085 20.4769C38.3329 20.5922 38.196 20.7562 38.1152 20.9481C38.0344 21.14 38.0132 21.3511 38.0544 21.5548C38.0956 21.7584 38.1973 21.9455 38.3467 22.0924C38.496 22.2392 38.6863 22.3392 38.8934 22.3797C39.1005 22.4202 39.3152 22.3995 39.5103 22.32C39.7055 22.2405 39.8722 22.1059 39.9896 21.9333C40.1069 21.7606 40.1695 21.5576 40.1695 21.3499C40.1695 21.0714 40.057 20.8044 39.8568 20.6074C39.6565 20.4105 39.3849 20.2999 39.1017 20.2999ZM41.2373 18.1999C41.0261 18.1999 40.8197 18.2615 40.6441 18.3769C40.4685 18.4922 40.3316 18.6562 40.2508 18.8481C40.17 19.04 40.1488 19.2511 40.19 19.4548C40.2312 19.6584 40.3329 19.8455 40.4823 19.9924C40.6316 20.1392 40.8219 20.2392 41.029 20.2797C41.2361 20.3202 41.4508 20.2995 41.6459 20.22C41.8411 20.1405 42.0078 20.0059 42.1252 19.8333C42.2425 19.6606 42.3051 19.4576 42.3051 19.2499C42.3051 18.9714 42.1926 18.7044 41.9924 18.5074C41.7921 18.3105 41.5205 18.1999 41.2373 18.1999ZM36.9661 22.3999C36.7549 22.3999 36.5485 22.4615 36.3729 22.5769C36.1973 22.6922 36.0604 22.8562 35.9796 23.0481C35.8988 23.24 35.8776 23.4511 35.9188 23.6548C35.96 23.8584 36.0617 24.0455 36.2111 24.1924C36.3604 24.3392 36.5507 24.4392 36.7578 24.4797C36.9649 24.5202 37.1796 24.4995 37.3748 24.42C37.5699 24.3405 37.7366 24.2059 37.854 24.0333C37.9713 23.8606 38.0339 23.6576 38.0339 23.4499C38.0339 23.1714 37.9214 22.9044 37.7212 22.7074C37.5209 22.5105 37.2493 22.3999 36.9661 22.3999ZM34.8305 24.4999C34.6193 24.4999 34.4129 24.5615 34.2373 24.6769C34.0617 24.7922 33.9248 24.9562 33.844 25.1481C33.7632 25.34 33.7421 25.5511 33.7833 25.7548C33.8245 25.9584 33.9262 26.1455 34.0755 26.2924C34.2248 26.4392 34.4151 26.5392 34.6222 26.5797C34.8293 26.6202 35.044 26.5995 35.2392 26.52C35.4343 26.4405 35.601 26.3059 35.7184 26.1333C35.8357 25.9606 35.8983 25.7576 35.8983 25.5499C35.8983 25.2714 35.7858 25.0044 35.5856 24.8074C35.3853 24.6105 35.1137 24.4999 34.8305 24.4999ZM30.5593 28.6999C30.3482 28.6999 30.1417 28.7615 29.9661 28.8769C29.7905 28.9922 29.6537 29.1562 29.5728 29.3481C29.492 29.54 29.4709 29.7511 29.5121 29.9548C29.5533 30.1584 29.655 30.3455 29.8043 30.4924C29.9536 30.6392 30.1439 30.7392 30.351 30.7797C30.5582 30.8202 30.7729 30.7995 30.968 30.72C31.1631 30.6405 31.3299 30.5059 31.4472 30.3333C31.5645 30.1606 31.6271 29.9576 31.6271 29.7499C31.6271 29.4714 31.5146 29.2044 31.3144 29.0074C31.1141 28.8105 30.8425 28.6999 30.5593 28.6999ZM28.4238 30.7999C28.2126 30.7999 28.0061 30.8615 27.8305 30.9769C27.6549 31.0922 27.5181 31.2562 27.4372 31.4481C27.3564 31.64 27.3353 31.8511 27.3765 32.0548C27.4177 32.2584 27.5194 32.4455 27.6687 32.5924C27.818 32.7392 28.0083 32.8392 28.2154 32.8797C28.4226 32.9202 28.6373 32.8995 28.8324 32.82C29.0275 32.7405 29.1943 32.6059 29.3116 32.4333C29.4289 32.2606 29.4916 32.0576 29.4916 31.8499C29.4916 31.5714 29.3791 31.3044 29.1788 31.1074C28.9786 30.9105 28.707 30.7999 28.4238 30.7999ZM32.6949 26.5999C32.4838 26.5999 32.2773 26.6615 32.1017 26.7769C31.9261 26.8922 31.7892 27.0562 31.7084 27.2481C31.6276 27.44 31.6065 27.6511 31.6477 27.8548C31.6889 28.0584 31.7906 28.2455 31.9399 28.3924C32.0892 28.5392 32.2795 28.6392 32.4866 28.6797C32.6938 28.7202 32.9085 28.6995 33.1036 28.62C33.2987 28.5405 33.4655 28.4059 33.5828 28.2333C33.7001 28.0606 33.7627 27.8576 33.7627 27.6499C33.7627 27.3714 33.6502 27.1044 33.45 26.9074C33.2497 26.7105 32.9781 26.5999 32.6949 26.5999ZM34.1398 12.2707L33.3857 11.5285C33.2865 11.4309 33.1688 11.3536 33.0392 11.3008C32.9097 11.248 32.7708 11.2208 32.6305 11.2208C32.4903 11.2208 32.3514 11.248 32.2219 11.3008C32.0923 11.3536 31.9746 11.4309 31.8754 11.5285L31.497 11.8999C30.1086 10.5543 28.2376 9.79995 26.2882 9.79991C25.0041 9.79991 23.8135 10.1477 22.7578 10.7088L22.0904 10.0526C20.5758 8.55631 18.5205 7.71047 16.3737 7.69991C11.8389 7.66709 8.13562 11.6971 8.13562 16.1557V36.0499C8.13562 36.3284 8.24812 36.5955 8.44837 36.7924C8.64862 36.9893 8.92022 37.0999 9.20342 37.0999H11.339C11.6222 37.0999 11.8938 36.9893 12.0941 36.7924C12.2943 36.5955 12.4068 36.3284 12.4068 36.0499V15.9949C12.4068 14.0163 13.8083 12.1755 15.8104 11.9307C16.4036 11.8543 17.0067 11.9133 17.573 12.103C18.1393 12.2927 18.6535 12.6081 19.0759 13.0247L19.7432 13.681C19.1673 14.7165 18.8136 15.8873 18.8136 17.1499C18.8139 19.0668 19.581 20.9066 20.9492 22.2719L20.5714 22.644C20.3713 22.8409 20.2589 23.1079 20.2589 23.3863C20.2589 23.6646 20.3713 23.9316 20.5714 24.1285L21.3256 24.8707C21.4247 24.9682 21.5425 25.0456 21.672 25.0984C21.8016 25.1511 21.9405 25.1783 22.0807 25.1783C22.221 25.1783 22.3598 25.1511 22.4894 25.0984C22.619 25.0456 22.7367 24.9682 22.8358 24.8707L34.1398 13.7558C34.239 13.6583 34.3177 13.5425 34.3713 13.4151C34.425 13.2877 34.4526 13.1511 34.4526 13.0132C34.4526 12.8753 34.425 12.7388 34.3713 12.6114C34.3177 12.484 34.239 12.3682 34.1398 12.2707V12.2707Z" fill="#FF9B77"/>
</g>
<defs>
<clipPath id="clip0">
<rect x="8.13562" y="5.59998" width="34.1695" height="33.6" fill="white"/>
</clipPath>
</defs>
</svg>
