<svg width="128" height="128" viewBox="0 0 128 128" fill="none" xmlns="http://www.w3.org/2000/svg">
<title>magnifying-glass</title>
<g id="parent">
<g clip-path="url(#clip0)">
<path id="magnifyingGlass" d="M101.53 92.93L82.56 73.98C96.34 55.97 95.05 30.12 78.57 13.64C60.63 -4.29 31.55 -4.29 13.6 13.64C-4.33003 31.58 -4.33003 60.67 13.6 78.6C30.08 95.07 55.94 96.38 73.95 82.59L92.92 101.55L101.53 92.93V92.93Z" fill="#2C3138"/>
<g id="Group">
<path id="Vector_2" d="M126.53 110.53L101 84.94C94.4999 78.44 78.8199 94.71 85.0299 100.91L110.56 126.5C113.2 129.13 118.92 127.69 123.31 123.27C127.72 118.87 129.16 113.16 126.53 110.53Z" fill="#2C3138"/>
<path id="Vector_3" d="M111.23 125.77C111.41 123.73 112.74 121.32 113.6 119.96C116.17 115.89 119.4 112.52 124.22 111.24C129.12 109.93 129.61 113.62 128.44 117.36C127.03 121.87 124.22 125.26 120.08 127.63C119.11 128.19 117.82 128.98 116.7 129.15C113.96 129.54 110.94 129.19 111.23 125.77V125.77Z" fill="#828282"/>
</g>
<clipPath id="clipPath">
<path id="inside" d="M20.4399 72.77C6.27995 58.6 6.27995 35.62 20.4399 21.46C34.6099 7.28999 57.5599 7.29999 71.7399 21.46C85.8999 35.62 85.8999 58.58 71.7399 72.77C57.5499 86.93 34.5999 86.93 20.4399 72.77Z" fill="white"/>
</clipPath>
<path id="inside" d="M20.4399 72.77C6.27995 58.6 6.27995 35.62 20.4399 21.46C34.6099 7.28999 57.5599 7.29999 71.7399 21.46C85.8999 35.62 85.8999 58.58 71.7399 72.77C57.5499 86.93 34.5999 86.93 20.4399 72.77Z" fill="white"/>
<g id="hidden-group" style="clip-path: url(#clipPath);">
<path id="shower" d="M48.2881 50.9002C48.0769 50.9002 47.8705 50.9618 47.6949 51.0772C47.5193 51.1925 47.3824 51.3565 47.3016 51.5484C47.2208 51.7402 47.1997 51.9514 47.2409 52.155C47.2821 52.3587 47.3838 52.5458 47.5331 52.6927C47.6824 52.8395 47.8727 52.9395 48.0798 52.98C48.2869 53.0205 48.5016 52.9997 48.6968 52.9203C48.8919 52.8408 49.0586 52.7062 49.176 52.5335C49.2933 52.3609 49.3559 52.1579 49.3559 51.9502C49.3559 51.6717 49.2434 51.4046 49.0432 51.2077C48.8429 51.0108 48.5713 50.9002 48.2881 50.9002ZM50.4237 44.6002C50.2125 44.6002 50.0061 44.6618 49.8305 44.7772C49.6549 44.8925 49.518 45.0565 49.4372 45.2484C49.3564 45.4402 49.3352 45.6514 49.3764 45.855C49.4177 46.0587 49.5193 46.2458 49.6687 46.3927C49.818 46.5395 50.0083 46.6395 50.2154 46.68C50.4225 46.7205 50.6372 46.6997 50.8324 46.6203C51.0275 46.5408 51.1942 46.4062 51.3116 46.2335C51.4289 46.0609 51.4915 45.8579 51.4915 45.6502C51.4915 45.3717 51.379 45.1047 51.1788 44.9077C50.9785 44.7108 50.7069 44.6002 50.4237 44.6002ZM52.5593 48.8002C52.7705 48.8002 52.977 48.7386 53.1526 48.6232C53.3282 48.5079 53.465 48.3439 53.5458 48.152C53.6267 47.9602 53.6478 47.749 53.6066 47.5454C53.5654 47.3417 53.4637 47.1546 53.3144 47.0077C53.165 46.8609 52.9748 46.7609 52.7676 46.7204C52.5605 46.6799 52.3458 46.7007 52.1507 46.7801C51.9556 46.8596 51.7888 46.9942 51.6715 47.1669C51.5541 47.3395 51.4915 47.5425 51.4915 47.7502C51.4915 48.0287 51.604 48.2958 51.8043 48.4927C52.0045 48.6896 52.2761 48.8002 52.5593 48.8002ZM50.4237 50.9002C50.6349 50.9002 50.8414 50.8386 51.017 50.7232C51.1926 50.6079 51.3294 50.4439 51.4102 50.252C51.4911 50.0602 51.5122 49.849 51.471 49.6454C51.4298 49.4417 51.3281 49.2546 51.1788 49.1077C51.0294 48.9609 50.8392 48.8609 50.632 48.8204C50.4249 48.7799 50.2102 48.8007 50.0151 48.8801C49.82 48.9596 49.6532 49.0942 49.5359 49.2669C49.4186 49.4395 49.3559 49.6425 49.3559 49.8502C49.3559 50.1287 49.4684 50.3957 49.6687 50.5927C49.8689 50.7896 50.1405 50.9002 50.4237 50.9002ZM48.2881 46.7002C48.0769 46.7002 47.8705 46.7618 47.6949 46.8772C47.5193 46.9925 47.3824 47.1565 47.3016 47.3484C47.2208 47.5402 47.1997 47.7514 47.2409 47.955C47.2821 48.1587 47.3838 48.3458 47.5331 48.4927C47.6824 48.6395 47.8727 48.7395 48.0798 48.78C48.2869 48.8205 48.5016 48.7997 48.6968 48.7203C48.8919 48.6408 49.0586 48.5062 49.176 48.3335C49.2933 48.1609 49.3559 47.9579 49.3559 47.7502C49.3559 47.4717 49.2434 47.2047 49.0432 47.0077C48.8429 46.8108 48.5713 46.7002 48.2881 46.7002ZM56.8305 44.6002C57.0417 44.6002 57.2481 44.5386 57.4237 44.4232C57.5993 44.3079 57.7362 44.1439 57.817 43.952C57.8978 43.7602 57.919 43.549 57.8778 43.3454C57.8366 43.1417 57.7349 42.9546 57.5856 42.8077C57.4362 42.6609 57.246 42.5609 57.0388 42.5204C56.8317 42.4799 56.617 42.5007 56.4219 42.5801C56.2268 42.6596 56.06 42.7942 55.9427 42.9669C55.8253 43.1395 55.7627 43.3425 55.7627 43.5502C55.7627 43.8287 55.8752 44.0957 56.0755 44.2927C56.2757 44.4896 56.5473 44.6002 56.8305 44.6002ZM53.6271 45.6502C53.6271 45.8579 53.6897 46.0609 53.8071 46.2335C53.9244 46.4062 54.0912 46.5408 54.2863 46.6203C54.4814 46.6997 54.6961 46.7205 54.9032 46.68C55.1104 46.6395 55.3006 46.5395 55.45 46.3927C55.5993 46.2458 55.701 46.0587 55.7422 45.855C55.7834 45.6514 55.7622 45.4402 55.6814 45.2484C55.6006 45.0565 55.4637 44.8925 55.2882 44.7772C55.1126 44.6618 54.9061 44.6002 54.6949 44.6002C54.4117 44.6002 54.1401 44.7108 53.9399 44.9077C53.7396 45.1047 53.6271 45.3717 53.6271 45.6502ZM52.5593 42.5002C52.3481 42.5002 52.1417 42.5618 51.9661 42.6772C51.7905 42.7925 51.6536 42.9565 51.5728 43.1484C51.492 43.3402 51.4708 43.5514 51.512 43.755C51.5532 43.9587 51.6549 44.1458 51.8043 44.2927C51.9536 44.4395 52.1439 44.5395 52.351 44.58C52.5581 44.6205 52.7728 44.5997 52.9679 44.5203C53.1631 44.4408 53.3298 44.3062 53.4472 44.1335C53.5645 43.9609 53.6271 43.7579 53.6271 43.5502C53.6271 43.2717 53.5146 43.0047 53.3144 42.8077C53.1141 42.6108 52.8425 42.5002 52.5593 42.5002ZM58.9661 44.6002C58.7549 44.6002 58.5485 44.6618 58.3729 44.7772C58.1973 44.8925 58.0604 45.0565 57.9796 45.2484C57.8988 45.4402 57.8776 45.6514 57.9188 45.855C57.96 46.0587 58.0617 46.2458 58.2111 46.3927C58.3604 46.5395 58.5507 46.6395 58.7578 46.68C58.9649 46.7205 59.1796 46.6997 59.3747 46.6203C59.5698 46.5408 59.7366 46.4062 59.8539 46.2335C59.9713 46.0609 60.0339 45.8579 60.0339 45.6502C60.0339 45.3717 59.9214 45.1047 59.7211 44.9077C59.5209 44.7108 59.2493 44.6002 58.9661 44.6002ZM61.1017 42.5002C60.8905 42.5002 60.6841 42.5618 60.5085 42.6772C60.3329 42.7925 60.196 42.9565 60.1152 43.1484C60.0344 43.3402 60.0132 43.5514 60.0544 43.755C60.0956 43.9587 60.1973 44.1458 60.3466 44.2927C60.496 44.4395 60.6862 44.5395 60.8934 44.58C61.1005 44.6205 61.3152 44.5997 61.5103 44.5203C61.7054 44.4408 61.8722 44.3062 61.9895 44.1335C62.1069 43.9609 62.1695 43.7579 62.1695 43.5502C62.1695 43.2717 62.057 43.0047 61.8567 42.8077C61.6565 42.6108 61.3849 42.5002 61.1017 42.5002ZM56.8305 46.7002C56.6193 46.7002 56.4129 46.7618 56.2373 46.8772C56.0617 46.9925 55.9248 47.1565 55.844 47.3484C55.7632 47.5402 55.742 47.7514 55.7832 47.955C55.8244 48.1587 55.9261 48.3458 56.0755 48.4927C56.2248 48.6395 56.4151 48.7395 56.6222 48.78C56.8293 48.8205 57.044 48.7997 57.2391 48.7203C57.4342 48.6408 57.601 48.5062 57.7183 48.3335C57.8357 48.1609 57.8983 47.9579 57.8983 47.7502C57.8983 47.4717 57.7858 47.2047 57.5856 47.0077C57.3853 46.8108 57.1137 46.7002 56.8305 46.7002ZM54.6949 48.8002C54.4837 48.8002 54.2773 48.8618 54.1017 48.9772C53.9261 49.0925 53.7892 49.2565 53.7084 49.4484C53.6276 49.6402 53.6064 49.8514 53.6476 50.055C53.6888 50.2587 53.7905 50.4458 53.9399 50.5927C54.0892 50.7395 54.2795 50.8395 54.4866 50.88C54.6937 50.9205 54.9084 50.8997 55.1035 50.8203C55.2987 50.7408 55.4654 50.6062 55.5828 50.4335C55.7001 50.2609 55.7627 50.0579 55.7627 49.8502C55.7627 49.5717 55.6502 49.3046 55.45 49.1077C55.2497 48.9108 54.9781 48.8002 54.6949 48.8002ZM50.4237 53.0002C50.2125 53.0002 50.0061 53.0618 49.8305 53.1772C49.6549 53.2925 49.518 53.4565 49.4372 53.6484C49.3564 53.8402 49.3352 54.0514 49.3764 54.255C49.4177 54.4587 49.5193 54.6458 49.6687 54.7927C49.818 54.9395 50.0083 55.0395 50.2154 55.08C50.4225 55.1205 50.6372 55.0997 50.8324 55.0203C51.0275 54.9408 51.1942 54.8062 51.3116 54.6335C51.4289 54.4609 51.4915 54.2579 51.4915 54.0502C51.4915 53.7717 51.379 53.5047 51.1788 53.3077C50.9785 53.1108 50.7069 53.0002 50.4237 53.0002ZM48.2881 55.1002C48.0769 55.1002 47.8705 55.1618 47.6949 55.2772C47.5193 55.3925 47.3824 55.5565 47.3016 55.7484C47.2208 55.9402 47.1997 56.1514 47.2409 56.355C47.2821 56.5587 47.3838 56.7458 47.5331 56.8927C47.6824 57.0395 47.8727 57.1395 48.0798 57.18C48.2869 57.2205 48.5016 57.1997 48.6968 57.1203C48.8919 57.0408 49.0586 56.9062 49.176 56.7335C49.2933 56.5609 49.3559 56.3579 49.3559 56.1502C49.3559 55.8717 49.2434 55.6047 49.0432 55.4077C48.8429 55.2108 48.5713 55.1002 48.2881 55.1002ZM52.5593 50.9002C52.3481 50.9002 52.1417 50.9618 51.9661 51.0772C51.7905 51.1925 51.6536 51.3565 51.5728 51.5484C51.492 51.7402 51.4708 51.9514 51.512 52.155C51.5532 52.3587 51.6549 52.5458 51.8043 52.6927C51.9536 52.8395 52.1439 52.9395 52.351 52.98C52.5581 53.0205 52.7728 52.9997 52.9679 52.9203C53.1631 52.8408 53.3298 52.7062 53.4472 52.5335C53.5645 52.3609 53.6271 52.1579 53.6271 51.9502C53.6271 51.6717 53.5146 51.4046 53.3144 51.2077C53.1141 51.0108 52.8425 50.9002 52.5593 50.9002ZM54.0042 36.571L53.2501 35.8288C53.1509 35.7312 53.0332 35.6539 52.9036 35.6011C52.774 35.5483 52.6352 35.5211 52.4949 35.5211C52.3547 35.5211 52.2158 35.5483 52.0862 35.6011C51.9567 35.6539 51.8389 35.7312 51.7398 35.8288L51.3614 36.2002C49.973 34.8546 48.1019 34.1002 46.1525 34.1002C44.8685 34.1002 43.6779 34.448 42.6221 35.0091L41.9548 34.3529C40.4402 32.8566 38.3849 32.0108 36.2381 32.0002C31.7033 31.9674 28 35.9974 28 40.456V60.3502C28 60.6287 28.1125 60.8957 28.3128 61.0927C28.513 61.2896 28.7846 61.4002 29.0678 61.4002H31.2034C31.4866 61.4002 31.7582 61.2896 31.9584 61.0927C32.1587 60.8957 32.2712 60.6287 32.2712 60.3502V40.2952C32.2712 38.3166 33.6727 36.4758 35.6748 36.231C36.268 36.1546 36.8711 36.2136 37.4374 36.4033C38.0036 36.593 38.5179 36.9084 38.9402 37.325L39.6076 37.9813C39.0317 39.0168 38.678 40.1876 38.678 41.4502C38.6783 43.367 39.4454 45.2068 40.8136 46.5722L40.4358 46.9443C40.2357 47.1412 40.1233 47.4082 40.1233 47.6865C40.1233 47.9649 40.2357 48.2319 40.4358 48.4288L41.19 49.171C41.2891 49.2685 41.4068 49.3459 41.5364 49.3987C41.666 49.4514 41.8048 49.4786 41.9451 49.4786C42.0853 49.4786 42.2242 49.4514 42.3538 49.3987C42.4833 49.3459 42.6011 49.2685 42.7002 49.171L54.0042 38.0561C54.1034 37.9586 54.182 37.8428 54.2357 37.7154C54.2894 37.588 54.317 37.4514 54.317 37.3135C54.317 37.1756 54.2894 37.0391 54.2357 36.9117C54.182 36.7842 54.1034 36.6685 54.0042 36.571V36.571Z" fill="#FF9B77"/>
<path id="food" d="M64.4746 54C64.4746 55.4852 63.8746 56.9096 62.8066 57.9598C61.7386 59.01 60.29 59.6 58.7797 59.6H54.5085C52.9981 59.6 51.5496 59.01 50.4816 57.9598C49.4136 56.9096 48.8136 55.4852 48.8136 54V51.2H58.4807L62.4102 44.522L64.6312 45.782L61.442 51.2H64.4746V54ZM45.9661 59.6H36C36 55.4 36 51.2 36.4698 46.762C36.8542 43.22 37.5376 39.524 38.278 35.8H37.4237V33H44.5424V35.8H43.6881C44.4285 39.524 45.1119 43.22 45.4963 46.762C45.9661 51.2 45.9661 55.4 45.9661 59.6Z" fill="#FF9B77"/>
<path id="learning" d="M60.868 38.0029C57.8494 38.1681 51.8496 38.7695 48.1457 40.9561C47.8901 41.107 47.7452 41.3753 47.7452 41.6558V60.9864C47.7452 61.5999 48.4409 61.9878 49.0276 61.703C52.8383 59.8532 58.3496 59.3485 61.0746 59.2104C62.005 59.1631 62.7283 58.4438 62.7283 57.5816V39.6338C62.7288 38.693 61.8827 37.9476 60.868 38.0029ZM45.5826 40.9561C41.8792 38.7695 35.8794 38.1686 32.8608 38.0029C31.8461 37.9476 31 38.693 31 39.6338V57.5821C31 58.4449 31.7233 59.1642 32.6536 59.2109C35.3798 59.349 40.8938 59.8543 44.7045 61.7051C45.2895 61.9894 45.983 61.6021 45.983 60.9901V41.6462C45.983 41.3652 45.8387 41.1075 45.5826 40.9561Z" fill="#FF9B77"/>
<path id="shelter" d="M37.6203 50.2C40.0314 50.2 41.9932 48.2933 41.9932 45.95C41.9932 43.6067 40.0314 41.7 37.6203 41.7C35.2092 41.7 33.2475 43.6067 33.2475 45.95C33.2475 48.2933 35.2092 50.2 37.6203 50.2ZM56.861 43.4H44.6169C44.1337 43.4 43.7424 43.7804 43.7424 44.25V51.9H31.4983V40.85C31.4983 40.3804 31.1069 40 30.6237 40H28.8746C28.3914 40 28 40.3804 28 40.85V59.55C28 60.0196 28.3914 60.4 28.8746 60.4H30.6237C31.1069 60.4 31.4983 60.0196 31.4983 59.55V57H59.4847V59.55C59.4847 60.0196 59.8761 60.4 60.3593 60.4H62.1085C62.5917 60.4 62.9831 60.0196 62.9831 59.55V49.35C62.9831 46.0637 60.2423 43.4 56.861 43.4Z" fill="#FF9B77"/>
</g>
</g>
</g>
<defs>
<clipPath id="clip0">
<rect width="128" height="128" fill="white"/>
</clipPath>
</defs>
</svg>
