<svg width="48" height="60" viewBox="0 0 48 60" fill="none" xmlns="http://www.w3.org/2000/svg">
<g filter="url(#filter0_d)">
<path d="M24 0C12.9547 0 4 8.95467 4 20C4 31.0453 12.9547 40 24 40C35.0453 40 44 31.0453 44 20C44 8.95467 35.0453 0 24 0ZM27.3333 33.1667H20.6667V17.1667H27.3333V33.1667ZM24 13.5C23.1159 13.5 22.2681 13.1488 21.643 12.5237C21.0179 11.8986 20.6667 11.0507 20.6667 10.1667C20.6667 9.28261 21.0179 8.43477 21.643 7.80964C22.2681 7.18452 23.1159 6.83333 24 6.83333C24.8841 6.83333 25.7319 7.18452 26.357 7.80964C26.9821 8.43477 27.3333 9.28261 27.3333 10.1667C27.3333 11.0507 26.9821 11.8986 26.357 12.5237C25.7319 13.1488 24.8841 13.5 24 13.5Z" fill="#FF9B77"/>
</g>
<path d="M9.90234 55.2422H6.82031L6.23438 57H4.36523L7.54102 48.4688H9.16992L12.3633 57H10.4941L9.90234 55.2422ZM7.29492 53.8184H9.42773L8.35547 50.625L7.29492 53.8184ZM13.1602 57V48.4688H16.1484C17.1836 48.4688 17.9688 48.668 18.5039 49.0664C19.0391 49.4609 19.3066 50.041 19.3066 50.8066C19.3066 51.2246 19.1992 51.5938 18.9844 51.9141C18.7695 52.2305 18.4707 52.4629 18.0879 52.6113C18.5254 52.7207 18.8691 52.9414 19.1191 53.2734C19.373 53.6055 19.5 54.0117 19.5 54.4922C19.5 55.3125 19.2383 55.9336 18.7148 56.3555C18.1914 56.7773 17.4453 56.9922 16.4766 57H13.1602ZM14.918 53.2852V55.5879H16.4238C16.8379 55.5879 17.1602 55.4902 17.3906 55.2949C17.625 55.0957 17.7422 54.8223 17.7422 54.4746C17.7422 53.6934 17.3379 53.2969 16.5293 53.2852H14.918ZM14.918 52.043H16.2188C17.1055 52.0273 17.5488 51.6738 17.5488 50.9824C17.5488 50.5957 17.4355 50.3184 17.209 50.1504C16.9863 49.9785 16.6328 49.8926 16.1484 49.8926H14.918V52.043ZM27.832 52.9277C27.832 53.7676 27.6836 54.5039 27.3867 55.1367C27.0898 55.7695 26.6641 56.2578 26.1094 56.6016C25.5586 56.9453 24.9258 57.1172 24.2109 57.1172C23.5039 57.1172 22.873 56.9473 22.3184 56.6074C21.7637 56.2676 21.334 55.7832 21.0293 55.1543C20.7246 54.5215 20.5703 53.7949 20.5664 52.9746V52.5527C20.5664 51.7129 20.7168 50.9746 21.0176 50.3379C21.3223 49.6973 21.75 49.207 22.3008 48.8672C22.8555 48.5234 23.4883 48.3516 24.1992 48.3516C24.9102 48.3516 25.541 48.5234 26.0918 48.8672C26.6465 49.207 27.0742 49.6973 27.375 50.3379C27.6797 50.9746 27.832 51.7109 27.832 52.5469V52.9277ZM26.0508 52.541C26.0508 51.6465 25.8906 50.9668 25.5703 50.502C25.25 50.0371 24.793 49.8047 24.1992 49.8047C23.6094 49.8047 23.1543 50.0352 22.834 50.4961C22.5137 50.9531 22.3516 51.625 22.3477 52.5117V52.9277C22.3477 53.7988 22.5078 54.4746 22.8281 54.9551C23.1484 55.4355 23.6094 55.6758 24.2109 55.6758C24.8008 55.6758 25.2539 55.4453 25.5703 54.9844C25.8867 54.5195 26.0469 53.8438 26.0508 52.957V52.541ZM35.5664 48.4688V54.0879C35.5664 55.0215 35.2734 55.7598 34.6875 56.3027C34.1055 56.8457 33.3086 57.1172 32.2969 57.1172C31.3008 57.1172 30.5098 56.8535 29.9238 56.3262C29.3379 55.7988 29.0391 55.0742 29.0273 54.1523V48.4688H30.7852V54.0996C30.7852 54.6582 30.918 55.0664 31.1836 55.3242C31.4531 55.5781 31.8242 55.7051 32.2969 55.7051C33.2852 55.7051 33.7871 55.1855 33.8027 54.1465V48.4688H35.5664ZM43.4297 49.8926H40.8164V57H39.0586V49.8926H36.4805V48.4688H43.4297V49.8926Z" fill="#FF9B77"/>
<defs>
<filter id="filter0_d" x="0" y="0" width="48" height="48" filterUnits="userSpaceOnUse" color-interpolation-filters="sRGB">
<feFlood flood-opacity="0" result="BackgroundImageFix"/>
<feColorMatrix in="SourceAlpha" type="matrix" values="0 0 0 0 0 0 0 0 0 0 0 0 0 0 0 0 0 0 127 0"/>
<feOffset dy="4"/>
<feGaussianBlur stdDeviation="2"/>
<feColorMatrix type="matrix" values="0 0 0 0 0 0 0 0 0 0 0 0 0 0 0 0 0 0 0.1 0"/>
<feBlend mode="normal" in2="BackgroundImageFix" result="effect1_dropShadow"/>
<feBlend mode="normal" in="SourceGraphic" in2="effect1_dropShadow" result="shape"/>
</filter>
</defs>
</svg>
