<svg width="76" height="60" viewBox="0 0 76 60" fill="none" xmlns="http://www.w3.org/2000/svg">
<g filter="url(#filter0_d)">
<path d="M40 10H36V18H28V22H36V30H40V22H48V18H40V10ZM38 0C26.96 0 18 8.96 18 20C18 31.04 26.96 40 38 40C49.04 40 58 31.04 58 20C58 8.96 49.04 0 38 0ZM38 36C29.18 36 22 28.82 22 20C22 11.18 29.18 4 38 4C46.82 4 54 11.18 54 20C54 28.82 46.82 36 38 36Z" fill="#FF9B77"/>
</g>
<path d="M5.92383 55.2422H2.8418L2.25586 57H0.386719L3.5625 48.4688H5.19141L8.38477 57H6.51562L5.92383 55.2422ZM3.31641 53.8184H5.44922L4.37695 50.625L3.31641 53.8184ZM9.18164 57V48.4688H11.8066C12.5566 48.4688 13.2266 48.6387 13.8164 48.9785C14.4102 49.3145 14.873 49.7949 15.2051 50.4199C15.5371 51.041 15.7031 51.748 15.7031 52.541V52.9336C15.7031 53.7266 15.5391 54.4316 15.2109 55.0488C14.8867 55.666 14.4277 56.1445 13.834 56.4844C13.2402 56.8242 12.5703 56.9961 11.8242 57H9.18164ZM10.9395 49.8926V55.5879H11.7891C12.4766 55.5879 13.002 55.3633 13.3652 54.9141C13.7285 54.4648 13.9141 53.8223 13.9219 52.9863V52.5352C13.9219 51.668 13.7422 51.0117 13.3828 50.5664C13.0234 50.1172 12.498 49.8926 11.8066 49.8926H10.9395ZM16.9863 57V48.4688H19.6113C20.3613 48.4688 21.0312 48.6387 21.6211 48.9785C22.2148 49.3145 22.6777 49.7949 23.0098 50.4199C23.3418 51.041 23.5078 51.748 23.5078 52.541V52.9336C23.5078 53.7266 23.3438 54.4316 23.0156 55.0488C22.6914 55.666 22.2324 56.1445 21.6387 56.4844C21.0449 56.8242 20.375 56.9961 19.6289 57H16.9863ZM18.7441 49.8926V55.5879H19.5938C20.2812 55.5879 20.8066 55.3633 21.1699 54.9141C21.5332 54.4648 21.7188 53.8223 21.7266 52.9863V52.5352C21.7266 51.668 21.5469 51.0117 21.1875 50.5664C20.8281 50.1172 20.3027 49.8926 19.6113 49.8926H18.7441ZM32.2031 54.7617C32.2031 54.4297 32.0859 54.1758 31.8516 54C31.6172 53.8203 31.1953 53.6328 30.5859 53.4375C29.9766 53.2383 29.4941 53.043 29.1387 52.8516C28.1699 52.3281 27.6855 51.623 27.6855 50.7363C27.6855 50.2754 27.8145 49.8652 28.0723 49.5059C28.334 49.1426 28.707 48.8594 29.1914 48.6562C29.6797 48.4531 30.2266 48.3516 30.832 48.3516C31.4414 48.3516 31.9844 48.4629 32.4609 48.6855C32.9375 48.9043 33.3066 49.2148 33.5684 49.6172C33.834 50.0195 33.9668 50.4766 33.9668 50.9883H32.209C32.209 50.5977 32.0859 50.2949 31.8398 50.0801C31.5938 49.8613 31.248 49.752 30.8027 49.752C30.373 49.752 30.0391 49.8438 29.8008 50.0273C29.5625 50.207 29.4434 50.4453 29.4434 50.7422C29.4434 51.0195 29.582 51.252 29.8594 51.4395C30.1406 51.627 30.5527 51.8027 31.0957 51.9668C32.0957 52.2676 32.8242 52.6406 33.2812 53.0859C33.7383 53.5312 33.9668 54.0859 33.9668 54.75C33.9668 55.4883 33.6875 56.0684 33.1289 56.4902C32.5703 56.9082 31.8184 57.1172 30.873 57.1172C30.2168 57.1172 29.6191 56.998 29.0801 56.7598C28.541 56.5176 28.1289 56.1875 27.8438 55.7695C27.5625 55.3516 27.4219 54.8672 27.4219 54.3164H29.1855C29.1855 55.2578 29.748 55.7285 30.873 55.7285C31.291 55.7285 31.6172 55.6445 31.8516 55.4766C32.0859 55.3047 32.2031 55.0664 32.2031 54.7617ZM40.2949 53.3027H36.9199V55.5879H40.8809V57H35.1621V48.4688H40.8691V49.8926H36.9199V51.9258H40.2949V53.3027ZM45.0703 53.877H43.6699V57H41.9121V48.4688H45.082C46.0898 48.4688 46.8672 48.6934 47.4141 49.1426C47.9609 49.5918 48.2344 50.2266 48.2344 51.0469C48.2344 51.6289 48.1074 52.1152 47.8535 52.5059C47.6035 52.8926 47.2227 53.2012 46.7109 53.4316L48.5566 56.918V57H46.6699L45.0703 53.877ZM43.6699 52.4531H45.0879C45.5293 52.4531 45.8711 52.3418 46.1133 52.1191C46.3555 51.8926 46.4766 51.582 46.4766 51.1875C46.4766 50.7852 46.3613 50.4688 46.1309 50.2383C45.9043 50.0078 45.5547 49.8926 45.082 49.8926H43.6699V52.4531ZM52.6113 54.8848L54.5449 48.4688H56.502L53.5312 57H51.6973L48.7383 48.4688H50.6895L52.6113 54.8848ZM59.1797 57H57.4219V48.4688H59.1797V57ZM67.5117 54.1582C67.4453 55.0762 67.1055 55.7988 66.4922 56.3262C65.8828 56.8535 65.0781 57.1172 64.0781 57.1172C62.9844 57.1172 62.123 56.75 61.4941 56.0156C60.8691 55.2773 60.5566 54.2656 60.5566 52.9805V52.459C60.5566 51.6387 60.7012 50.916 60.9902 50.291C61.2793 49.666 61.6914 49.1875 62.2266 48.8555C62.7656 48.5195 63.3906 48.3516 64.1016 48.3516C65.0859 48.3516 65.8789 48.6152 66.4805 49.1426C67.082 49.6699 67.4297 50.4102 67.5234 51.3633H65.7656C65.7227 50.8125 65.5684 50.4141 65.3027 50.168C65.041 49.918 64.6406 49.793 64.1016 49.793C63.5156 49.793 63.0762 50.0039 62.7832 50.4258C62.4941 50.8438 62.3457 51.4941 62.3379 52.377V53.0215C62.3379 53.9434 62.4766 54.6172 62.7539 55.043C63.0352 55.4688 63.4766 55.6816 64.0781 55.6816C64.6211 55.6816 65.0254 55.5586 65.291 55.3125C65.5605 55.0625 65.7148 54.6777 65.7539 54.1582H67.5117ZM73.7988 53.3027H70.4238V55.5879H74.3848V57H68.666V48.4688H74.373V49.8926H70.4238V51.9258H73.7988V53.3027Z" fill="#FF9B77"/>
<defs>
<filter id="filter0_d" x="14" y="0" width="48" height="48" filterUnits="userSpaceOnUse" color-interpolation-filters="sRGB">
<feFlood flood-opacity="0" result="BackgroundImageFix"/>
<feColorMatrix in="SourceAlpha" type="matrix" values="0 0 0 0 0 0 0 0 0 0 0 0 0 0 0 0 0 0 127 0"/>
<feOffset dy="4"/>
<feGaussianBlur stdDeviation="2"/>
<feColorMatrix type="matrix" values="0 0 0 0 0 0 0 0 0 0 0 0 0 0 0 0 0 0 0.1 0"/>
<feBlend mode="normal" in2="BackgroundImageFix" result="effect1_dropShadow"/>
<feBlend mode="normal" in="SourceGraphic" in2="effect1_dropShadow" result="shape"/>
</filter>
</defs>
</svg>
