<svg width="50" height="60" viewBox="0 0 50 60" fill="none" xmlns="http://www.w3.org/2000/svg">
<g filter="url(#filter0_d)">
<path d="M33.8426 3.75864L20.5823 15.7143L33.8426 27.6699C34.1835 27.9774 34.375 28.3942 34.375 28.8289C34.375 29.2636 34.1835 29.6805 33.8426 29.988L32.7772 30.9486C32.4362 31.2559 31.9738 31.4286 31.4917 31.4286C31.0095 31.4286 30.5472 31.2559 30.2062 30.9486L14.5949 16.8733C14.254 16.5659 14.0625 16.149 14.0625 15.7143C14.0625 15.2796 14.254 14.8627 14.5949 14.5553L30.2062 0.479974C30.5472 0.172647 31.0095 0 31.4917 0C31.9738 0 32.4362 0.172647 32.7772 0.479974L33.8426 1.44062C34.1835 1.74804 34.375 2.16494 34.375 2.59963C34.375 3.03432 34.1835 3.45122 33.8426 3.75864Z" fill="#FF9B77"/>
</g>
<path d="M10.2227 51V42.4688H13.2109C14.2461 42.4688 15.0312 42.668 15.5664 43.0664C16.1016 43.4609 16.3691 44.041 16.3691 44.8066C16.3691 45.2246 16.2617 45.5938 16.0469 45.9141C15.832 46.2305 15.5332 46.4629 15.1504 46.6113C15.5879 46.7207 15.9316 46.9414 16.1816 47.2734C16.4355 47.6055 16.5625 48.0117 16.5625 48.4922C16.5625 49.3125 16.3008 49.9336 15.7773 50.3555C15.2539 50.7773 14.5078 50.9922 13.5391 51H10.2227ZM11.9805 47.2852V49.5879H13.4863C13.9004 49.5879 14.2227 49.4902 14.4531 49.2949C14.6875 49.0957 14.8047 48.8223 14.8047 48.4746C14.8047 47.6934 14.4004 47.2969 13.5918 47.2852H11.9805ZM11.9805 46.043H13.2812C14.168 46.0273 14.6113 45.6738 14.6113 44.9824C14.6113 44.5957 14.498 44.3184 14.2715 44.1504C14.0488 43.9785 13.6953 43.8926 13.2109 43.8926H11.9805V46.043ZM22.7031 49.2422H19.6211L19.0352 51H17.166L20.3418 42.4688H21.9707L25.1641 51H23.2949L22.7031 49.2422ZM20.0957 47.8184H22.2285L21.1562 44.625L20.0957 47.8184ZM32.5293 48.1582C32.4629 49.0762 32.123 49.7988 31.5098 50.3262C30.9004 50.8535 30.0957 51.1172 29.0957 51.1172C28.002 51.1172 27.1406 50.75 26.5117 50.0156C25.8867 49.2773 25.5742 48.2656 25.5742 46.9805V46.459C25.5742 45.6387 25.7188 44.916 26.0078 44.291C26.2969 43.666 26.709 43.1875 27.2441 42.8555C27.7832 42.5195 28.4082 42.3516 29.1191 42.3516C30.1035 42.3516 30.8965 42.6152 31.498 43.1426C32.0996 43.6699 32.4473 44.4102 32.541 45.3633H30.7832C30.7402 44.8125 30.5859 44.4141 30.3203 44.168C30.0586 43.918 29.6582 43.793 29.1191 43.793C28.5332 43.793 28.0938 44.0039 27.8008 44.4258C27.5117 44.8438 27.3633 45.4941 27.3555 46.377V47.0215C27.3555 47.9434 27.4941 48.6172 27.7715 49.043C28.0527 49.4688 28.4941 49.6816 29.0957 49.6816C29.6387 49.6816 30.043 49.5586 30.3086 49.3125C30.5781 49.0625 30.7324 48.6777 30.7715 48.1582H32.5293ZM36.3555 47.5781L35.4414 48.5625V51H33.6836V42.4688H35.4414V46.3359L36.2148 45.2754L38.3887 42.4688H40.5508L37.5215 46.2598L40.6387 51H38.5469L36.3555 47.5781Z" fill="#FF9B77"/>
<defs>
<filter id="filter0_d" x="10.0625" y="0" width="28.3125" height="39.4286" filterUnits="userSpaceOnUse" color-interpolation-filters="sRGB">
<feFlood flood-opacity="0" result="BackgroundImageFix"/>
<feColorMatrix in="SourceAlpha" type="matrix" values="0 0 0 0 0 0 0 0 0 0 0 0 0 0 0 0 0 0 127 0"/>
<feOffset dy="4"/>
<feGaussianBlur stdDeviation="2"/>
<feColorMatrix type="matrix" values="0 0 0 0 0 0 0 0 0 0 0 0 0 0 0 0 0 0 0.25 0"/>
<feBlend mode="normal" in2="BackgroundImageFix" result="effect1_dropShadow"/>
<feBlend mode="normal" in="SourceGraphic" in2="effect1_dropShadow" result="shape"/>
</filter>
</defs>
</svg>
