<svg width="40" height="60" viewBox="0 0 40 60" fill="none" xmlns="http://www.w3.org/2000/svg">
<g filter="url(#filter0_d)">
<path d="M27.0741 5.8377L16.4658 17.0662L27.0741 28.2946C27.3468 28.5834 27.5 28.9749 27.5 29.3832C27.5 29.7914 27.3468 30.183 27.0741 30.4717L26.2217 31.3739C25.949 31.6625 25.579 31.8247 25.1933 31.8247C24.8076 31.8247 24.4377 31.6625 24.1649 31.3739L11.6759 18.1547C11.4032 17.866 11.25 17.4744 11.25 17.0662C11.25 16.6579 11.4032 16.2664 11.6759 15.9777L24.1649 2.75846C24.4377 2.46982 24.8076 2.30768 25.1933 2.30768C25.579 2.30768 25.949 2.46982 26.2217 2.75846L27.0741 3.66068C27.3468 3.9494 27.5 4.34094 27.5 4.74919C27.5 5.15744 27.3468 5.54898 27.0741 5.8377Z" fill="#FF9B77"/>
</g>
<path d="M5.22266 52.2165V43.6852H8.21094C9.24609 43.6852 10.0312 43.8845 10.5664 44.2829C11.1016 44.6774 11.3691 45.2575 11.3691 46.0231C11.3691 46.4411 11.2617 46.8102 11.0469 47.1306C10.832 47.447 10.5332 47.6794 10.1504 47.8278C10.5879 47.9372 10.9316 48.1579 11.1816 48.4899C11.4355 48.822 11.5625 49.2282 11.5625 49.7087C11.5625 50.529 11.3008 51.1501 10.7773 51.572C10.2539 51.9938 9.50781 52.2087 8.53906 52.2165H5.22266ZM6.98047 48.5016V50.8044H8.48633C8.90039 50.8044 9.22266 50.7067 9.45312 50.5114C9.6875 50.3122 9.80469 50.0388 9.80469 49.6911C9.80469 48.9099 9.40039 48.5134 8.5918 48.5016H6.98047ZM6.98047 47.2595H8.28125C9.16797 47.2438 9.61133 46.8903 9.61133 46.1989C9.61133 45.8122 9.49805 45.5349 9.27148 45.3669C9.04883 45.195 8.69531 45.1091 8.21094 45.1091H6.98047V47.2595ZM17.7031 50.4587H14.6211L14.0352 52.2165H12.166L15.3418 43.6852H16.9707L20.1641 52.2165H18.2949L17.7031 50.4587ZM15.0957 49.0349H17.2285L16.1562 45.8415L15.0957 49.0349ZM27.5293 49.3747C27.4629 50.2927 27.123 51.0153 26.5098 51.5427C25.9004 52.07 25.0957 52.3337 24.0957 52.3337C23.002 52.3337 22.1406 51.9665 21.5117 51.2321C20.8867 50.4938 20.5742 49.4821 20.5742 48.197V47.6755C20.5742 46.8552 20.7188 46.1325 21.0078 45.5075C21.2969 44.8825 21.709 44.404 22.2441 44.072C22.7832 43.736 23.4082 43.5681 24.1191 43.5681C25.1035 43.5681 25.8965 43.8317 26.498 44.3591C27.0996 44.8864 27.4473 45.6266 27.541 46.5798H25.7832C25.7402 46.029 25.5859 45.6306 25.3203 45.3845C25.0586 45.1345 24.6582 45.0095 24.1191 45.0095C23.5332 45.0095 23.0938 45.2204 22.8008 45.6423C22.5117 46.0602 22.3633 46.7106 22.3555 47.5934V48.238C22.3555 49.1599 22.4941 49.8337 22.7715 50.2595C23.0527 50.6852 23.4941 50.8981 24.0957 50.8981C24.6387 50.8981 25.043 50.7751 25.3086 50.529C25.5781 50.279 25.7324 49.8942 25.7715 49.3747H27.5293ZM31.3555 48.7946L30.4414 49.779V52.2165H28.6836V43.6852H30.4414V47.5524L31.2148 46.4919L33.3887 43.6852H35.5508L32.5215 47.4763L35.6387 52.2165H33.5469L31.3555 48.7946Z" fill="#FF9B77"/>
<defs>
<filter id="filter0_d" x="0" y="0" width="40" height="60" filterUnits="userSpaceOnUse" color-interpolation-filters="sRGB">
<feFlood flood-opacity="0" result="BackgroundImageFix"/>
<feColorMatrix in="SourceAlpha" type="matrix" values="0 0 0 0 0 0 0 0 0 0 0 0 0 0 0 0 0 0 127 0"/>
<feOffset dy="4"/>
<feGaussianBlur stdDeviation="2"/>
<feColorMatrix type="matrix" values="0 0 0 0 0 0 0 0 0 0 0 0 0 0 0 0 0 0 0.25 0"/>
<feBlend mode="normal" in2="BackgroundImageFix" result="effect1_dropShadow"/>
<feBlend mode="normal" in="SourceGraphic" in2="effect1_dropShadow" result="shape"/>
</filter>
</defs>
</svg>
