<svg width="69" height="68" viewBox="0 0 69 68" fill="none" xmlns="http://www.w3.org/2000/svg">
<g filter="url(#filter0_d)">
<path d="M29.6274 19.799L26.799 22.6274L32.4558 28.2843L26.799 33.9411L29.6274 36.7696L35.2843 31.1127L40.9411 36.7696L43.7696 33.9411L38.1127 28.2843L43.7696 22.6274L40.9411 19.799L35.2843 25.4558L29.6274 19.799ZM21.1421 14.1421C13.3357 21.9486 13.3357 34.6199 21.1421 42.4264C28.9486 50.2329 41.6199 50.2329 49.4264 42.4264C57.2329 34.6199 57.2329 21.9486 49.4264 14.1421C41.6199 6.33568 28.9486 6.33568 21.1421 14.1421ZM46.598 39.598C40.3613 45.8347 30.2072 45.8347 23.9706 39.598C17.7339 33.3613 17.7339 23.2072 23.9706 16.9706C30.2072 10.7339 40.3613 10.7339 46.598 16.9706C52.8347 23.2072 52.8347 33.3613 46.598 39.598Z" fill="#FF9B77"/>
</g>
<path d="M7.47656 62.1573C7.41016 63.0753 7.07031 63.7979 6.45703 64.3253C5.84766 64.8526 5.04297 65.1163 4.04297 65.1163C2.94922 65.1163 2.08789 64.7491 1.45898 64.0147C0.833984 63.2765 0.521484 62.2647 0.521484 60.9796V60.4581C0.521484 59.6378 0.666016 58.9151 0.955078 58.2901C1.24414 57.6651 1.65625 57.1866 2.19141 56.8546C2.73047 56.5186 3.35547 56.3507 4.06641 56.3507C5.05078 56.3507 5.84375 56.6143 6.44531 57.1417C7.04688 57.669 7.39453 58.4093 7.48828 59.3624H5.73047C5.6875 58.8116 5.5332 58.4132 5.26758 58.1671C5.00586 57.9171 4.60547 57.7921 4.06641 57.7921C3.48047 57.7921 3.04102 58.003 2.74805 58.4249C2.45898 58.8429 2.31055 59.4933 2.30273 60.3761V61.0206C2.30273 61.9425 2.44141 62.6163 2.71875 63.0421C3 63.4679 3.44141 63.6808 4.04297 63.6808C4.58594 63.6808 4.99023 63.5577 5.25586 63.3116C5.52539 63.0616 5.67969 62.6768 5.71875 62.1573H7.47656ZM10.3887 63.587H14.1211V64.9991H8.63086V56.4679H10.3887V63.587ZM21.7676 60.9268C21.7676 61.7667 21.6191 62.503 21.3223 63.1358C21.0254 63.7686 20.5996 64.2569 20.0449 64.6007C19.4941 64.9444 18.8613 65.1163 18.1465 65.1163C17.4395 65.1163 16.8086 64.9464 16.2539 64.6065C15.6992 64.2667 15.2695 63.7823 14.9648 63.1534C14.6602 62.5206 14.5059 61.794 14.502 60.9737V60.5518C14.502 59.712 14.6523 58.9737 14.9531 58.337C15.2578 57.6964 15.6855 57.2061 16.2363 56.8663C16.791 56.5226 17.4238 56.3507 18.1348 56.3507C18.8457 56.3507 19.4766 56.5226 20.0273 56.8663C20.582 57.2061 21.0098 57.6964 21.3105 58.337C21.6152 58.9737 21.7676 59.7101 21.7676 60.546V60.9268ZM19.9863 60.5401C19.9863 59.6456 19.8262 58.9659 19.5059 58.5011C19.1855 58.0362 18.7285 57.8038 18.1348 57.8038C17.5449 57.8038 17.0898 58.0343 16.7695 58.4952C16.4492 58.9522 16.2871 59.6241 16.2832 60.5108V60.9268C16.2832 61.7979 16.4434 62.4737 16.7637 62.9542C17.084 63.4347 17.5449 63.6749 18.1465 63.6749C18.7363 63.6749 19.1895 63.4444 19.5059 62.9835C19.8223 62.5186 19.9824 61.8429 19.9863 60.9561V60.5401ZM27.4688 62.7608C27.4688 62.4288 27.3516 62.1749 27.1172 61.9991C26.8828 61.8194 26.4609 61.6319 25.8516 61.4366C25.2422 61.2374 24.7598 61.0421 24.4043 60.8507C23.4355 60.3272 22.9512 59.6222 22.9512 58.7354C22.9512 58.2745 23.0801 57.8643 23.3379 57.505C23.5996 57.1417 23.9727 56.8585 24.457 56.6554C24.9453 56.4522 25.4922 56.3507 26.0977 56.3507C26.707 56.3507 27.25 56.462 27.7266 56.6847C28.2031 56.9034 28.5723 57.214 28.834 57.6163C29.0996 58.0186 29.2324 58.4757 29.2324 58.9874H27.4746C27.4746 58.5968 27.3516 58.294 27.1055 58.0792C26.8594 57.8604 26.5137 57.7511 26.0684 57.7511C25.6387 57.7511 25.3047 57.8429 25.0664 58.0265C24.8281 58.2061 24.709 58.4444 24.709 58.7413C24.709 59.0186 24.8477 59.2511 25.125 59.4386C25.4062 59.6261 25.8184 59.8018 26.3613 59.9659C27.3613 60.2667 28.0898 60.6397 28.5469 61.0851C29.0039 61.5304 29.2324 62.0851 29.2324 62.7491C29.2324 63.4874 28.9531 64.0675 28.3945 64.4893C27.8359 64.9073 27.084 65.1163 26.1387 65.1163C25.4824 65.1163 24.8848 64.9972 24.3457 64.7589C23.8066 64.5167 23.3945 64.1866 23.1094 63.7686C22.8281 63.3507 22.6875 62.8663 22.6875 62.3155H24.4512C24.4512 63.2569 25.0137 63.7276 26.1387 63.7276C26.5566 63.7276 26.8828 63.6436 27.1172 63.4757C27.3516 63.3038 27.4688 63.0655 27.4688 62.7608ZM35.5605 61.3018H32.1855V63.587H36.1465V64.9991H30.4277V56.4679H36.1348V57.8917H32.1855V59.9249H35.5605V61.3018ZM41.9238 61.9933V64.9991H40.166V56.4679H43.4941C44.1348 56.4679 44.6973 56.5851 45.1816 56.8194C45.6699 57.0538 46.0449 57.3878 46.3066 57.8214C46.5684 58.2511 46.6992 58.7413 46.6992 59.2921C46.6992 60.128 46.4121 60.7882 45.8379 61.2726C45.2676 61.753 44.4766 61.9933 43.4648 61.9933H41.9238ZM41.9238 60.5694H43.4941C43.959 60.5694 44.3125 60.4601 44.5547 60.2413C44.8008 60.0226 44.9238 59.7101 44.9238 59.3038C44.9238 58.8858 44.8008 58.5479 44.5547 58.2901C44.3086 58.0323 43.9688 57.8995 43.5352 57.8917H41.9238V60.5694ZM51.6855 63.2413H48.6035L48.0176 64.9991H46.1484L49.3242 56.4679H50.9531L54.1465 64.9991H52.2773L51.6855 63.2413ZM49.0781 61.8175H51.2109L50.1387 58.6241L49.0781 61.8175ZM61.5645 63.921C61.248 64.2999 60.8008 64.5948 60.2227 64.8058C59.6445 65.0128 59.0039 65.1163 58.3008 65.1163C57.5625 65.1163 56.9141 64.9561 56.3555 64.6358C55.8008 64.3116 55.3711 63.8429 55.0664 63.2296C54.7656 62.6163 54.6113 61.8956 54.6035 61.0675V60.4874C54.6035 59.6358 54.7461 58.8995 55.0312 58.2784C55.3203 57.6534 55.7344 57.1768 56.2734 56.8487C56.8164 56.5167 57.4512 56.3507 58.1777 56.3507C59.1895 56.3507 59.9805 56.5929 60.5508 57.0772C61.1211 57.5577 61.459 58.2589 61.5645 59.1808H59.8535C59.7754 58.6925 59.6016 58.3351 59.332 58.1085C59.0664 57.8819 58.6992 57.7686 58.2305 57.7686C57.6328 57.7686 57.1777 57.9933 56.8652 58.4425C56.5527 58.8917 56.3945 59.5597 56.3906 60.4464V60.9913C56.3906 61.8858 56.5605 62.5616 56.9004 63.0186C57.2402 63.4757 57.7383 63.7042 58.3945 63.7042C59.0547 63.7042 59.5254 63.5636 59.8066 63.2823V61.8116H58.207V60.5167H61.5645V63.921ZM68.127 61.3018H64.752V63.587H68.7129V64.9991H62.9941V56.4679H68.7012V57.8917H64.752V59.9249H68.127V61.3018Z" fill="#FF9B77"/>
<defs>
<filter id="filter0_d" x="3" y="0" width="64.5685" height="64.5685" filterUnits="userSpaceOnUse" color-interpolation-filters="sRGB">
<feFlood flood-opacity="0" result="BackgroundImageFix"/>
<feColorMatrix in="SourceAlpha" type="matrix" values="0 0 0 0 0 0 0 0 0 0 0 0 0 0 0 0 0 0 127 0"/>
<feOffset dy="4"/>
<feGaussianBlur stdDeviation="2"/>
<feColorMatrix type="matrix" values="0 0 0 0 0 0 0 0 0 0 0 0 0 0 0 0 0 0 0.1 0"/>
<feBlend mode="normal" in2="BackgroundImageFix" result="effect1_dropShadow"/>
<feBlend mode="normal" in="SourceGraphic" in2="effect1_dropShadow" result="shape"/>
</filter>
</defs>
</svg>
