<svg width="48" height="60" viewBox="0 0 48 60" fill="none" xmlns="http://www.w3.org/2000/svg">
<g filter="url(#filter0_d)">
<path fill-rule="evenodd" clip-rule="evenodd" d="M24 40C12.954 40 4 31.046 4 20C4 8.954 12.954 0 24 0C35.046 0 44 8.954 44 20C44 31.046 35.046 40 24 40ZM24 36C28.2435 36 32.3131 34.3143 35.3137 31.3137C38.3143 28.3131 40 24.2435 40 20C40 15.7565 38.3143 11.6869 35.3137 8.68629C32.3131 5.68571 28.2435 4 24 4C19.7565 4 15.6869 5.68571 12.6863 8.68629C9.68571 11.6869 8 15.7565 8 20C8 24.2435 9.68571 28.3131 12.6863 31.3137C15.6869 34.3143 19.7565 36 24 36ZM22 28H26V32H22V28ZM22 24.016C22 24.016 26 24 26 24.016C26 22.012 32 20 32 16C32 11.58 28.454 8 24.018 8C22.9659 7.99763 21.9237 8.20281 20.951 8.60379C19.9783 9.00477 19.0943 9.59367 18.3495 10.3368C17.6047 11.0799 17.0138 11.9626 16.6107 12.9344C16.2075 13.9061 16 14.9479 16 16H20C20 13.8 21.8 12 24 12C26.2 12 28 13.8 28 16C28 17.8 22 20.734 22 24.016Z" fill="#FF9B77"/>
</g>
<path d="M16.9629 57H15.2051V53.3438H11.7773V57H10.0195V48.4688H11.7773V51.9258H15.2051V48.4688H16.9629V57ZM23.6367 53.3027H20.2617V55.5879H24.2227V57H18.5039V48.4688H24.2109V49.8926H20.2617V51.9258H23.6367V53.3027ZM27.0117 55.5879H30.7441V57H25.2539V48.4688H27.0117V55.5879ZM33.5156 53.9941V57H31.7578V48.4688H35.0859C35.7266 48.4688 36.2891 48.5859 36.7734 48.8203C37.2617 49.0547 37.6367 49.3887 37.8984 49.8223C38.1602 50.252 38.291 50.7422 38.291 51.293C38.291 52.1289 38.0039 52.7891 37.4297 53.2734C36.8594 53.7539 36.0684 53.9941 35.0566 53.9941H33.5156ZM33.5156 52.5703H35.0859C35.5508 52.5703 35.9043 52.4609 36.1465 52.2422C36.3926 52.0234 36.5156 51.7109 36.5156 51.3047C36.5156 50.8867 36.3926 50.5488 36.1465 50.291C35.9004 50.0332 35.5605 49.9004 35.127 49.8926H33.5156V52.5703Z" fill="#FF9B77"/>
<defs>
<filter id="filter0_d" x="0" y="0" width="48" height="48" filterUnits="userSpaceOnUse" color-interpolation-filters="sRGB">
<feFlood flood-opacity="0" result="BackgroundImageFix"/>
<feColorMatrix in="SourceAlpha" type="matrix" values="0 0 0 0 0 0 0 0 0 0 0 0 0 0 0 0 0 0 127 0"/>
<feOffset dy="4"/>
<feGaussianBlur stdDeviation="2"/>
<feColorMatrix type="matrix" values="0 0 0 0 0 0 0 0 0 0 0 0 0 0 0 0 0 0 0.25 0"/>
<feBlend mode="normal" in2="BackgroundImageFix" result="effect1_dropShadow"/>
<feBlend mode="normal" in="SourceGraphic" in2="effect1_dropShadow" result="shape"/>
</filter>
</defs>
</svg>
