<svg width="93" height="101" viewBox="0 0 93 101" fill="none" xmlns="http://www.w3.org/2000/svg">
<path d="M5.15353 100.887L87.7218 101C89.0893 101.003 90.4038 100.471 91.3726 99.5265C92.3415 98.5819 92.8865 97.2999 92.889 95.9625L93 15.2411C93.0126 6.89646 86.0768 0.0982408 77.5389 0.0856469L15.6143 1.75086e-05C7.07886 -0.0125763 0.123382 6.77046 0.111776 15.1126L5.61791e-06 95.8339C-0.0020128 97.1714 0.539931 98.456 1.5065 99.403C2.47307 100.35 3.78479 100.884 5.15353 100.887ZM77.5263 9.79298C78.205 9.79298 78.8761 9.92399 79.5018 10.1784C80.1275 10.4328 80.6952 10.8056 81.1746 11.274C81.6514 11.7451 82.0324 12.3017 82.2897 12.9138C82.5496 13.5258 82.6808 14.1806 82.6808 14.8456C82.6783 15.508 82.5446 16.1629 82.2847 16.7749C82.0248 17.387 81.6439 17.9412 81.1645 18.4097C80.6851 18.8782 80.1149 19.2484 79.4892 19.5003C78.8609 19.7547 78.1898 19.8831 77.5136 19.8831C76.1436 19.8806 74.8317 19.3466 73.8654 18.3996C72.899 17.4525 72.3566 16.168 72.3591 14.8305C72.3616 13.493 72.9066 12.2084 73.8755 11.2639C74.8443 10.3194 76.1588 9.79046 77.5263 9.79298ZM62.045 9.77023C62.7237 9.77275 63.3948 9.90385 64.0205 10.1582C64.6462 10.4126 65.2139 10.7854 65.6933 11.2539C66.1701 11.7224 66.5511 12.279 66.8085 12.891C67.0658 13.5031 67.1995 14.1605 67.1995 14.823C67.197 15.4854 67.0633 16.1403 66.8034 16.7523C66.5435 17.3644 66.1626 17.921 65.6832 18.387C65.2013 18.8555 64.6336 19.2258 64.0054 19.4802C63.3797 19.732 62.7085 19.863 62.0324 19.8605C60.6624 19.858 59.3504 19.3266 58.3841 18.377C57.4178 17.4299 56.8753 16.1477 56.8778 14.8078C56.8804 13.4703 57.4253 12.1883 58.3942 11.2438C59.363 10.2992 60.6775 9.76771 62.045 9.77023ZM46.5423 25.2682C63.6194 25.2909 77.4859 38.8873 77.4632 55.5817C77.4405 72.2735 63.5336 85.832 46.4582 85.8068C29.3821 85.7842 15.5143 72.1879 15.5373 55.496C15.5605 38.8017 29.4662 25.243 46.5423 25.2682Z" fill="#FF9B77"/>
<path d="M50.4256 75.3665C57.6472 74.0593 63.7025 68.7497 66.0438 61.9414C67.7393 57.1633 67.4643 51.9294 65.2743 47.3452C65.0346 46.8415 64.6259 46.4335 64.1163 46.1892C63.6041 45.9423 63.0238 45.8768 62.4687 46.0002C59.3528 46.7483 57.2082 48.2519 54.7233 50.0302C50.663 52.9343 45.6058 56.5463 36.1778 56.5337C31.9822 56.5262 28.696 55.7856 25.9419 54.7327L25.8748 54.7781C25.7612 57.8157 26.3498 60.8382 27.5965 63.6214C28.8431 66.4047 30.7157 68.8781 33.0752 70.8553C35.4345 72.8351 38.2197 74.2684 41.2236 75.0492C44.2275 75.83 47.373 75.9383 50.4256 75.3665Z" fill="#FF9B77"/>
</svg>
