<svg width="87" height="110" viewBox="0 0 87 110" fill="none" xmlns="http://www.w3.org/2000/svg">
<path d="M43.5004 65.9945C55.4964 65.9945 65.2513 56.1282 65.2513 43.998C65.2513 31.8651 55.4964 21.999 43.5004 21.999C31.5052 21.999 21.7504 31.8651 21.7504 43.998C21.7504 56.1282 31.5052 65.9945 43.5004 65.9945ZM43.5004 32.9972C49.4979 32.9972 54.3746 37.9315 54.3746 43.998C54.3746 50.0618 49.4979 54.9962 43.5004 54.9962C37.503 54.9962 32.6255 50.0618 32.6255 43.998C32.6255 37.9315 37.503 32.9972 43.5004 32.9972Z" fill="#FF9B77"/>
<path d="M40.3465 108.959C41.2668 109.645 42.3695 110 43.5004 110C44.6312 110 45.7339 109.645 46.6542 108.959C48.307 107.792 87.1576 79.4141 86.9995 43.998C86.9995 19.7399 67.4848 0 43.5004 0C19.5155 0 0.000479718 19.74 0.000479718 43.9701C-0.157375 79.4142 38.6937 107.792 40.3465 108.959ZM43.5004 11.0007C61.4918 11.0007 76.1254 25.7987 76.1254 44.0258C76.2383 68.4311 52.2665 90.3464 43.5004 97.5373C34.7406 90.3413 10.7612 68.421 10.8754 43.998C10.8754 25.7987 25.5077 11.0007 43.5004 11.0007Z" fill="#FF9B77"/>
</svg>
