<svg width="105" height="94" viewBox="0 0 105 94" fill="none" xmlns="http://www.w3.org/2000/svg">
<path d="M94.5214 20.9513L78.782 20.9287L78.7971 10.4932C78.8047 4.73821 74.1051 0.0526339 68.3185 0.0426166L36.8407 9.04634e-06C31.0541 -0.00750394 26.3416 4.6656 26.3335 10.4205L26.3189 20.8561L10.58 20.836C7.7972 20.831 5.12688 21.9279 3.15623 23.8813C1.18584 25.8372 0.0765706 28.4893 0.0727804 31.2565L1.10855e-05 83.4342C-0.00403179 86.2015 1.0979 88.8586 3.06274 90.817C5.02783 92.7779 7.69511 93.8798 10.4779 93.8848L94.4178 94C97.2023 94.0025 99.8731 92.9081 101.842 90.9522C103.812 88.9989 104.922 86.3468 104.927 83.5795L105 31.4018C105.003 28.632 103.901 25.9774 101.935 24.0166C99.9717 22.0582 97.3034 20.9538 94.5214 20.9513ZM36.826 10.4356L68.3039 10.4781L68.2894 20.9137L36.8116 20.8711L36.826 10.4356ZM73.4775 62.6633L57.7386 62.6433L57.7166 78.2954L47.2241 78.2803L47.2458 62.6283L31.5069 62.6057L31.5215 52.1702L47.2604 52.1927L47.2822 36.5382L57.7749 36.5532L57.753 52.2078L73.4919 52.2278L73.4775 62.6633Z" fill="#FF9B77"/>
</svg>
