<svg width="126" height="108" viewBox="0 0 126 108" fill="none" xmlns="http://www.w3.org/2000/svg">
<path d="M74.8121 69.4283C74.0333 69.4283 73.2722 69.6549 72.6249 70.078C71.9776 70.5011 71.4719 71.1054 71.176 71.808C70.8777 72.5131 70.7993 73.2887 70.951 74.0367C71.1027 74.7871 71.477 75.472 72.0282 76.0135C72.5794 76.5524 73.2798 76.92 74.0434 77.0686C74.8096 77.2172 75.601 77.1416 76.3191 76.8495C77.0398 76.5574 77.6542 76.0613 78.0866 75.4292C78.519 74.7946 78.7491 74.0492 78.7491 73.2862C78.7491 72.2613 78.3344 71.2817 77.596 70.559C76.8577 69.8337 75.8564 69.4283 74.8121 69.4283ZM82.6885 46.2858C81.9098 46.2858 81.1486 46.5124 80.5013 46.9355C79.8515 47.3585 79.3483 47.9629 79.0499 48.6655C78.7516 49.3706 78.6732 50.1462 78.8249 50.8941C78.9766 51.642 79.3534 52.3295 79.9046 52.8709C80.4533 53.4098 81.1562 53.7775 81.9199 53.9261C82.6835 54.0747 83.4749 53.9991 84.1955 53.707C84.9136 53.4149 85.5281 52.9188 85.9605 52.2842C86.3954 51.6521 86.6255 50.9042 86.6255 50.1437C86.6255 49.1188 86.2108 48.1392 85.4725 47.4139C84.7341 46.6912 83.7328 46.2858 82.6885 46.2858ZM90.5624 61.715C91.3412 61.715 92.1023 61.4883 92.7496 61.0627C93.3969 60.6397 93.9026 60.0378 94.201 59.3327C94.4994 58.6276 94.5752 57.852 94.4235 57.1041C94.2718 56.3562 93.8976 55.6687 93.3464 55.1298C92.7951 54.5909 92.0947 54.2232 91.3311 54.0746C90.5675 53.9261 89.776 54.0016 89.0554 54.2937C88.3373 54.5859 87.7204 55.0794 87.288 55.714C86.8556 56.3486 86.6255 57.094 86.6255 57.857C86.6255 58.8794 87.0402 59.8615 87.7785 60.5843C88.5168 61.307 89.5181 61.715 90.5624 61.715ZM82.6885 69.4283C83.4673 69.4283 84.2284 69.2017 84.8757 68.7786C85.523 68.3555 86.0262 67.7512 86.3246 67.046C86.623 66.3435 86.7013 65.5678 86.5496 64.8174C86.3979 64.0695 86.0237 63.382 85.4725 62.8431C84.9212 62.3042 84.2208 61.9366 83.4547 61.788C82.6911 61.6394 81.8996 61.715 81.1815 62.0071C80.4609 62.2992 79.8465 62.7928 79.4141 63.4274C78.9817 64.0619 78.7491 64.8073 78.7491 65.5704C78.7491 66.5928 79.1663 67.5749 79.9046 68.2976C80.643 69.0229 81.6443 69.4283 82.6885 69.4283ZM74.8121 53.9991C74.0333 53.9991 73.2722 54.2257 72.6249 54.6488C71.9776 55.0744 71.4719 55.6762 71.176 56.3813C70.8777 57.0865 70.7993 57.8621 70.951 58.61C71.1027 59.3579 71.477 60.0454 72.0282 60.5843C72.5794 61.1232 73.2798 61.4908 74.0434 61.6394C74.8096 61.788 75.601 61.7124 76.3191 61.4203C77.0398 61.1282 77.6542 60.6346 78.0866 60C78.519 59.3654 78.7491 58.62 78.7491 57.857C78.7491 56.8346 78.3344 55.8525 77.596 55.1298C76.8577 54.4071 75.8564 53.9991 74.8121 53.9991ZM106.313 46.2858C107.092 46.2858 107.853 46.0591 108.5 45.6361C109.147 45.2105 109.653 44.6086 109.951 43.9035C110.247 43.1984 110.326 42.4228 110.174 41.6749C110.022 40.927 109.648 40.2395 109.097 39.7006C108.545 39.1617 107.845 38.794 107.081 38.6455C106.318 38.4969 105.526 38.5724 104.806 38.8646C104.085 39.1567 103.471 39.6502 103.038 40.2848C102.606 40.9194 102.376 41.6648 102.376 42.4278C102.376 43.4502 102.79 44.4324 103.529 45.1551C104.267 45.8778 105.268 46.2858 106.313 46.2858ZM94.4994 50.1437C94.4994 50.9042 94.732 51.6521 95.1644 52.2842C95.5967 52.9188 96.2112 53.4149 96.9318 53.707C97.6499 53.9991 98.4414 54.0747 99.205 53.9261C99.9686 53.7775 100.672 53.4098 101.223 52.8709C101.771 52.3295 102.148 51.642 102.3 50.8941C102.452 50.1462 102.373 49.3706 102.075 48.6655C101.777 47.9629 101.273 47.3585 100.626 46.9355C99.9787 46.5124 99.2151 46.2858 98.4389 46.2858C97.3946 46.2858 96.3907 46.6912 95.6524 47.4139C94.9141 48.1392 94.4994 49.1188 94.4994 50.1437ZM90.5624 38.5699C89.7836 38.5699 89.0225 38.7966 88.3752 39.2221C87.7279 39.6452 87.2222 40.2471 86.9239 40.9522C86.628 41.6573 86.5496 42.4329 86.7013 43.1808C86.853 43.9287 87.2273 44.6162 87.7785 45.1551C88.3297 45.694 89.0301 46.0616 89.7938 46.2102C90.5574 46.3613 91.3488 46.2833 92.0694 45.9911C92.7901 45.699 93.4045 45.2054 93.8369 44.5709C94.2693 43.9363 94.4994 43.1909 94.4994 42.4278C94.4994 41.4054 94.0847 40.4233 93.3464 39.7006C92.608 38.9779 91.6067 38.5699 90.5624 38.5699ZM114.187 46.2858C113.408 46.2858 112.647 46.5124 111.999 46.9355C111.352 47.3585 110.849 47.9629 110.551 48.6655C110.252 49.3706 110.174 50.1462 110.326 50.8941C110.477 51.642 110.851 52.3295 111.403 52.8709C111.954 53.4098 112.654 53.7775 113.42 53.9261C114.184 54.0747 114.976 53.9991 115.694 53.707C116.414 53.4149 117.029 52.9188 117.461 52.2842C117.893 51.6521 118.126 50.9042 118.126 50.1437C118.126 49.1188 117.709 48.1392 116.971 47.4139C116.232 46.6912 115.231 46.2858 114.187 46.2858ZM122.063 38.5699C121.284 38.5699 120.523 38.7966 119.876 39.2221C119.229 39.6452 118.723 40.2471 118.424 40.9522C118.126 41.6573 118.048 42.4329 118.199 43.1808C118.354 43.9287 118.728 44.6162 119.279 45.1551C119.828 45.694 120.531 46.0616 121.294 46.2102C122.058 46.3613 122.849 46.2833 123.57 45.9911C124.288 45.699 124.903 45.2054 125.335 44.5709C125.77 43.9363 126 43.1909 126 42.4278C126 41.4054 125.585 40.4233 124.847 39.7006C124.109 38.9779 123.107 38.5699 122.063 38.5699ZM106.313 53.9991C105.534 53.9991 104.773 54.2257 104.126 54.6488C103.478 55.0744 102.973 55.6762 102.674 56.3813C102.376 57.0865 102.3 57.8621 102.452 58.61C102.603 59.3579 102.978 60.0454 103.529 60.5843C104.08 61.1232 104.78 61.4908 105.544 61.6394C106.308 61.788 107.099 61.7124 107.82 61.4203C108.538 61.1282 109.155 60.6346 109.587 60C110.02 59.3654 110.25 58.62 110.25 57.857C110.25 56.8346 109.835 55.8525 109.097 55.1298C108.358 54.4071 107.357 53.9991 106.313 53.9991ZM98.4389 61.715C97.6601 61.715 96.8964 61.9391 96.2491 62.3647C95.6018 62.7877 95.0986 63.3896 94.8003 64.0947C94.5019 64.7998 94.4235 65.5754 94.5752 66.3233C94.727 67.0712 95.1037 67.7587 95.6524 68.2976C96.2036 68.839 96.9066 69.2042 97.6702 69.3553C98.4338 69.5038 99.2252 69.4258 99.9433 69.1337C100.664 68.8415 101.278 68.348 101.711 67.7134C102.143 67.0788 102.376 66.3334 102.376 65.5704C102.376 64.548 101.961 63.5658 101.223 62.8431C100.484 62.1204 99.4806 61.715 98.4389 61.715ZM82.6885 77.1416C81.9098 77.1416 81.1486 77.3683 80.5013 77.7913C79.8515 78.2169 79.3483 78.8188 79.0499 79.5239C78.7516 80.229 78.6732 81.0046 78.8249 81.7525C78.9766 82.5004 79.3534 83.1879 79.9046 83.7268C80.4533 84.2657 81.1562 84.6334 81.9199 84.7819C82.6835 84.9305 83.4749 84.855 84.1955 84.5628C84.9136 84.2707 85.5281 83.7772 85.9605 83.1426C86.3954 82.508 86.6255 81.7626 86.6255 80.9996C86.6255 79.9772 86.2108 78.995 85.4725 78.2723C84.7341 77.5496 83.7328 77.1416 82.6885 77.1416ZM74.8121 84.8575C74.0333 84.8575 73.2722 85.0841 72.6249 85.5072C71.9776 85.9302 71.4719 86.5321 71.176 87.2372C70.8777 87.9423 70.7993 88.7179 70.951 89.4658C71.1027 90.2138 71.477 90.9012 72.0282 91.4401C72.5794 91.9816 73.2798 92.3492 74.0434 92.4978C74.8096 92.6464 75.601 92.5683 76.3191 92.2762C77.0398 91.9866 77.6542 91.4905 78.0866 90.8559C78.519 90.2213 78.7491 89.4759 78.7491 88.7129C78.7491 87.6905 78.3344 86.7109 77.596 85.9856C76.8577 85.2629 75.8564 84.8575 74.8121 84.8575ZM90.5624 69.4283C89.7836 69.4283 89.0225 69.6549 88.3752 70.078C87.7279 70.5011 87.2222 71.1054 86.9239 71.808C86.628 72.5131 86.5496 73.2887 86.7013 74.0367C86.853 74.7871 87.2273 75.472 87.7785 76.0135C88.3297 76.5524 89.0301 76.92 89.7938 77.0686C90.5574 77.2172 91.3488 77.1416 92.0694 76.8495C92.7901 76.5574 93.4045 76.0613 93.8369 75.4292C94.2693 74.7946 94.4994 74.0492 94.4994 73.2862C94.4994 72.2613 94.0847 71.2817 93.3464 70.559C92.608 69.8337 91.6067 69.4283 90.5624 69.4283ZM95.8901 16.7898L93.1087 14.065C92.7446 13.7049 92.3097 13.4204 91.8318 13.2265C91.3539 13.0326 90.8431 12.9344 90.3247 12.9344C89.8089 12.9344 89.2956 13.0326 88.8177 13.2265C88.3398 13.4204 87.9074 13.7049 87.5408 14.065L86.145 15.4274C81.0247 10.4841 74.1269 7.71407 66.9382 7.71407C62.2023 7.71407 57.8127 8.99081 53.9187 11.0532L51.4585 8.64329C45.8729 3.146 38.2948 0.0385085 30.378 0.000735071C13.6567 -0.12014 0 14.6845 0 31.0606V104.142C0 105.164 0.414683 106.147 1.15555 106.869C1.89388 107.592 2.89522 108 3.93951 108H11.8134C12.8577 108 13.859 107.592 14.5973 106.869C15.3357 106.147 15.7503 105.164 15.7503 104.142V30.4713C15.7503 23.2037 20.9187 16.4397 28.302 15.5407C30.4892 15.2612 32.7118 15.4778 34.8004 16.1753C36.889 16.8703 38.7854 18.0287 40.343 19.5598L42.8032 21.9723C40.6793 25.7748 39.3745 30.0759 39.3745 34.7145C39.3771 41.7555 42.2065 48.5144 47.251 53.5307L45.8577 54.8956C45.1194 55.6208 44.7047 56.6004 44.7047 57.6228C44.7047 58.6452 45.1194 59.6273 45.8577 60.3501L48.6391 63.0748C49.0032 63.4349 49.4382 63.7195 49.9161 63.9134C50.394 64.1073 50.9047 64.2055 51.4231 64.2055C51.9414 64.2055 52.4522 64.1073 52.9301 63.9134C53.408 63.7195 53.8429 63.4349 54.207 63.0748L95.8901 22.2468C96.2567 21.8867 96.5475 21.4636 96.7447 20.9952C96.9419 20.5268 97.0431 20.0257 97.0431 19.517C97.0431 19.0108 96.9419 18.5097 96.7447 18.0413C96.5475 17.5729 96.2567 17.1474 95.8901 16.7898Z" fill="#FF9B77"/>
</svg>
