<svg width="63" height="92" viewBox="0 0 63 92" fill="none" xmlns="http://www.w3.org/2000/svg">
<path d="M31.5432 3.63221e-05C39.8977 0.0100464 47.9053 3.25334 53.806 9.01163C59.7052 14.7699 63.0126 22.5728 63 30.7059C62.9797 45.8862 51.6213 58.4938 36.7081 60.9263L36.6932 71.557L47.1932 71.572L47.1791 81.7923L36.6791 81.7773L36.6646 92L26.1647 91.985L26.1788 81.7647L15.6788 81.7498L15.693 71.5269L26.1932 71.542L26.2082 60.9113C11.3013 58.4388 -0.0212104 45.7986 2.98341e-05 30.6209C0.0114085 22.4877 3.34132 14.6924 9.25671 8.94908C15.1721 3.20831 23.189 -0.0124763 31.5432 3.63221e-05ZM31.5291 10.2203C25.9593 10.2128 20.6149 12.36 16.6713 16.1889C12.7277 20.0152 10.5079 25.2129 10.5003 30.6358C10.4927 36.0563 12.6979 41.2591 16.6308 45.0979C20.5638 48.9368 25.9022 51.0989 31.4717 51.1064C37.0414 51.1139 42.3858 48.9668 46.3294 45.1379C50.2733 41.3116 52.4937 36.1139 52.5012 30.6934C52.5088 25.2705 50.3029 20.0677 46.3699 16.2289C42.4369 12.39 37.0986 10.2279 31.5291 10.2203Z" fill="#FF9B77"/>
</svg>
