<svg width="223" height="201" viewBox="0 0 223 201" fill="none" xmlns="http://www.w3.org/2000/svg">
<path d="M201.86 17.8857C196.387 12.3292 189.883 7.92299 182.723 4.92029C175.563 1.91758 167.887 0.377612 160.137 0.388882C143.833 0.388882 129.064 7.09084 118.385 17.9155L111.236 25.2449L104.097 17.8857C93.4179 7.07092 78.6679 0.388882 62.374 0.388882C46.0802 0.388882 31.3302 7.08088 20.6512 17.8857L17.4652 21.1122C6.78622 31.9269 0.188049 46.8644 0.188049 63.3654C0.188049 79.8663 6.79605 94.8038 17.4652 105.619L101.53 190.752L111.02 200.82L111.246 200.591L111.492 200.84L120.381 191.34L205.026 105.619C215.686 94.7939 222.284 79.8663 222.284 63.3654C222.284 46.8644 215.695 31.9369 205.026 21.1122L201.86 17.8857ZM194.613 95.0428L111.256 179.46L27.8984 95.0428C19.894 86.9368 14.938 75.7336 14.938 63.3554C14.938 50.9772 19.894 39.7741 27.8984 31.668L31.0844 28.4415C35.1889 24.2741 40.0661 20.9692 45.4359 18.7168C50.8056 16.4644 56.5619 15.3088 62.374 15.3164C68.1812 15.311 73.9323 16.4657 79.2981 18.7145C84.6639 20.9633 89.539 24.2619 93.644 28.4216L111.206 46.5258L128.847 28.4415C136.852 20.3354 147.914 15.3164 160.137 15.3164C172.36 15.3164 183.422 20.3354 191.427 28.4415L194.613 31.668C202.607 39.784 207.553 50.9872 207.553 63.3554C207.553 75.7237 202.607 86.9268 194.613 95.0428Z" fill="#FF9B77"/>
</svg>
